<svg width="300" height="300" viewBox="0 0 300 300" fill="none" xmlns="http://www.w3.org/2000/svg">
<path d="M25.5489 164.102C9.19021 146.074 -1.72367e-07 121.623 0 96.1286C1.72367e-07 70.6337 9.19021 46.183 25.5489 28.1554C41.9076 10.1278 64.0947 1.89952e-07 87.2294 0C110.364 -1.89952e-07 132.551 10.1278 148.91 28.1554L150 29.4048L151.09 28.1554C159.19 19.229 168.806 12.1483 179.389 7.31737C189.973 2.48646 201.315 0 212.771 0C224.226 0 235.569 2.48646 246.152 7.31737C256.735 12.1483 266.351 19.229 274.451 28.1554C282.551 37.0818 288.976 47.6789 293.36 59.3418C297.744 71.0046 300 83.5048 300 96.1286C300 108.752 297.744 121.253 293.36 132.915C288.976 144.578 282.551 155.175 274.451 164.102L151.09 300L150 298.799L148.91 300L25.5489 164.102Z" fill="black"/>
</svg>
