<svg width="300" height="300" viewBox="0 0 300 300" fill="none" xmlns="http://www.w3.org/2000/svg">
<path d="M25.5489 114.233C9.19021 129.387 -1.72367e-07 149.94 0 171.37C1.72367e-07 192.801 9.19021 213.353 25.5489 228.507C41.9076 243.661 64.0947 252.174 87.2294 252.174C95.6475 252.174 103.94 251.047 111.872 248.883C108.212 259.337 104.036 268.726 99.3305 275.958C97.7632 278.366 96.9164 281.114 96.8765 283.923C96.8366 286.732 97.6051 289.5 99.1035 291.944C100.602 294.389 102.777 296.423 105.405 297.838C108.034 299.253 111.023 299.999 114.066 300H182.844C185.887 299.999 188.876 299.253 191.504 297.838C194.133 296.423 196.308 294.389 197.806 291.944C199.305 289.5 200.073 286.732 200.033 283.923C199.993 281.114 199.146 278.366 197.579 275.958C192.721 268.49 188.426 258.722 184.681 247.87C193.714 250.716 203.203 252.174 212.771 252.174C224.226 252.174 235.569 250.084 246.152 246.023C256.735 241.962 266.351 236.01 274.451 228.507C282.551 221.004 288.976 212.096 293.36 202.292C297.744 192.489 300 181.981 300 171.37C300 160.759 297.744 150.252 293.36 140.448C288.976 130.644 282.551 121.737 274.451 114.233L151.09 0.04041L150 1.00987L148.91 0L25.5489 114.233Z" fill="#4CDAE3"/>
</svg>
