<svg width="300" height="300" viewBox="0 0 300 300" fill="none" xmlns="http://www.w3.org/2000/svg">
<path fill-rule="evenodd" clip-rule="evenodd" d="M115.263 246.557C104.457 250.795 92.8319 252.833 81.1412 252.537C69.4506 252.241 57.9564 249.619 47.4055 244.841C36.8547 240.063 27.4832 233.235 19.9002 224.802C12.3172 216.369 6.69219 206.519 3.39077 195.893C0.089348 185.266 -0.814639 174.1 0.737541 163.121C2.28972 152.142 6.26334 141.595 12.4002 132.165C18.5371 122.736 26.6998 114.635 36.3581 108.388C46.0164 102.142 56.9541 97.8908 68.4605 95.9102C65.7849 84.3765 65.8745 72.4214 68.7226 60.9249C71.5706 49.4284 77.1047 38.6833 84.9173 29.4808C92.7299 20.2783 102.622 12.8526 113.866 7.75058C125.109 2.64853 137.418 0 149.885 0C162.352 0 174.66 2.64853 185.904 7.75058C197.147 12.8526 207.04 20.2783 214.852 29.4808C222.665 38.6833 228.199 49.4284 231.047 60.9249C233.895 72.4214 233.984 84.3765 231.309 95.9102C242.843 97.8676 253.811 102.105 263.501 108.346C273.19 114.588 281.381 122.693 287.542 132.134C293.703 141.574 297.694 152.139 299.256 163.138C300.818 174.138 299.915 185.326 296.606 195.973C293.298 206.62 287.658 216.487 280.054 224.931C272.45 233.375 263.053 240.207 252.475 244.981C241.897 249.755 230.375 252.364 218.662 252.639C206.948 252.913 195.304 250.846 184.49 246.573C188.242 257.991 192.577 268.288 197.512 276.074C199.032 278.47 199.853 281.205 199.892 284C199.93 286.795 199.185 289.55 197.732 291.983C196.279 294.416 194.17 296.44 191.621 297.849C189.072 299.257 186.174 299.999 183.223 300H116.53C113.579 299.999 110.68 299.257 108.131 297.849C105.582 296.44 103.474 294.416 102.021 291.983C100.568 289.55 99.8223 286.795 99.861 284C99.8997 281.205 100.721 278.47 102.241 276.074C107.176 268.288 111.511 257.991 115.263 246.557Z" fill="black"/>
</svg>
