<svg width="682" height="1000" viewBox="0 0 682 1000" fill="none" xmlns="http://www.w3.org/2000/svg">
<rect width="681.818" height="1000" rx="90.9091" fill="black"/>
<path d="M244.51 916.234L232.495 899.089L225.475 899.359C225.475 900.079 225.475 901.699 225.475 904.219C225.565 906.649 225.61 908.224 225.61 908.944C225.61 912.364 224.665 915.244 222.775 917.584C220.975 919.924 218.725 921.364 216.025 921.904C213.415 922.444 210.76 922.444 208.06 921.904C205.45 921.364 203.2 919.969 201.31 917.719C199.51 915.379 198.61 912.544 198.61 909.214C198.34 885.904 198.52 862.729 199.15 839.689C199.24 835.999 200.59 832.849 203.2 830.239C205.9 827.629 209.185 826.324 213.055 826.324C227.365 826.324 236.59 826.639 240.73 827.269C249.64 828.439 256.93 832.129 262.6 838.339C268.09 844.369 270.925 852.064 271.105 861.424C271.195 866.914 270.16 872.224 268 877.354C265.84 882.394 262.78 886.534 258.82 889.774L268.54 903.814C272.05 908.854 271.96 913.489 268.27 917.719C265.21 921.319 261.115 922.984 255.985 922.714C251.215 922.354 247.39 920.194 244.51 916.234ZM225.88 853.054L225.61 872.359C234.16 872.539 239.875 870.514 242.755 866.284C244.825 863.224 244.465 860.299 241.675 857.509C238.435 854.359 233.17 852.874 225.88 853.054Z" fill="white"/>
<path d="M303.399 839.689L303.264 840.229C303.264 840.589 303.219 841.129 303.129 841.849C303.129 842.479 303.129 843.154 303.129 843.874C303.129 843.964 303.039 846.484 302.859 851.434C302.769 856.384 302.679 860.569 302.589 863.989C302.589 873.349 303.309 881.359 304.749 888.019C306.279 894.589 308.709 897.784 312.039 897.604C314.649 897.514 316.764 896.029 318.384 893.149C320.004 890.269 320.994 886.309 321.354 881.269C321.714 876.859 321.894 871.999 321.894 866.689C321.894 861.919 321.759 856.654 321.489 850.894C321.219 844.684 321.129 840.589 321.219 838.609C321.309 835.279 322.299 832.489 324.189 830.239C326.079 827.989 328.329 826.639 330.939 826.189C333.639 825.649 336.294 825.694 338.904 826.324C341.514 826.864 343.719 828.349 345.519 830.779C347.409 833.119 348.309 835.999 348.219 839.419V877.219C348.129 886.129 346.914 893.959 344.574 900.709C342.234 907.639 338.364 913.264 332.964 917.584C327.564 921.904 321.039 924.244 313.389 924.604C301.509 925.144 292.554 921.004 286.524 912.184C281.214 903.904 277.974 892.924 276.804 879.244C276.444 875.104 276.174 870.514 275.994 865.474C275.904 861.244 275.994 853.954 276.264 843.604L276.399 839.284C276.489 835.864 277.479 833.029 279.369 830.779C281.259 828.439 283.509 827.044 286.119 826.594C288.819 826.054 291.474 826.099 294.084 826.729C296.784 827.269 299.034 828.709 300.834 831.049C302.634 833.389 303.489 836.269 303.399 839.689Z" fill="white"/>
<path d="M414.408 875.059C419.178 880.189 422.058 885.769 423.048 891.799C424.038 897.739 422.913 903.319 419.673 908.539C414.993 915.289 408.423 919.564 399.963 921.364C394.023 922.534 388.488 923.074 383.358 922.984C379.218 922.984 376.563 922.939 375.393 922.849L367.833 922.444C364.323 922.174 361.353 920.779 358.923 918.259C356.583 915.739 355.278 912.679 355.008 909.079C352.758 883.519 352.668 860.299 354.738 839.419C355.638 830.419 360.138 825.919 368.238 825.919C377.688 825.199 386.508 825.829 394.698 827.809C402.618 829.879 408.873 833.479 413.463 838.609C418.233 843.739 420.663 849.499 420.753 855.889C420.933 862.189 418.818 868.579 414.408 875.059ZM381.738 852.784V862.909C386.688 862.909 390.108 862.099 391.998 860.479C394.068 858.679 393.888 856.879 391.458 855.079C389.208 853.549 385.968 852.784 381.738 852.784ZM381.873 886.399V897.064C389.703 897.604 394.653 896.524 396.723 893.824C398.253 891.934 397.443 890.224 394.293 888.694C391.413 887.164 387.273 886.399 381.873 886.399Z" fill="white"/>
<path d="M465.318 825.379C478.098 825.379 487.908 829.744 494.748 838.474C501.768 847.204 505.188 858.679 505.008 872.899C505.008 887.839 501.498 899.944 494.478 909.214C487.638 918.484 477.873 923.119 465.183 923.119C452.493 923.209 442.773 918.664 436.023 909.484C429.183 900.124 425.718 888.289 425.628 873.979C425.448 859.309 428.733 847.564 435.483 838.744C442.323 829.834 452.268 825.379 465.318 825.379ZM465.183 849.544C461.133 849.724 457.983 852.109 455.733 856.699C453.573 861.199 452.403 866.734 452.223 873.304C452.133 879.964 453.213 885.634 455.463 890.314C457.713 894.994 460.908 897.289 465.048 897.199C469.548 897.199 472.968 894.769 475.308 889.909C477.648 885.049 478.728 879.379 478.548 872.899C478.458 866.869 477.198 861.469 474.768 856.699C472.428 852.109 469.233 849.724 465.183 849.544Z" fill="white"/>
<path d="M555.906 916.234L543.891 899.089L536.871 899.359C536.871 900.079 536.871 901.699 536.871 904.219C536.961 906.649 537.006 908.224 537.006 908.944C537.006 912.364 536.061 915.244 534.171 917.584C532.371 919.924 530.121 921.364 527.421 921.904C524.811 922.444 522.156 922.444 519.456 921.904C516.846 921.364 514.596 919.969 512.706 917.719C510.906 915.379 510.006 912.544 510.006 909.214C509.736 885.904 509.916 862.729 510.546 839.689C510.636 835.999 511.986 832.849 514.596 830.239C517.296 827.629 520.581 826.324 524.451 826.324C538.761 826.324 547.986 826.639 552.126 827.269C561.036 828.439 568.326 832.129 573.996 838.339C579.486 844.369 582.321 852.064 582.501 861.424C582.591 866.914 581.556 872.224 579.396 877.354C577.236 882.394 574.176 886.534 570.216 889.774L579.936 903.814C583.446 908.854 583.356 913.489 579.666 917.719C576.606 921.319 572.511 922.984 567.381 922.714C562.611 922.354 558.786 920.194 555.906 916.234ZM537.276 853.054L537.006 872.359C545.556 872.539 551.271 870.514 554.151 866.284C556.221 863.224 555.861 860.299 553.071 857.509C549.831 854.359 544.566 852.874 537.276 853.054Z" fill="white"/>
<path d="M114.344 899.83C112.72 899.601 111.376 898.915 110.309 897.772C109.288 896.584 108.662 895.12 108.43 893.383C107.781 887.713 107.341 881.381 107.109 874.386C106.877 867.664 107.016 861.926 107.526 857.171C107.712 855.205 108.454 853.582 109.752 852.302C111.051 850.976 112.651 850.336 114.552 850.381C124.246 850.381 131.689 852.439 136.884 856.554C142.124 860.669 144.745 866.773 144.745 874.866C144.745 883.05 141.823 889.497 135.979 894.206C130.136 898.87 122.924 900.744 114.344 899.83ZM121.44 864.372L122.066 885.702C125.266 885.107 127.515 883.987 128.814 882.341C130.159 880.695 130.831 878.203 130.831 874.866C130.831 868.83 127.701 865.333 121.44 864.372Z" fill="white"/>
<path d="M167.031 850.724C173.617 850.724 178.672 852.942 182.197 857.377C185.815 861.812 187.577 867.642 187.484 874.866C187.484 882.455 185.676 888.605 182.058 893.314C178.533 898.024 173.501 900.378 166.962 900.378C160.423 900.424 155.414 898.115 151.935 893.452C148.411 888.697 146.625 882.684 146.579 875.414C146.486 867.962 148.179 861.995 151.657 857.514C155.182 852.988 160.307 850.724 167.031 850.724ZM166.962 863.001C164.875 863.092 163.252 864.304 162.092 866.636C160.979 868.922 160.376 871.734 160.283 875.071C160.237 878.455 160.794 881.335 161.953 883.713C163.112 886.09 164.759 887.256 166.892 887.211C169.211 887.211 170.974 885.976 172.179 883.507C173.385 881.038 173.942 878.158 173.849 874.866C173.803 871.802 173.153 869.059 171.901 866.636C170.695 864.304 169.049 863.092 166.962 863.001Z" fill="white"/>
<path d="M121.491 818.562C118.288 818.104 115.634 816.731 113.529 814.443C111.516 812.064 110.28 809.136 109.823 805.658C108.541 794.31 107.672 781.635 107.214 767.633C106.757 754.181 107.031 742.695 108.038 733.178C108.404 729.243 109.868 725.994 112.431 723.431C114.993 720.777 118.151 719.496 121.903 719.588C141.029 719.588 155.718 723.706 165.967 731.942C176.309 740.179 181.479 752.396 181.479 768.594C181.479 784.976 175.714 797.879 164.183 807.305C152.652 816.64 138.421 820.392 121.491 818.562ZM135.493 747.591L136.728 790.283C143.043 789.094 147.481 786.852 150.044 783.557C152.698 780.262 154.025 775.275 154.025 768.594C154.025 756.514 147.847 749.513 135.493 747.591Z" fill="white"/>
<path d="M198.518 720.686H234.896C238.373 720.594 241.302 721.464 243.681 723.294C246.061 725.124 247.525 727.412 248.074 730.158C248.623 732.812 248.623 735.511 248.074 738.257C247.616 740.911 246.198 743.199 243.818 745.121C241.531 747.042 238.648 748.049 235.17 748.141H212.108V754.867C212.749 754.867 214.351 754.867 216.913 754.867C219.475 754.775 221.077 754.73 221.718 754.73C225.836 754.73 229.13 756.102 231.601 758.848C234.164 761.593 235.399 764.796 235.308 768.457C235.308 771.935 234.072 775.092 231.601 777.929C229.313 780.766 226.019 782.184 221.718 782.184C221.077 782.184 219.475 782.23 216.913 782.322C214.442 782.322 212.886 782.322 212.246 782.322V791.107C213.984 791.016 217.874 790.97 223.914 790.97C230.045 790.97 233.981 790.924 235.719 790.832C239.288 790.832 242.263 791.793 244.642 793.715C247.022 795.546 248.486 797.833 249.035 800.579C249.584 803.233 249.538 805.933 248.898 808.678C248.349 811.332 246.884 813.62 244.505 815.542C242.217 817.372 239.38 818.287 235.994 818.287C233.157 818.379 226.888 818.424 217.187 818.424C207.487 818.424 201.264 818.47 198.518 818.562C194.766 818.562 191.563 817.235 188.909 814.581C186.347 811.927 184.974 808.678 184.791 804.834C183.876 780.583 183.83 757.063 184.654 734.276C184.837 730.341 186.21 727.092 188.772 724.53C191.426 721.876 194.675 720.594 198.518 720.686Z" fill="white"/>
<path d="M293.41 746.631C291.579 744.892 289.657 743.977 287.644 743.885C285.631 743.794 283.8 744.754 282.153 746.768C280.872 749.147 282.153 751.664 285.997 754.318C286.454 754.684 289.52 756.514 295.194 759.809C303.888 765.117 309.974 769.875 313.451 774.085C317.844 779.393 319.491 786.119 318.393 794.264C317.57 800.853 314.87 806.299 310.294 810.6C305.627 814.993 300.41 817.784 294.645 818.973C288.88 820.438 282.748 820.758 276.25 819.934C269.753 819.111 264.216 817.235 259.64 814.306C253.143 810.28 250.168 805.155 250.718 798.932C251.267 794.081 253.555 790.466 257.581 788.087C262.523 785.067 267.556 785.616 272.681 789.734L274.191 790.97C277.577 793.99 280.872 795.729 284.075 796.186C287.369 796.644 289.795 795.546 291.35 792.892C292.174 790.695 291.625 788.728 289.703 786.989C287.781 785.25 284.029 783.008 278.447 780.262C270.027 776.144 264.033 772.209 260.464 768.457C256.254 763.973 254.195 757.567 254.287 749.239C254.47 741.917 256.712 735.74 261.013 730.707C265.589 725.49 270.897 722.104 276.937 720.549C283.16 718.81 289.612 718.535 296.292 719.725C303.247 721.006 308.921 723.706 313.314 727.824C317.798 731.942 318.942 736.564 316.746 741.689C315.007 745.898 311.85 748.69 307.274 750.062C302.332 751.527 297.711 750.383 293.41 746.631Z" fill="white"/>
<path d="M322.274 805.933C323.007 783.603 325.981 764.385 331.197 748.278C334.034 739.675 337.878 732.949 342.728 728.099C347.578 723.157 353.161 720.594 359.475 720.411C366.339 720.137 372.379 722.379 377.596 727.138C382.903 731.897 387.067 738.623 390.087 747.317C395.67 763.515 398.827 783.282 399.559 806.619C399.651 810.096 398.781 813.071 396.951 815.542C395.121 817.921 392.833 819.385 390.087 819.934C387.433 820.483 384.734 820.483 381.988 819.934C379.243 819.477 376.909 818.058 374.987 815.679C373.065 813.3 372.105 810.371 372.105 806.893L349.729 806.756C349.546 811.057 347.99 814.398 345.062 816.777C342.133 819.157 338.976 820.255 335.59 820.072C332.204 819.98 329.092 818.699 326.255 816.228C323.51 813.574 322.183 810.142 322.274 805.933ZM352.063 779.302L369.908 779.439C367.895 765.162 364.829 755.187 360.711 749.513C356.867 755.645 353.985 765.574 352.063 779.302Z" fill="white"/>
<path d="M446.319 786.165L430.395 786.577V796.049C430.487 798.794 430.533 801.86 430.533 805.246C430.533 808.724 429.572 811.652 427.65 814.032C425.82 816.411 423.532 817.875 420.786 818.424C418.132 818.973 415.433 818.973 412.687 818.424C410.033 817.875 407.745 816.457 405.823 814.169C403.993 811.79 403.078 808.907 403.078 805.521C402.803 779.622 402.986 755.965 403.627 734.55C403.719 730.707 405.091 727.504 407.745 724.941C410.399 722.379 413.648 721.006 417.492 720.823C430.212 720.183 442.109 720 453.183 720.274C457.301 720.366 460.687 721.738 463.341 724.392C465.995 727.046 467.368 730.112 467.459 733.59C467.551 737.067 466.361 740.179 463.89 742.924C461.511 745.67 458.262 747.225 454.144 747.591C450.025 747.957 442.247 748.186 430.807 748.278C430.807 749.101 430.761 750.932 430.67 753.769C430.67 756.606 430.67 758.39 430.67 759.122C431.219 759.122 433.598 759.031 437.808 758.848C442.018 758.665 444.397 758.573 444.946 758.573C451.993 758.573 456.706 761.273 459.085 766.672C461.099 771.157 460.778 775.549 458.124 779.851C455.562 784.06 451.627 786.165 446.319 786.165Z" fill="white"/>
<path d="M499.019 735.511C498.378 758.665 498.195 781.91 498.47 805.246C498.47 808.724 497.509 811.652 495.587 814.032C493.757 816.411 491.469 817.875 488.724 818.424C486.07 818.973 483.37 818.973 480.624 818.424C477.97 817.875 475.683 816.457 473.761 814.169C471.93 811.79 471.015 808.907 471.015 805.521C470.741 781.818 470.924 758.253 471.564 734.825C471.656 731.439 472.663 728.602 474.584 726.314C476.506 723.935 478.794 722.516 481.448 722.059C484.194 721.51 486.893 721.555 489.547 722.196C492.201 722.745 494.443 724.255 496.274 726.726C498.195 729.105 499.111 732.034 499.019 735.511Z" fill="white"/>
<path d="M541.635 720.274C554.63 720.274 564.605 724.713 571.56 733.59C578.699 742.467 582.176 754.135 581.993 768.594C581.993 783.786 578.424 796.095 571.286 805.521C564.331 814.947 554.401 819.66 541.498 819.66C528.594 819.751 518.71 815.13 511.847 805.795C504.891 796.278 501.368 784.243 501.277 769.692C501.093 754.775 504.434 742.833 511.297 733.864C518.253 724.804 528.365 720.274 541.635 720.274ZM541.498 744.846C537.379 745.029 534.176 747.454 531.888 752.121C529.692 756.697 528.502 762.325 528.319 769.006C528.228 775.778 529.326 781.544 531.614 786.302C533.902 791.061 537.151 793.395 541.36 793.303C545.936 793.303 549.414 790.832 551.793 785.891C554.172 780.949 555.271 775.183 555.088 768.594C554.996 762.463 553.715 756.972 551.244 752.121C548.865 747.454 545.616 745.029 541.498 744.846Z" fill="white"/>
<circle cx="157.818" cy="435.42" r="62.8176" fill="#FFF323"/>
<circle cx="523.452" cy="435.42" r="62.8176" fill="#FFF323"/>
<mask id="path-7-inside-1_1167_120" fill="white">
<path d="M132.432 174.179C88.1411 228.009 66.2078 296.789 71.1599 366.323C76.1119 435.856 107.571 500.834 159.044 547.844C210.518 594.853 278.075 620.306 347.771 618.948C417.467 617.591 483.981 589.526 533.584 540.547C583.187 491.568 612.092 425.414 614.332 355.74C616.572 286.067 591.977 218.193 545.622 166.129C499.268 114.065 434.693 81.7855 365.228 75.9536C295.763 70.1216 226.711 91.1825 172.324 134.789L189.339 156.01C238.287 116.764 300.434 97.8095 362.953 103.058C425.471 108.307 483.588 137.359 525.307 184.216C567.026 231.074 589.162 292.16 587.146 354.866C585.13 417.572 559.116 477.111 514.473 521.192C469.831 565.273 409.967 590.531 347.241 591.754C284.515 592.976 223.713 570.068 177.387 527.759C131.062 485.45 102.748 426.97 98.2911 364.39C93.8343 301.811 113.574 239.908 153.436 191.461L132.432 174.179Z"/>
</mask>
<path d="M132.432 174.179C88.1411 228.009 66.2078 296.789 71.1599 366.323C76.1119 435.856 107.571 500.834 159.044 547.844C210.518 594.853 278.075 620.306 347.771 618.948C417.467 617.591 483.981 589.526 533.584 540.547C583.187 491.568 612.092 425.414 614.332 355.74C616.572 286.067 591.977 218.193 545.622 166.129C499.268 114.065 434.693 81.7855 365.228 75.9536C295.763 70.1216 226.711 91.1825 172.324 134.789L189.339 156.01C238.287 116.764 300.434 97.8095 362.953 103.058C425.471 108.307 483.588 137.359 525.307 184.216C567.026 231.074 589.162 292.16 587.146 354.866C585.13 417.572 559.116 477.111 514.473 521.192C469.831 565.273 409.967 590.531 347.241 591.754C284.515 592.976 223.713 570.068 177.387 527.759C131.062 485.45 102.748 426.97 98.2911 364.39C93.8343 301.811 113.574 239.908 153.436 191.461L132.432 174.179Z" stroke="white" stroke-width="81.8182" stroke-linejoin="round" mask="url(#path-7-inside-1_1167_120)"/>
<circle cx="428.078" cy="316.067" r="51.3962" fill="white"/>
<circle cx="258.468" cy="316.067" r="51.3962" fill="white"/>
<path d="M279.027 480.649H341.845H404.662" stroke="white" stroke-width="44.8276" stroke-linecap="round"/>
<path d="M198.923 225.84C233.268 196.21 254.724 190.759 296.479 202.874" stroke="white" stroke-width="22.7273" stroke-linecap="round"/>
<path d="M485.546 226.833C451.201 197.203 429.744 191.751 387.99 203.867" stroke="white" stroke-width="22.7273" stroke-linecap="round"/>
</svg>
