<svg width="682" height="1000" viewBox="0 0 682 1000" fill="none" xmlns="http://www.w3.org/2000/svg">
<rect width="681.818" height="1000" rx="90.9091" fill="black"/>
<circle cx="191.919" cy="355.556" r="55.5556" fill="#FFF323"/>
<circle cx="495.249" cy="355.556" r="55.5556" fill="#FFF323"/>
<mask id="path-4-inside-1_1127_26" fill="white">
<path d="M156.715 151.047C117.544 198.654 98.1461 259.483 102.526 320.978C106.905 382.472 134.728 439.939 180.25 481.514C225.773 523.089 285.52 545.6 347.159 544.399C408.798 543.198 467.623 518.377 511.492 475.061C555.36 431.744 580.924 373.238 582.905 311.619C584.886 250 563.134 189.973 522.138 143.927C481.142 97.8822 424.033 69.3343 362.599 64.1766C301.164 59.0188 240.094 77.645 191.995 116.21L222.029 153.669C260.528 122.801 309.409 107.893 358.582 112.021C407.754 116.149 453.465 138.999 486.278 175.854C519.092 212.709 536.502 260.756 534.917 310.076C533.331 359.396 512.87 406.225 477.757 440.896C442.644 475.567 395.56 495.434 346.224 496.395C296.888 497.356 249.065 479.339 212.629 446.061C176.192 412.784 153.923 366.788 150.417 317.567C146.912 268.346 162.438 219.658 193.791 181.553L156.715 151.047Z"/>
</mask>
<path d="M156.715 151.047C117.544 198.654 98.1461 259.483 102.526 320.978C106.905 382.472 134.728 439.939 180.25 481.514C225.773 523.089 285.52 545.6 347.159 544.399C408.798 543.198 467.623 518.377 511.492 475.061C555.36 431.744 580.924 373.238 582.905 311.619C584.886 250 563.134 189.973 522.138 143.927C481.142 97.8822 424.033 69.3343 362.599 64.1766C301.164 59.0188 240.094 77.645 191.995 116.21L222.029 153.669C260.528 122.801 309.409 107.893 358.582 112.021C407.754 116.149 453.465 138.999 486.278 175.854C519.092 212.709 536.502 260.756 534.917 310.076C533.331 359.396 512.87 406.225 477.757 440.896C442.644 475.567 395.56 495.434 346.224 496.395C296.888 497.356 249.065 479.339 212.629 446.061C176.192 412.784 153.923 366.788 150.417 317.567C146.912 268.346 162.438 219.658 193.791 181.553L156.715 151.047Z" stroke="white" stroke-width="81.8182" stroke-linejoin="round" mask="url(#path-4-inside-1_1127_26)"/>
<circle cx="418.183" cy="250" r="45.4545" fill="white"/>
<circle cx="268.181" cy="250" r="45.4545" fill="white"/>
<path d="M286.363 395.555H341.919H397.474" stroke="white" stroke-width="44.8276" stroke-linecap="round"/>
<path d="M225.518 196.736C255.892 170.531 274.868 165.71 311.796 176.425" stroke="white" stroke-width="22.7273" stroke-linecap="round"/>
<path d="M459.007 197.614C428.633 171.409 409.657 166.588 372.729 177.303" stroke="white" stroke-width="22.7273" stroke-linecap="round"/>
<path d="M79.7347 673.585C76.0448 673.058 72.9874 671.477 70.5626 668.841C68.2432 666.1 66.8199 662.726 66.2928 658.72C64.8168 645.647 63.8152 631.045 63.2881 614.915C62.761 599.417 63.0773 586.186 64.237 575.222C64.6587 570.689 66.3455 566.946 69.2974 563.994C72.2494 560.937 75.8866 559.461 80.2091 559.566C102.243 559.566 119.164 564.31 130.972 573.799C142.885 583.287 148.842 597.362 148.842 616.022C148.842 634.894 142.2 649.759 128.916 660.618C115.633 671.371 99.2386 675.694 79.7347 673.585ZM95.865 591.827L97.2882 641.008C104.563 639.638 109.676 637.055 112.628 633.259C115.685 629.464 117.214 623.718 117.214 616.022C117.214 602.106 110.098 594.041 95.865 591.827Z" fill="white"/>
<path d="M170.052 560.831H211.96C215.966 560.726 219.34 561.727 222.081 563.836C224.822 565.944 226.509 568.58 227.141 571.743C227.774 574.8 227.774 577.91 227.141 581.073C226.614 584.131 224.98 586.766 222.239 588.98C219.603 591.194 216.282 592.354 212.276 592.459H185.708V600.208C186.446 600.208 188.291 600.208 191.243 600.208C194.195 600.103 196.04 600.05 196.778 600.05C201.522 600.05 205.318 601.631 208.164 604.794C211.116 607.957 212.539 611.647 212.434 615.864C212.434 619.87 211.011 623.507 208.164 626.776C205.529 630.044 201.733 631.678 196.778 631.678C196.04 631.678 194.195 631.731 191.243 631.836C188.397 631.836 186.604 631.836 185.867 631.836V641.957C187.87 641.852 192.35 641.799 199.308 641.799C206.372 641.799 210.905 641.746 212.908 641.641C217.02 641.641 220.446 642.748 223.188 644.962C225.929 647.07 227.616 649.706 228.248 652.869C228.881 655.926 228.828 659.036 228.09 662.199C227.457 665.256 225.771 667.892 223.029 670.106C220.394 672.215 217.126 673.269 213.225 673.269C209.957 673.374 202.735 673.427 191.56 673.427C180.384 673.427 173.215 673.48 170.052 673.585C165.73 673.585 162.04 672.056 158.983 668.999C156.031 665.942 154.449 662.199 154.238 657.771C153.184 629.833 153.131 602.738 154.08 576.487C154.291 571.954 155.873 568.211 158.825 565.259C161.882 562.202 165.625 560.726 170.052 560.831Z" fill="white"/>
<path d="M280.95 590.72C278.841 588.717 276.627 587.662 274.308 587.557C271.988 587.451 269.88 588.558 267.982 590.878C266.506 593.619 267.982 596.518 272.41 599.576C272.937 599.997 276.469 602.106 283.005 605.901C293.021 612.016 300.032 617.498 304.038 622.348C309.098 628.462 310.996 636.211 309.731 645.594C308.782 653.185 305.672 659.458 300.401 664.413C295.024 669.473 289.015 672.689 282.373 674.06C275.731 675.746 268.667 676.115 261.182 675.167C253.697 674.218 247.318 672.056 242.047 668.683C234.562 664.044 231.135 658.14 231.768 650.971C232.4 645.383 235.036 641.219 239.675 638.478C245.368 634.999 251.166 635.631 257.07 640.376L258.81 641.799C262.711 645.278 266.506 647.281 270.196 647.808C273.991 648.335 276.785 647.07 278.577 644.013C279.526 641.483 278.894 639.216 276.68 637.213C274.466 635.21 270.143 632.627 263.712 629.464C254.013 624.72 247.108 620.186 242.996 615.864C238.146 610.698 235.774 603.318 235.88 593.724C236.09 585.29 238.673 578.174 243.628 572.375C248.9 566.366 255.015 562.465 261.973 560.673C269.142 558.67 276.574 558.354 284.27 559.724C292.283 561.2 298.819 564.31 303.88 569.054C309.046 573.799 310.364 579.123 307.833 585.027C305.83 589.876 302.193 593.092 296.922 594.673C291.229 596.36 285.905 595.042 280.95 590.72Z" fill="white"/>
<path d="M315.784 659.036C316.627 633.312 320.053 611.172 326.063 592.617C329.331 582.707 333.759 574.958 339.346 569.371C344.934 563.678 351.365 560.726 358.64 560.515C366.547 560.199 373.505 562.782 379.514 568.264C385.629 573.746 390.426 581.495 393.905 591.51C400.336 610.171 403.973 632.943 404.817 659.827C404.922 663.833 403.92 667.26 401.812 670.106C399.703 672.847 397.068 674.534 393.905 675.167C390.847 675.799 387.737 675.799 384.575 675.167C381.412 674.639 378.723 673.005 376.509 670.264C374.295 667.523 373.188 664.149 373.188 660.143L347.412 659.985C347.201 664.94 345.409 668.788 342.035 671.529C338.661 674.27 335.024 675.536 331.123 675.325C327.222 675.219 323.638 673.743 320.37 670.897C317.207 667.839 315.678 663.886 315.784 659.036ZM350.1 628.357L370.658 628.515C368.339 612.069 364.807 600.577 360.063 594.041C355.635 601.104 352.314 612.543 350.1 628.357Z" fill="white"/>
<path d="M460.266 636.264L441.921 636.738V647.65C442.027 650.813 442.08 654.345 442.08 658.246C442.08 662.252 440.973 665.625 438.759 668.367C436.65 671.108 434.014 672.794 430.852 673.427C427.794 674.06 424.684 674.06 421.521 673.427C418.464 672.794 415.828 671.16 413.614 668.525C411.506 665.784 410.451 662.463 410.451 658.562C410.135 628.726 410.346 601.473 411.084 576.803C411.189 572.375 412.771 568.685 415.828 565.734C418.886 562.782 422.628 561.2 427.056 560.989C441.711 560.251 455.416 560.04 468.173 560.357C472.917 560.462 476.818 562.044 479.875 565.101C482.932 568.158 484.514 571.69 484.619 575.696C484.725 579.703 483.354 583.287 480.508 586.45C477.766 589.613 474.024 591.405 469.28 591.827C464.535 592.248 455.574 592.512 442.396 592.617C442.396 593.566 442.343 595.675 442.238 598.943C442.238 602.211 442.238 604.267 442.238 605.11C442.87 605.11 445.611 605.005 450.461 604.794C455.311 604.583 458.052 604.478 458.684 604.478C466.802 604.478 472.232 607.588 474.973 613.808C477.292 618.974 476.923 624.035 473.866 628.99C470.914 633.839 466.38 636.264 460.266 636.264Z" fill="white"/>
<path d="M522.558 577.91C521.82 604.583 521.609 631.362 521.925 658.246C521.925 662.252 520.818 665.625 518.605 668.367C516.496 671.108 513.86 672.794 510.698 673.427C507.64 674.06 504.53 674.06 501.367 673.427C498.31 672.794 495.674 671.16 493.46 668.525C491.352 665.784 490.297 662.463 490.297 658.562C489.981 631.256 490.192 604.109 490.93 577.12C491.035 573.219 492.195 569.951 494.409 567.315C496.623 564.574 499.259 562.94 502.316 562.413C505.479 561.78 508.589 561.833 511.646 562.571C514.704 563.203 517.287 564.943 519.395 567.789C521.609 570.53 522.663 573.904 522.558 577.91Z" fill="white"/>
<path d="M573.233 560.357C588.204 560.357 599.695 565.47 607.708 575.696C615.931 585.923 619.937 599.365 619.727 616.022C619.727 633.523 615.615 647.703 607.392 658.562C599.379 669.421 587.94 674.85 573.075 674.85C558.21 674.956 546.824 669.632 538.917 658.878C530.904 647.914 526.846 634.05 526.74 617.287C526.529 600.103 530.377 586.344 538.284 576.013C546.297 565.575 557.946 560.357 573.233 560.357ZM573.075 588.664C568.331 588.875 564.641 591.669 562.005 597.045C559.475 602.317 558.105 608.8 557.894 616.497C557.788 624.298 559.053 630.94 561.689 636.422C564.325 641.904 568.067 644.593 572.917 644.487C578.188 644.487 582.195 641.641 584.936 635.948C587.677 630.255 588.942 623.613 588.731 616.022C588.626 608.959 587.15 602.633 584.303 597.045C581.562 591.669 577.819 588.875 573.075 588.664Z" fill="white"/>
<path d="M266.401 795.259C262.711 794.732 259.653 793.15 257.229 790.515C254.909 787.774 253.486 784.4 252.959 780.394C251.483 767.321 250.481 752.719 249.954 736.589C249.427 721.091 249.743 707.86 250.903 696.896C251.325 692.362 253.012 688.62 255.963 685.668C258.915 682.61 262.553 681.134 266.875 681.24C288.909 681.24 305.83 685.984 317.638 695.473C329.551 704.961 335.508 719.035 335.508 737.696C335.508 756.567 328.866 771.433 315.582 782.291C302.299 793.045 285.905 797.367 266.401 795.259ZM282.531 713.5L283.954 762.682C291.229 761.312 296.342 758.729 299.294 754.933C302.351 751.138 303.88 745.392 303.88 737.696C303.88 723.78 296.764 715.714 282.531 713.5Z" fill="white"/>
<path d="M386.17 682.031C401.14 682.031 412.632 687.144 420.644 697.37C428.867 707.597 432.874 721.039 432.663 737.696C432.663 755.197 428.551 769.377 420.328 780.236C412.315 791.095 400.877 796.524 386.011 796.524C371.146 796.63 359.76 791.305 351.853 780.552C343.841 769.588 339.782 755.724 339.676 738.961C339.466 721.776 343.314 708.018 351.221 697.686C359.233 687.249 370.883 682.031 386.17 682.031ZM386.011 710.338C381.267 710.549 377.577 713.342 374.942 718.719C372.411 723.99 371.041 730.474 370.83 738.17C370.725 745.972 371.99 752.614 374.625 758.096C377.261 763.578 381.004 766.267 385.853 766.161C391.125 766.161 395.131 763.315 397.872 757.622C400.613 751.929 401.878 745.287 401.667 737.696C401.562 730.632 400.086 724.307 397.239 718.719C394.498 713.342 390.756 710.549 386.011 710.338Z" fill="white"/>
<path d="M122.51 908.651L108.435 888.567L100.212 888.883C100.212 889.727 100.212 891.624 100.212 894.576C100.317 897.423 100.37 899.268 100.37 900.111C100.37 904.117 99.263 907.491 97.049 910.232C94.9405 912.973 92.3048 914.66 89.142 915.293C86.0846 915.925 82.9746 915.925 79.8117 915.293C76.7544 914.66 74.1187 913.026 71.9047 910.39C69.7962 907.649 68.7419 904.328 68.7419 900.427C68.4257 873.122 68.6365 845.974 69.3745 818.985C69.4799 814.663 71.0613 810.973 74.1187 807.915C77.2815 804.858 81.1296 803.329 85.6629 803.329C102.426 803.329 113.232 803.698 118.082 804.436C128.519 805.807 137.058 810.129 143.7 817.404C150.131 824.467 153.452 833.481 153.663 844.446C153.769 850.877 152.556 857.097 150.026 863.106C147.496 869.01 143.911 873.86 139.272 877.655L150.659 894.102C154.77 900.006 154.665 905.435 150.342 910.39C146.758 914.607 141.961 916.558 135.952 916.241C130.364 915.82 125.883 913.289 122.51 908.651ZM100.686 834.641L100.37 857.255C110.386 857.466 117.08 855.094 120.454 850.139C122.879 846.554 122.457 843.128 119.189 839.86C115.393 836.17 109.226 834.43 100.686 834.641Z" fill="white"/>
<path d="M216.796 818.985L216.638 819.618C216.638 820.039 216.585 820.672 216.479 821.515C216.479 822.253 216.479 823.044 216.479 823.887C216.479 823.993 216.374 826.945 216.163 832.743C216.058 838.542 215.952 843.444 215.847 847.45C215.847 858.415 216.69 867.798 218.377 875.599C220.169 883.295 223.016 887.038 226.917 886.827C229.974 886.722 232.452 884.982 234.349 881.609C236.247 878.235 237.407 873.596 237.828 867.692C238.25 862.526 238.461 856.833 238.461 850.613C238.461 845.026 238.303 838.858 237.987 832.111C237.67 824.836 237.565 820.039 237.67 817.72C237.776 813.819 238.935 810.551 241.149 807.915C243.363 805.28 245.999 803.698 249.056 803.171C252.219 802.539 255.329 802.591 258.387 803.329C261.444 803.962 264.027 805.701 266.135 808.548C268.349 811.289 269.404 814.663 269.298 818.669V862.948C269.193 873.385 267.77 882.558 265.029 890.465C262.287 898.582 257.754 905.172 251.428 910.232C245.103 915.293 237.459 918.034 228.498 918.455C214.582 919.088 204.092 914.238 197.028 903.906C190.808 894.207 187.013 881.345 185.642 865.32C185.22 860.471 184.904 855.094 184.693 849.19C184.588 844.235 184.693 835.695 185.01 823.571L185.168 818.511C185.273 814.505 186.433 811.184 188.647 808.548C190.861 805.807 193.496 804.173 196.554 803.646C199.717 803.013 202.827 803.066 205.884 803.804C209.047 804.436 211.683 806.123 213.791 808.864C215.9 811.605 216.901 814.979 216.796 818.985Z" fill="white"/>
<path d="M372.135 860.418C377.723 866.427 381.096 872.964 382.256 880.027C383.416 886.985 382.098 893.522 378.303 899.637C372.82 907.544 365.124 912.551 355.214 914.66C348.256 916.031 341.772 916.663 335.763 916.558C330.913 916.558 327.803 916.505 326.433 916.399L317.577 915.925C313.465 915.609 309.986 913.975 307.139 911.023C304.398 908.071 302.87 904.486 302.553 900.269C299.918 870.328 299.812 843.128 302.237 818.669C303.291 808.126 308.563 802.855 318.051 802.855C329.121 802.011 339.453 802.749 349.047 805.069C358.324 807.494 365.651 811.711 371.028 817.72C376.616 823.729 379.462 830.477 379.568 837.962C379.779 845.342 377.301 852.827 372.135 860.418ZM333.865 834.325V846.185C339.664 846.185 343.67 845.236 345.884 843.339C348.309 841.23 348.098 839.122 345.251 837.013C342.616 835.221 338.82 834.325 333.865 834.325ZM334.023 873.702V886.195C343.195 886.827 348.994 885.562 351.419 882.399C353.211 880.185 352.262 878.182 348.572 876.39C345.199 874.598 340.349 873.702 334.023 873.702Z" fill="white"/>
<path d="M457.074 802.222C472.044 802.222 483.536 807.335 491.548 817.562C499.772 827.788 503.778 841.23 503.567 857.888C503.567 875.388 499.455 889.568 491.232 900.427C483.22 911.286 471.781 916.716 456.916 916.716C442.05 916.821 430.664 911.497 422.757 900.744C414.745 889.779 410.686 875.916 410.58 859.153C410.37 841.968 414.218 828.21 422.125 817.878C430.137 807.441 441.787 802.222 457.074 802.222ZM456.916 830.529C452.171 830.74 448.481 833.534 445.846 838.911C443.315 844.182 441.945 850.666 441.734 858.362C441.629 866.164 442.894 872.806 445.529 878.288C448.165 883.77 451.908 886.458 456.757 886.353C462.029 886.353 466.035 883.506 468.776 877.813C471.517 872.12 472.782 865.478 472.571 857.888C472.466 850.824 470.99 844.498 468.143 838.911C465.402 833.534 461.66 830.74 456.916 830.529Z" fill="white"/>
<path d="M588.492 908.651L574.417 888.567L566.194 888.883C566.194 889.727 566.194 891.624 566.194 894.576C566.3 897.423 566.352 899.268 566.352 900.111C566.352 904.117 565.245 907.491 563.031 910.232C560.923 912.973 558.287 914.66 555.124 915.293C552.067 915.925 548.957 915.925 545.794 915.293C542.737 914.66 540.101 913.026 537.887 910.39C535.778 907.649 534.724 904.328 534.724 900.427C534.408 873.122 534.619 845.974 535.357 818.985C535.462 814.663 537.044 810.973 540.101 807.915C543.264 804.858 547.112 803.329 551.645 803.329C568.408 803.329 579.214 803.698 584.064 804.436C594.501 805.807 603.041 810.129 609.683 817.404C616.114 824.467 619.435 833.481 619.646 844.446C619.751 850.877 618.539 857.097 616.008 863.106C613.478 869.01 609.894 873.86 605.255 877.655L616.641 894.102C620.752 900.006 620.647 905.435 616.325 910.39C612.74 914.607 607.943 916.558 601.934 916.241C596.346 915.82 591.866 913.289 588.492 908.651ZM566.669 834.641L566.352 857.255C576.368 857.466 583.062 855.094 586.436 850.139C588.861 846.554 588.439 843.128 585.171 839.86C581.376 836.17 575.208 834.43 566.669 834.641Z" fill="white"/>
<path d="M457.484 738.889H596.373" stroke="white" stroke-width="21.3621" stroke-linecap="round"/>
<path d="M86.373 738.889H225.262" stroke="white" stroke-width="21.3621" stroke-linecap="round"/>
</svg>
