<svg width="682" height="1000" viewBox="0 0 682 1000" fill="none" xmlns="http://www.w3.org/2000/svg">
<rect width="681.818" height="1000" rx="90.9091" fill="black"/>
<path d="M382.343 88.3929C379.154 87.5226 375.935 86.6438 372.785 85.5532L372.724 85.5557C361.534 81.6447 351.45 80.079 340.473 85.4825C330.602 91.1413 327.011 100.417 323.922 110.756C323.48 112.275 323.033 113.772 322.574 115.266C321.812 117.733 321.067 120.188 320.374 122.669L320.342 122.782C319.685 125.128 319.021 127.493 318.268 129.817C316.885 133.859 315.643 137.931 314.426 142.028C314.342 142.313 314.261 142.585 314.18 142.858C314.019 143.402 313.862 143.934 313.704 144.466C313.325 145.747 312.942 147.027 312.521 148.295C311.844 150.325 311.198 152.346 310.585 154.38C310.471 154.758 310.361 155.126 310.251 155.494C309.757 157.115 309.263 158.753 308.774 160.387C308.4 161.625 308.029 162.868 307.655 164.106L307.298 165.293C306.664 167.42 306.017 169.535 305.315 171.632C304.962 172.666 304.633 173.7 304.324 174.747C303.613 177.3 302.881 179.865 302.124 182.405C302.016 182.767 301.911 183.119 301.806 183.469C301.1 185.852 300.364 188.213 299.615 190.575C298.194 195.042 296.82 199.552 295.462 204.062C294.986 205.658 294.505 207.24 294.028 208.827C293.935 209.137 293.843 209.441 293.752 209.744L293.679 209.985C292.947 212.41 292.211 214.835 291.462 217.26C290.833 219.303 290.212 221.345 289.59 223.387C288.476 227.046 287.344 230.735 286.195 234.407C284.089 241.172 281.983 247.894 279.983 254.702C279.022 257.978 278.043 261.237 277.005 264.488C276.32 266.615 275.652 268.76 275.026 270.913C274.129 274.019 273.18 277.112 272.193 280.188C271.269 283.039 270.376 285.928 269.534 288.825C269.031 290.57 268.525 292.301 267.938 294.016C267.33 295.782 267.33 295.782 266.236 299.547C265.802 301.083 265.368 302.602 264.87 304.1C264.168 306.172 263.526 308.252 262.922 310.354C261.662 314.736 260.339 319.119 258.977 323.501C257.986 326.65 256.995 329.845 256.042 333.032C255.131 336.095 254.204 339.137 253.234 342.18C252.532 344.392 251.847 346.6 251.2 348.817C250.438 351.455 249.651 354.046 248.817 356.646C247.226 361.581 245.728 366.559 244.265 371.537L244.263 371.542C243.889 372.812 243.515 374.083 243.129 375.349C241.737 379.86 240.495 384.284 240.414 389.05C240.429 389.528 240.455 390.012 240.491 390.5L275.785 353.5C276.023 352.711 276.261 351.923 276.498 351.134C278.072 345.858 279.68 340.582 281.306 335.306C281.896 333.368 282.487 331.446 283.078 329.524L283.08 329.52C283.671 327.614 284.258 325.695 284.85 323.776C285.143 322.823 285.437 321.866 285.73 320.913C286.181 319.458 286.628 317.994 287.079 316.53C287.226 316.058 287.368 315.599 287.509 315.139C288.113 313.19 288.709 311.22 289.355 309.267C289.811 307.919 290.258 306.578 290.657 305.213C290.812 304.642 290.813 304.638 290.963 304.082L290.966 304.072C291.185 303.277 291.403 302.477 291.62 301.681L291.689 301.426C292.438 298.66 293.238 295.899 294.153 293.172C295.399 289.513 296.569 285.798 297.68 282.067C298.229 280.225 298.778 278.378 299.326 276.536C299.441 276.153 299.552 275.78 299.663 275.408C300.518 272.515 301.386 269.639 302.271 266.771L302.403 266.345C303.346 263.296 304.288 260.251 305.207 257.198C307.462 249.71 309.742 242.221 312.057 234.775C312.32 233.937 312.579 233.095 312.84 232.257C313.261 230.908 313.679 229.555 314.099 228.202C314.262 227.683 314.419 227.181 314.575 226.674C315.346 224.164 316.116 221.696 316.945 219.229C317.277 218.25 317.57 217.297 317.83 216.297C318.235 214.506 318.673 212.757 319.239 211.021C320.375 207.703 321.417 204.384 322.387 201.023C323.893 195.874 325.438 190.684 327.11 185.578C328.446 181.493 329.756 177.417 330.943 173.282C331.654 170.814 332.377 168.312 333.147 165.836C333.236 165.551 333.323 165.274 333.41 164.998C333.754 163.892 334.103 162.781 334.452 161.671C335.273 159.075 336.137 156.51 336.69 153.842C336.932 152.646 337.247 151.638 337.677 150.481C338.23 149.038 338.724 147.579 339.183 146.098C339.28 145.779 339.374 145.474 339.468 145.166C339.685 144.469 339.9 143.775 340.115 143.077C340.46 141.958 340.807 140.834 341.155 139.71L341.166 139.674L341.371 139.008C342.51 135.319 343.641 131.658 344.748 127.973C345.327 126.058 345.901 124.144 346.48 122.229C346.765 121.297 347.046 120.361 347.327 119.429C347.727 118.085 348.129 116.736 348.535 115.392C348.663 114.966 348.788 114.556 348.912 114.145C349.648 111.635 350.35 109.512 351.98 107.423L352.048 107.29C357.111 106.171 357.111 106.171 362.259 108.018C363.931 108.571 365.625 109.086 367.322 109.601C368.161 109.856 369.003 110.111 369.841 110.366C371.543 110.886 373.245 111.4 374.947 111.919C379.074 113.17 383.176 114.425 387.286 115.689L388.613 116.098C390.911 116.8 393.183 117.506 395.463 118.208C397.437 118.812 399.407 119.421 401.377 120.029C401.735 120.139 402.078 120.245 402.424 120.351C408.508 122.241 414.593 124.091 420.677 125.925C425.485 127.38 430.293 128.84 435.1 130.393C439.866 131.941 444.674 133.384 449.481 134.818C452.63 135.754 455.749 136.698 458.884 137.651C459.467 137.829 460.05 138.006 460.633 138.183C463.016 138.911 465.428 139.638 467.824 140.366C469.466 140.859 471.091 141.353 472.717 141.846C473.644 142.131 474.572 142.411 475.499 142.693C476.078 142.869 476.656 143.045 477.235 143.221C477.459 143.288 477.674 143.353 477.888 143.418L478.052 143.468C479.005 143.757 479.962 144.046 480.92 144.332C483.302 145.008 485.668 145.719 488.025 146.446C488.561 146.615 489.085 146.777 489.608 146.94C493.48 148.148 497.381 149.378 501.266 150.637C504.202 151.59 507.159 152.501 510.116 153.377C510.511 153.494 510.893 153.607 511.277 153.721L511.92 153.911C513.643 154.423 515.373 154.936 517.106 155.439C517.851 155.656 518.595 155.872 519.336 156.09C519.593 156.166 519.845 156.24 520.095 156.314L520.387 156.4C523.012 157.153 524.799 157.821 526.556 159.97C527.633 161.953 527.595 163.28 526.978 165.459C526.352 167.441 525.727 169.424 525.123 171.415C524.876 172.228 524.632 173.04 524.387 173.853C524.343 174 524.299 174.144 524.256 174.287L524.131 174.7C521.578 183.209 518.953 191.676 516.303 200.143C515.877 201.513 515.448 202.883 515.035 204.257C514.745 205.232 514.46 206.207 514.154 207.176L508.908 272L508.408 296L514.456 291.634C514.79 290.53 515.12 289.423 515.448 288.315L515.673 287.547C517.071 282.779 518.478 277.978 520 273.253C520.866 270.539 521.699 267.821 522.529 265.11L522.694 264.574C523.438 262.148 524.174 259.706 524.983 257.298C525.514 255.741 526.008 254.162 526.485 252.575C526.589 252.226 526.69 251.885 526.791 251.546C527.464 249.291 528.132 247.044 528.774 244.78L528.921 244.265C529.829 241.074 530.741 237.874 531.706 234.697C531.827 234.297 531.946 233.91 532.064 233.522C533.404 229.14 534.77 224.715 536.145 220.333C536.562 218.997 536.982 217.657 537.4 216.321C537.68 215.423 537.962 214.525 538.242 213.627C538.379 213.193 538.512 212.767 538.645 212.342C539.219 210.492 539.793 208.645 540.402 206.811C540.883 205.369 541.351 203.952 541.78 202.514C541.877 202.174 541.971 201.843 542.064 201.515L542.181 201.106C542.338 200.561 542.489 200.033 542.64 199.506L542.685 199.35C543.896 195.146 545.121 190.893 546.482 186.699C546.899 185.414 547.313 184.129 547.725 182.844C548.01 181.955 548.292 181.07 548.576 180.181L548.591 180.132C550.696 173.598 552.637 167.569 552.064 160.652L551.979 159.745C551.805 157.448 551.481 155.367 550.737 153.193L550.408 152.291C549.549 149.925 548.651 147.738 547.132 145.696C546.784 145.273 546.783 145.273 546.443 144.858C540.358 137.284 532.615 134.187 523.552 131.583C519.468 130.413 515.37 129.2 511.299 127.954C511.011 127.865 510.728 127.778 510.447 127.692L510.303 127.648C507.239 126.708 504.172 125.772 501.113 124.827C500.24 124.559 499.372 124.291 498.5 124.023L498.467 124.013C497.862 123.826 497.851 123.823 497.237 123.633C492.386 122.123 492.386 122.123 482.43 119.123C477.112 117.536 471.836 115.924 466.517 114.273C463.497 113.332 460.48 112.396 457.455 111.477C452.689 110.035 447.924 108.567 443.159 107.095C442.75 106.969 442.358 106.847 441.963 106.725C441.061 106.448 440.156 106.167 439.253 105.887L438.871 105.769L438.866 105.767L438.551 105.67C438.204 105.563 437.87 105.459 437.536 105.355L437.445 105.327C435.734 104.795 434.015 104.263 432.296 103.723C428.637 102.574 424.961 101.447 421.277 100.362C414.937 98.4898 408.64 96.5879 402.301 94.6605C401.547 94.4311 400.791 94.1998 400.037 93.969L399.488 93.801C398.135 93.3883 396.786 92.976 395.433 92.5629L395.428 92.5614C394.795 92.3685 394.794 92.368 394.174 92.1774C392.408 91.6371 390.638 91.1095 388.898 90.4755C387.669 90.0075 386.452 89.548 385.192 89.1651C384.801 89.0604 384.423 88.9583 384.043 88.8566C383.601 88.7362 383.171 88.6188 382.742 88.5017L382.343 88.3929Z" fill="white"/>
<path d="M299.171 105.976C298.115 110.358 296.941 114.698 295.618 118.995C295.342 119.897 295.069 120.795 294.797 121.697C294.444 122.859 294.086 124.02 293.72 125.182C293.396 126.233 293.086 127.283 292.797 128.343C292.598 129.032 292.598 129.032 292.395 129.738C292.286 130.14 292.177 130.543 292.064 130.955C291.516 131.913 291.515 131.913 290.452 132.419C288.954 132.764 287.456 133.083 285.942 133.372C283.759 133.802 281.602 134.291 279.432 134.772C271.986 136.414 264.54 137.98 257.095 139.537C255.805 139.805 254.521 140.073 253.231 140.341C250.572 140.894 247.913 141.452 245.275 142.005C244.815 142.101 244.352 142.197 243.879 142.295C243.084 142.46 242.284 142.622 241.488 142.78C240.216 143.035 238.948 143.317 237.68 143.593C237.119 143.717 236.561 143.84 236 143.963C235.707 144.027 235.417 144.091 235.115 144.158C230.647 145.145 226.137 146.119 221.67 147.042C217.547 147.893 213.458 148.787 209.331 149.714C207.178 150.199 205.034 150.676 202.864 151.101C202.511 151.172 202.157 151.243 201.796 151.316C201.158 151.443 200.524 151.563 199.881 151.676C197.818 152.095 196.741 152.825 195.414 154.467C194.393 158.343 195.642 162.253 196.613 166.04C197.516 169.601 198.307 173.188 199.077 176.762C199.298 177.796 199.519 178.83 199.745 179.859C200.456 183.152 201.153 186.454 201.796 189.73C201.875 190.13 201.954 190.53 202.035 190.943C202.127 191.411 202.127 191.411 202.221 191.883C202.477 193.164 202.749 194.44 203.047 195.712C203.393 197.24 203.668 198.772 203.927 200.308C204.506 203.72 205.234 207.073 206.11 210.391C206.414 211.583 206.68 212.757 206.906 213.961C206.997 214.446 207.088 214.931 207.181 215.433C207.284 215.982 207.386 216.531 207.491 217.097C207.663 218.016 207.837 218.939 208.01 219.858C208.17 220.709 208.329 221.556 208.491 222.407C209.018 225.138 209.618 227.81 210.363 230.491C210.912 232.49 211.307 234.367 211.469 236.447C211.657 237.936 212.09 239.349 212.516 240.787C212.979 242.472 213.345 244.17 213.715 245.893C213.812 246.34 213.909 246.786 214.009 247.25C214.337 248.773 214.664 250.301 214.991 251.845C215.158 252.62 215.158 252.62 215.327 253.407C216.067 256.862 216.778 260.342 217.45 263.788L217.756 265.354C217.857 265.873 217.958 266.392 218.062 266.928C218.277 267.92 218.522 268.907 218.807 269.885C219.228 271.387 219.547 272.868 219.841 274.395C220.153 275.995 220.483 277.591 220.815 279.203C220.946 279.837 221.077 280.471 221.208 281.105C221.411 282.084 221.613 283.062 221.816 284.041C222.015 284.998 222.213 285.96 222.412 286.917C222.473 287.207 222.533 287.496 222.595 287.794C222.933 289.436 223.224 291.078 223.501 292.729C223.694 293.478 223.898 294.222 224.114 294.963C224.611 296.754 225.028 298.537 225.373 300.366C225.581 301.426 225.798 302.481 226.028 303.536C226.79 307.08 227.513 310.599 227.973 314.173C228.128 315.254 228.128 315.254 228.607 316.105C229.164 317.232 229.27 318.27 229.432 319.521C229.757 321.857 230.266 324.074 230.951 326.329C231.419 329.252 230.642 332.115 229.76 334.881C229.663 335.193 229.567 335.506 229.468 335.83C229.158 336.834 228.842 337.834 228.527 338.833C228.311 339.531 228.093 340.229 227.881 340.927C226.753 344.569 225.609 348.202 224.447 351.819C223.788 353.887 223.162 355.959 222.545 358.031C222.46 358.317 222.375 358.601 222.287 358.899C221.862 360.328 221.441 361.762 221.02 363.196C219.713 367.621 219.713 367.621 218.969 369.28C218.352 370.684 218.007 372.029 217.684 373.527C217.577 374.012 217.47 374.501 217.36 374.999C217.282 375.363 217.205 375.726 217.125 376.105C216.027 375.433 215.5 375.033 215.045 373.807C214.965 373.401 214.886 372.995 214.805 372.578C214.711 372.114 214.616 371.65 214.519 371.174L214.228 369.646C214.01 368.566 213.794 367.485 213.573 366.404C213.489 365.981 213.489 365.981 213.403 365.549C212.99 363.473 212.548 361.405 212.093 359.337C212.027 359.04 211.961 358.741 211.894 358.439C211.575 357.005 211.255 355.572 210.936 354.142C210.328 351.372 209.758 348.611 209.247 345.803C208.817 343.45 208.294 341.122 207.694 338.825C206.954 335.813 206.354 332.783 205.728 329.72C205.304 327.665 204.877 325.61 204.448 323.55C204.365 323.152 204.282 322.755 204.196 322.342C203.609 319.525 203.009 316.726 202.392 313.918C201.112 308.089 199.878 302.217 198.64 296.346C198.299 294.733 197.959 293.12 197.618 291.495C197.236 289.687 196.853 287.883 196.47 286.092C196.269 285.143 196.068 284.19 195.866 283.241C194.878 278.603 193.896 273.923 192.913 269.285C190.381 257.287 187.807 245.246 185.254 233.248C182.863 222.1 180.489 210.953 178.149 199.806C177.951 198.861 177.753 197.921 177.553 196.976C177.406 196.274 177.406 196.274 177.255 195.555C176.4 191.483 175.536 187.428 174.673 183.344C174.534 182.689 174.395 182.038 174.256 181.382C173.648 178.515 173.035 175.639 172.427 172.788C172.177 171.618 171.929 170.448 171.678 169.273C171.507 168.469 171.335 167.665 171.163 166.857C171.06 166.372 170.957 165.887 170.851 165.389C170.762 164.969 170.672 164.551 170.58 164.117C169.248 157.479 169.482 151.31 172.039 145.055C172.219 144.6 172.399 144.149 172.584 143.681C174.171 140.12 176.537 137.554 179.264 134.831C179.539 134.547 179.813 134.261 180.098 133.968C183.612 130.585 188.139 128.564 192.82 127.373C193.17 127.283 193.522 127.194 193.883 127.101C197.266 126.25 200.691 125.523 204.095 124.825C206.077 124.421 208.056 124.008 210.051 123.6C210.481 123.511 210.906 123.423 211.349 123.331C216.88 122.182 222.411 121 227.942 119.817C229.053 119.58 230.159 119.345 231.27 119.106C234.367 118.447 237.482 117.783 240.545 117.124C253.437 114.375 266.286 111.635 279.178 108.912C280.233 108.689 281.293 108.465 282.348 108.244C283.807 107.935 285.271 107.627 286.73 107.321C287.154 107.231 287.577 107.141 288.015 107.049C289.202 106.799 290.389 106.555 291.581 106.317C292.193 106.185 292.193 106.185 292.819 106.051C295.121 105.583 296.942 105.378 299.243 105.891L299.171 105.976Z" fill="white"/>
<path d="M83.1027 212.115C82.6857 210.779 82.541 209.702 81.3284 208.941L81.2978 208.827C80.3362 208.866 80.3362 208.866 79.0002 209.385C78.4854 209.653 77.9876 209.909 77.4898 210.168C75.3795 211.257 73.3499 212.41 71.4055 213.771C71.1162 213.984 70.8303 214.19 70.5461 214.397C68.3549 215.95 65.9807 217.498 64.5469 219.843C64.1384 220.579 63.73 221.311 63.3215 222.042C62.3429 222.532 62.3429 222.532 61.5856 224.153C61.4528 224.446 61.3239 224.734 61.195 225.021C60.1654 227.233 59.2761 229.373 58.6464 231.701C56.0936 243.359 60.476 252.294 66.2199 262.08C68.4749 265.909 70.7852 269.683 72.7296 273.652C74.457 277.184 76.3632 280.626 78.431 283.949C79.1798 285.102 79.8818 286.242 80.5073 287.468C81.639 289.765 82.8006 292.05 84.0813 294.275C87.1021 299.466 89.9783 304.699 92.846 309.975C94.1778 312.4 95.5137 314.855 96.871 317.293C97.2199 317.923 97.5718 318.553 97.9219 319.182C98.4536 320.161 98.4538 320.161 100.579 323.987L100.581 323.99C100.934 324.629 101.29 325.267 101.645 325.905C102.751 327.926 103.862 329.921 105.006 331.904L105.011 331.912C106.856 335.058 108.713 338.225 110.324 341.52C111.039 343.009 111.788 344.422 112.639 345.817C115.575 350.582 118.391 355.56 120.893 360.581C121.851 362.551 122.859 364.449 123.961 366.325C124.701 367.572 125.433 368.823 126.131 370.09C126.99 371.694 127.85 373.286 128.76 374.856L128.788 374.904C129.962 376.909 131.13 378.906 132.232 380.94C133.138 382.633 134.062 384.301 134.998 385.961C135.17 386.267 135.337 386.562 135.504 386.858C136.134 387.977 136.763 389.096 137.393 390.211C138.355 391.921 139.299 393.611 140.159 395.359C141.542 398.167 142.984 400.895 144.584 403.571C146.405 406.592 148.09 409.702 149.732 412.846C151.285 415.825 152.893 418.76 154.582 421.654C156.718 425.27 158.833 428.925 160.837 432.631C161.492 433.848 162.164 435.048 162.862 436.239C163.764 437.762 164.721 439.26 165.449 440.877C165.862 441.923 166.283 442.906 166.896 443.855C168.112 445.612 169.185 447.339 170.121 449.258C171.061 451.207 172.069 453.092 173.15 454.96C173.95 456.343 174.746 457.721 175.516 459.121C176.541 461.018 177.583 462.908 178.664 464.78C179.253 465.787 179.837 466.799 180.402 467.825C182.354 464.089 186.322 456.557 186.58 456.309C185.711 454.128 184.836 451.948 183.846 449.807C183.378 448.812 182.925 447.82 182.51 446.803C181.515 444.251 180.455 441.74 179.375 439.23C177.869 435.699 176.345 432.214 174.907 428.678C173.078 424.211 173.078 424.211 168.441 413.703L168.44 413.701C167.023 410.51 165.606 407.315 164.372 404.043C163.87 402.716 163.36 401.41 162.773 400.116C161.607 397.648 160.505 395.193 159.475 392.67C158.033 389.139 156.582 385.603 155.093 382.076C154.884 381.582 154.68 381.097 154.476 380.617C153.595 378.515 152.719 376.43 151.804 374.362C150.996 372.562 150.213 370.75 149.468 368.916C148.681 366.976 147.894 365.04 147.043 363.13C144.979 358.662 143.103 354.152 141.256 349.642C140.142 346.919 139.023 344.188 137.768 341.516C137.108 340.112 136.483 338.716 135.913 337.269C133.785 331.653 133.785 331.653 127.914 321.314C125.191 316.549 122.536 311.741 119.915 306.891C118.528 304.295 117.107 301.73 115.617 299.189C114.098 296.637 112.618 294.101 111.32 291.446C110.218 289.148 108.993 286.987 107.733 284.808C104.159 278.596 100.683 272.342 97.2667 266.045L97.0592 265.66C95.6143 262.981 94.1739 260.311 92.6716 257.663C92.4078 257.204 92.1529 256.761 91.8972 256.314L91.8966 256.313C91.3139 255.293 90.7312 254.272 90.1443 253.255C88.4807 250.405 86.8298 247.545 85.2939 244.618C85.0603 244.167 85.0603 244.167 84.8301 243.725C83.6945 241.602 83.1205 239.946 83.3409 237.513C83.9408 236.079 84.511 235.466 85.7619 234.534C86.5405 234.062 87.3191 233.59 88.0935 233.105C88.7019 232.722 89.3103 232.339 89.9188 231.96C90.14 231.822 90.3578 231.689 90.574 231.555C90.3953 230.159 89.9826 228.993 89.4039 227.726C88.8806 226.585 88.3913 225.449 87.9361 224.283C87.1021 222.071 86.2597 219.871 85.2556 217.731C84.3961 215.897 83.7324 214.034 83.1027 212.115Z" fill="white"/>
<path d="M144.73 157.458C144.759 157.71 144.789 157.961 144.82 158.22C145.573 164.517 146.594 170.686 147.947 176.856C148.358 178.792 148.662 180.57 148.556 182.557C148.066 182.743 147.577 182.928 147.075 183.119C143.097 184.638 139.204 186.238 135.374 188.097C134.96 188.285 134.545 188.474 134.119 188.667C133.735 188.847 133.349 189.027 132.953 189.212C132.618 189.367 132.281 189.521 131.937 189.68C130.903 190.365 130.635 190.735 130.264 191.922C130.031 194.619 130.557 196.56 131.592 199.027C131.794 199.525 131.794 199.525 131.999 200.036C133.174 202.908 134.463 205.737 135.795 208.503C136.982 211.072 138.041 213.693 139.079 216.331C139.701 217.889 140.347 219.42 141.058 220.926C142.258 223.505 143.279 226.16 144.325 228.798C145.219 231.048 146.168 233.265 147.193 235.435C147.827 236.843 148.393 238.282 148.955 239.732C149.746 241.749 150.584 243.728 151.507 245.689C153.405 249.731 155.056 253.858 156.698 258.028C157.745 260.666 158.941 263.219 160.157 265.814C161.383 268.431 162.391 271.09 163.323 273.813C163.995 275.634 164.782 277.387 165.582 279.174C167.161 282.71 168.718 286.237 170.262 289.811C170.432 290.197 170.601 290.585 170.777 290.981C173.151 296.427 174.649 301.83 175.798 307.659C175.87 308.019 175.943 308.378 176.017 308.749C176.242 309.88 176.447 311.021 176.651 312.157C177.136 314.837 177.677 317.475 178.46 320.07C178.835 321.487 179.111 322.917 179.396 324.368C179.632 325.551 179.885 326.725 180.149 327.899C181.021 331.814 181.859 335.685 182.412 339.685C182.674 341.263 183.093 342.774 183.552 344.322C183.923 345.71 184.199 347.097 184.476 348.505C184.79 350.083 185.122 351.658 185.459 353.228C185.523 353.531 185.588 353.832 185.653 354.147C185.853 355.087 186.054 356.027 186.253 356.972C186.456 357.925 186.658 358.874 186.862 359.827C186.987 360.414 187.112 361.001 187.237 361.588C187.475 362.707 187.709 363.826 187.935 364.949C188.188 366.209 188.467 367.46 188.748 368.711C190.194 375.22 191.573 381.73 192.807 388.325C193.364 391.274 193.981 394.197 194.67 397.132C195.015 398.634 195.296 400.136 195.564 401.642C196.274 405.561 197.163 409.429 198.168 413.3C198.619 415.036 198.87 416.547 198.78 418.321C198.359 418.461 197.938 418.602 197.504 418.746C196.997 417.53 196.487 416.308 195.981 415.092C195.605 414.19 195.227 413.288 194.849 412.39C193.683 409.607 192.56 406.816 191.466 404.008C190.803 402.383 190.054 400.796 189.305 399.2C187.692 395.775 186.203 392.307 184.752 388.819C184.489 388.197 184.225 387.576 183.965 386.955C182.527 383.547 181.102 380.147 179.71 376.701C178.906 374.735 178.038 372.804 177.149 370.872C176.524 369.481 175.971 368.064 175.413 366.643C174.941 365.49 174.43 364.358 173.911 363.226C173.077 361.418 172.307 359.593 171.58 357.738C170.324 354.534 169.023 351.356 167.661 348.207C167.325 347.424 166.989 346.646 166.653 345.863C166.482 345.465 166.311 345.067 166.134 344.659C165.614 343.455 165.1 342.25 164.589 341.046C163.13 337.621 161.662 334.196 160.122 330.835C159.194 328.763 158.381 326.644 157.565 324.538C156.875 322.768 156.143 321.062 155.263 319.39C154.182 317.288 153.378 315.092 152.574 312.88C151.727 310.578 150.736 308.37 149.68 306.157C148.859 304.362 148.136 302.532 147.413 300.711C146.8 299.163 146.153 297.644 145.451 296.116C144.337 293.721 143.405 291.266 142.456 288.798C141.716 286.875 140.954 284.969 140.09 283.097C138.478 279.595 137.014 276.034 135.58 272.46C134.755 270.418 133.883 268.435 132.879 266.461C132.045 264.789 131.321 263.065 130.589 261.355C130.422 260.964 130.255 260.572 130.083 260.172C128.964 257.539 127.939 254.896 126.964 252.173C126.182 250.05 125.203 248.08 124.161 246.089C123.28 244.251 122.595 242.362 121.897 240.43C120.999 237.975 119.953 235.622 118.842 233.24C117.578 230.487 116.43 227.709 115.285 224.9C114.592 223.211 113.877 221.539 113.098 219.88C111.996 217.501 111.069 215.072 110.128 212.604C109.486 210.936 108.835 209.285 108.099 207.669C104.767 200.308 103.504 192.522 106.078 184.736C106.196 184.379 106.315 184.021 106.437 183.655C108.369 178.422 111.373 173.656 115.883 170.253C116.174 170.031 116.465 169.81 116.768 169.58C119.474 167.602 122.256 166.206 125.32 164.9C126.022 164.598 126.022 164.598 126.736 164.292C129.732 163.007 132.736 161.764 135.756 160.577C137.569 159.862 139.352 159.097 141.16 158.322C142.334 157.875 143.543 157.48 144.815 157.48L144.73 157.458Z" fill="white"/>
<path d="M559.44 310.805C562.92 314.205 563.72 316.453 564.24 321.205C563.812 321.423 563.384 321.64 562.944 321.864C560.976 322.872 559.008 323.888 557.04 324.904C556.368 325.245 555.696 325.586 555.008 325.936C542.848 332.256 534.208 340.816 529.808 354.016C527.824 360.984 527.712 368.096 527.408 375.296C527.342 376.72 527.276 378.144 527.211 379.568C527.037 383.36 526.872 387.16 526.708 390.928C526.611 393.152 526.51 395.368 526.408 397.592C525.67 413.592 525.048 429.672 524.608 445.672L524.604 445.802C524.571 446.983 524.539 448.163 524.506 449.352C524.356 454.8 524.21 460.232 524.078 465.672C523.166 503.032 516.278 524.392 489.278 550.472L426.014 610.08C409.054 624.8 398.094 640.4 393.854 662.64C390.286 662.709 386.718 662.752 383.134 662.79L380.054 662.851L377.118 662.875L374.398 662.913C373.684 662.823 372.966 662.733 372.23 662.64C370.142 659.512 370.726 657.408 371.334 653.92C371.495 652.976 371.496 652.968 371.657 652.024L371.661 652C375.077 634.16 384.861 616.88 397.821 604.24L400.965 601.072L400.977 601.06C402.141 599.888 403.305 598.716 404.477 597.544L406.229 595.776C409.525 592.472 412.885 589.32 416.389 586.256C418.141 584.72 419.773 583.096 421.397 581.424C423.565 579.224 425.749 577.128 428.101 575.12C430.797 572.808 433.309 570.344 435.797 567.824C438.717 564.872 441.693 562.048 444.837 559.344C456.517 549.184 467.717 538.464 478.597 527.424L478.601 527.42C482.597 523.424 482.598 523.423 484.541 521.504C489.933 515.912 493.181 510.544 496.221 503.424C496.492 502.828 496.761 502.232 497.037 501.616C501.125 491.296 500.501 478.256 500.845 467.296C500.892 465.928 500.939 464.56 500.987 463.192C501.086 460.304 501.182 457.416 501.276 454.552C501.409 450.435 501.548 446.331 501.689 442.193L501.732 440.952C502.192 427.432 502.628 413.912 503.02 400.392C503.072 398.624 503.124 396.864 503.176 395.096L503.214 393.845C503.235 393.127 503.257 392.41 503.278 391.696C503.294 391.149 503.311 390.6 503.328 390.04C503.436 386.384 503.535 382.728 503.631 379.08C504.277 356.04 505.999 334.6 523.551 317.64C532.751 309.776 548.16 303.213 559.44 310.805Z" fill="white"/>
<path fill-rule="evenodd" clip-rule="evenodd" d="M478.64 210.005L481.816 209.999C485.896 210.153 489.906 210.28 489.906 210.28L484.763 271.983L484.765 274.687L484.751 277.631L484.743 280.687C484.694 291.087 484.409 301.487 484.077 311.967L484.039 313.205C483.988 314.854 483.938 316.5 483.888 318.151C483.72 323.639 483.547 329.111 483.373 334.631C483.311 336.569 483.25 338.507 483.189 340.439L483.188 340.473L483.049 344.871C482.535 361.271 482.009 377.671 481.465 394.071L481.409 395.767C480.944 409.927 480.465 424.087 479.969 438.247C479.835 442.063 479.703 445.887 479.573 449.687C479.421 454.151 479.264 458.647 479.101 463.047C479.042 464.663 478.986 466.287 478.932 467.903C478.2 489.743 473.532 501.183 458.212 516.703L394.316 577.287C362.489 604.474 354.632 624.368 347.006 662.839C332.766 662.858 318.526 662.872 304.286 662.881C297.678 662.885 291.086 662.89 284.446 662.899C278.678 662.907 272.926 662.913 267.166 662.914C264.118 662.915 261.07 662.918 258.046 662.924H258.041C236.206 662.964 236.205 662.964 226.846 662.584L225.03 662.531C220.284 662.567 217.354 660.687 211.862 653.243C210.094 650.667 208.582 647.971 207.062 645.243C206.96 645.071 206.857 644.899 206.754 644.726L206.749 644.718C206.465 644.24 206.179 643.76 205.886 643.275C200.39 633.755 196.126 622.715 193.886 611.995C193.136 608.371 192.326 604.787 191.438 601.195C188.59 588.875 187.342 576.315 187.038 563.675L186.972 561.323C185.964 520.843 196.492 484.923 220.652 452.523C220.926 452.154 221.2 451.785 221.478 451.41L221.684 451.131C227.156 443.835 233.204 437.211 239.444 430.571C240.9 429.019 242.3 427.419 243.684 425.803C246.074 423.018 248.666 420.457 251.274 417.88L251.676 417.483C253.788 415.347 255.732 413.099 257.692 410.819C259.02 409.315 260.404 407.907 261.836 406.499C263.668 404.699 265.38 402.859 267.036 400.899C270.066 397.371 273.363 394.116 276.675 390.847C277.035 390.491 277.396 390.135 277.756 389.779C280.196 387.371 282.556 384.939 284.78 382.323C288.212 378.341 291.961 374.649 295.717 370.95C296.874 369.811 298.031 368.672 299.18 367.523C305.98 360.803 305.98 360.803 312.38 353.683C314.025 351.766 315.84 349.998 317.648 348.237L317.654 348.23C318.025 347.869 318.396 347.509 318.764 347.147C318.943 346.959 319.117 346.776 319.288 346.598C321.383 344.409 322.859 342.867 322.7 339.891C322.465 335.499 321.412 332.817 314.439 332.705C314.303 333.385 314.125 333.98 313.946 334.574C313.767 335.168 313.588 335.763 313.452 336.443L310.252 335.643C309.921 330.563 310.503 324.763 313.788 320.603C315.452 319.307 316.86 319.235 318.932 319.347C326.204 320.499 331.332 323.451 335.892 329.187C342.484 338.467 343.212 347.747 342.292 358.787C340.972 366.267 337.62 372.467 333.492 378.787L333.489 378.792C333.117 379.362 332.745 379.933 332.364 380.523C327.812 387.459 323.164 394.203 317.644 400.443C312.892 405.899 308.684 411.803 304.524 417.643C303.361 419.255 302.188 420.856 301.012 422.459L300.268 423.475C287.308 441.235 273.948 460.515 276.668 483.635C278.524 492.835 283.332 500.595 291.068 506.035C294.596 508.027 298.116 509.883 302.268 509.235C303.42 508.251 303.42 508.251 303.42 505.283C303.413 500.334 301.769 495.962 300.05 491.39L299.98 491.203C298.34 486.731 297.444 482.963 298.98 478.243C303.812 468.778 312.584 465.113 321.841 461.246C323.068 460.733 324.304 460.217 325.54 459.683C326.124 459.426 326.713 459.17 327.308 458.91L328.068 458.579C333.456 456.226 338.873 453.896 344.285 451.569L344.287 451.568L344.305 451.56L344.324 451.552L344.435 451.504C346.02 450.822 347.605 450.141 349.188 449.459C351.012 448.676 352.836 447.891 354.652 447.099C359.668 444.939 364.652 442.795 369.772 440.883L370.327 440.67C370.856 440.468 371.387 440.264 371.932 440.059C373.18 439.588 374.436 439.139 375.7 438.715C377.82 437.907 379.524 437.147 380.58 435.059C382.3 429.531 383.54 423.939 384.74 418.259C384.966 417.211 385.191 416.163 385.418 415.115C386.009 412.371 386.594 409.627 387.178 406.875C387.496 405.383 387.817 403.892 388.137 402.402L388.14 402.388C388.269 401.788 388.397 401.188 388.526 400.589C388.671 399.911 388.817 399.232 388.962 398.555C389.379 396.605 389.798 394.659 390.216 392.713L390.218 392.704C390.866 389.694 391.513 386.686 392.154 383.675C392.624 381.507 393.122 379.355 393.634 377.195C394.594 372.803 394.698 370.179 392.234 366.235C391.81 365.555 391.386 364.878 390.947 364.178L390.898 364.099L390.512 363.499L390.511 363.497C390.171 362.968 389.83 362.436 389.482 361.891C388.818 360.827 388.818 360.827 388.138 359.739C385.314 355.259 382.29 350.939 379.178 346.699C376.909 343.56 374.753 340.327 372.614 337.119L372.612 337.117L372.611 337.116L372.61 337.114C371.839 335.957 371.069 334.803 370.298 333.659C370.076 333.325 369.854 332.99 369.632 332.656C369.242 332.07 368.853 331.485 368.466 330.899C367.258 329.083 366.058 327.275 364.858 325.459C362.046 321.226 360.638 319.106 359.211 316.999C357.778 314.886 356.326 312.786 353.418 308.579C331.818 277.699 331.818 277.699 333.498 263.619C335.034 255.907 338.45 247.859 344.778 242.979C349.594 239.851 354.938 237.155 360.858 237.243C365.32 238.773 368.113 243.575 370.556 247.776L370.557 247.777L370.558 247.778C371.014 248.563 371.457 249.326 371.898 250.043C372.488 250.954 373.083 251.862 373.678 252.771L373.684 252.779L373.697 252.799L373.723 252.839C373.944 253.176 374.165 253.513 374.386 253.851L374.39 253.858C375.197 255.12 376.003 256.381 376.802 257.643L376.94 257.858C377.273 258.379 377.607 258.901 377.954 259.435C380.154 263.035 381.226 265.811 381.506 270.075L381.964 272.006L378.227 273.544C373.303 275.572 360.521 272.162 356.853 253.823C356.366 251.386 353.995 249.805 351.558 250.293C349.121 250.78 347.54 253.151 348.028 255.588C352.36 277.249 369.578 286.839 381.654 281.866L382.939 281.205L384.75 283.752C390.318 290.608 395.47 297.672 400.51 304.952C403.478 309.232 406.526 313.432 409.71 317.592C415.166 324.784 420.27 332.232 425.23 339.752C425.571 340.26 425.911 340.768 426.262 341.288C426.935 342.304 427.606 343.32 428.262 344.344C429.758 346.648 431.214 348.712 433.046 350.768C437.71 356.264 437.91 360.688 437.758 367.648L437.726 370.424C437.58 380.104 437.055 389.704 436.47 399.384C436.305 402.24 436.142 405.096 435.98 407.944C435.867 409.92 435.753 411.896 435.639 413.872C434.984 425.232 434.399 436.592 433.823 447.952L433.822 447.963C433.723 449.888 433.624 451.812 433.525 453.728C433.367 456.802 433.21 459.875 433.053 462.928L432.975 464.448C432.815 467.592 432.65 470.728 432.478 473.888C432.074 481.392 431.811 488.848 431.872 496.368L431.883 499.04C431.893 501.152 431.906 503.256 431.922 505.368C434.202 506.512 435.786 506.408 438.322 506.168C445.154 502.144 451.442 495.688 453.522 488.008C454.545 483.205 454.77 478.363 454.998 473.476C455.023 472.934 455.048 472.392 455.074 471.848C455.137 470.648 455.201 469.448 455.264 468.248C455.425 465.191 455.579 462.134 455.732 459.11L455.759 458.568C455.886 456.045 456.017 453.518 456.148 450.98L456.285 448.328C456.581 442.608 456.872 436.888 457.157 431.208C457.489 424.616 457.827 418.008 458.165 411.448C458.526 404.476 458.884 397.503 459.242 390.531L459.253 390.328C459.356 388.312 459.46 386.296 459.564 384.28C459.728 381.096 459.89 377.912 460.049 374.76C460.107 373.6 460.167 372.44 460.227 371.28C460.503 365.968 460.744 360.64 460.833 355.36L460.872 353.12C460.581 349.712 459.016 347.336 457.048 344.64C456.683 344.097 456.318 343.552 455.944 342.992C454.88 341.424 453.8 339.88 452.696 338.336L451.903 337.198C451.701 336.906 451.498 336.614 451.088 336.024L451.087 336.023C448.465 332.274 448.464 332.272 445.796 328.557L445.795 328.556L445.793 328.553L445.792 328.552C442.168 323.184 441.768 319.352 442.296 313.032C442.383 311.552 442.47 310.072 442.552 308.592C442.616 307.464 442.684 306.328 442.754 305.2C443.102 299.52 443.304 293.84 443.495 288.16L443.595 285.2C443.652 283.51 443.708 281.813 443.764 280.121L443.795 279.192C444.551 256.474 444.551 256.472 445.059 246.155L445.059 246.152L445.131 244.464C445.674 234.304 449.883 224.304 457.371 217.264C463.875 212.52 470.72 209.989 478.64 210.005ZM485.369 264.674C478.15 264.063 472.719 261.379 469.107 257.179C465.517 253.005 464.14 247.818 464.066 242.962C463.992 238.119 465.199 233.29 467.16 229.416C469.01 225.76 472.056 221.969 476.296 220.854C478.699 220.221 481.16 221.657 481.793 224.061C482.425 226.464 480.99 228.925 478.586 229.557C478.075 229.692 476.621 230.652 475.19 233.48C473.869 236.09 473.014 239.48 473.065 242.824C473.116 246.156 474.051 249.125 475.93 251.311C477.73 253.404 480.802 255.253 486.112 255.705L485.369 264.674Z" fill="white"/>
<path d="M254.902 169L227.844 174.798C227.321 174.91 226.984 175.42 227.086 175.945L236.402 224" stroke="white" stroke-width="14.725" stroke-linecap="round"/>
<circle cx="374.41" cy="144.499" r="11.5" fill="white"/>
<path d="M366.906 394.5L350.906 394L319.906 436L361.406 417L366.906 394.5Z" fill="white"/>
<path d="M555.906 417.999C555.906 416.618 557.026 415.499 558.406 415.499C574.031 415.499 586.906 402.749 586.906 387.499C586.906 386.118 588.026 384.999 589.406 384.999C590.787 384.999 591.906 386.118 591.906 387.499C591.906 402.749 605.281 415.499 620.906 415.499C622.287 415.499 623.406 416.618 623.406 417.999C623.406 419.38 622.287 420.499 620.906 420.499C605.281 420.499 591.906 433.999 591.906 449.999C591.906 451.38 590.787 452.499 589.406 452.499C588.026 452.499 586.906 451.38 586.906 449.999C586.906 433.999 574.031 420.499 558.406 420.499C557.026 420.499 555.906 419.38 555.906 417.999Z" fill="#FFF323"/>
<path d="M85.9023 528.866C85.9023 527.7 86.8309 526.755 87.9764 526.755C100.939 526.755 111.621 515.989 111.621 503.111C111.621 501.945 112.549 501 113.695 501C114.84 501 115.769 501.945 115.769 503.111C115.769 515.989 126.865 526.755 139.828 526.755C140.974 526.755 141.902 527.7 141.902 528.866C141.902 530.032 140.974 530.978 139.828 530.978C126.865 530.978 115.769 542.378 115.769 555.889C115.769 557.055 114.84 558 113.695 558C112.549 558 111.621 557.055 111.621 555.889C111.621 542.378 100.939 530.978 87.9764 530.978C86.8309 530.978 85.9023 530.032 85.9023 528.866Z" fill="#FFF323"/>
<path d="M87.9023 435.333C87.9023 434.106 88.8973 433.111 90.1246 433.111C104.013 433.111 115.458 421.777 115.458 408.222C115.458 406.995 116.453 406 117.68 406C118.907 406 119.902 406.995 119.902 408.222C119.902 421.777 131.791 433.111 145.68 433.111C146.907 433.111 147.902 434.106 147.902 435.333C147.902 436.56 146.907 437.555 145.68 437.555C131.791 437.555 119.902 449.555 119.902 463.777C119.902 465.005 118.907 466 117.68 466C116.453 466 115.458 465.005 115.458 463.777C115.458 449.555 104.013 437.555 90.1246 437.555C88.8973 437.555 87.9023 436.56 87.9023 435.333Z" fill="#FFF323"/>
<path d="M392.706 172.839C393.066 171.666 394.309 171.007 395.482 171.367C408.759 175.444 423.027 167.97 427.006 155.011C427.366 153.838 428.609 153.179 429.782 153.539C430.956 153.9 431.615 155.143 431.254 156.316C427.275 169.274 435.313 183.598 448.59 187.675C449.764 188.036 450.423 189.279 450.062 190.452C449.702 191.625 448.459 192.284 447.286 191.924C434.009 187.847 419.121 195.828 414.946 209.424C414.586 210.597 413.343 211.256 412.17 210.896C410.996 210.536 410.337 209.293 410.698 208.119C414.872 194.524 407.455 179.693 394.178 175.616C393.005 175.256 392.345 174.012 392.706 172.839Z" fill="#FFF323"/>
<path d="M281.318 684.494H319.034C322.64 684.399 325.676 685.3 328.143 687.198C330.61 689.096 332.128 691.468 332.697 694.314C333.267 697.066 333.267 699.865 332.697 702.712C332.223 705.463 330.752 707.835 328.285 709.828C325.913 711.82 322.924 712.864 319.319 712.959H295.408V719.933C296.072 719.933 297.733 719.933 300.389 719.933C303.046 719.838 304.707 719.791 305.371 719.791C309.641 719.791 313.056 721.214 315.618 724.061C318.275 726.907 319.556 730.228 319.461 734.023C319.461 737.629 318.18 740.902 315.618 743.844C313.246 746.785 309.83 748.256 305.371 748.256C304.707 748.256 303.046 748.303 300.389 748.398C297.827 748.398 296.214 748.398 295.55 748.398V757.507C297.353 757.412 301.386 757.365 307.648 757.365C314.005 757.365 318.085 757.317 319.888 757.222C323.589 757.222 326.672 758.219 329.139 760.211C331.606 762.109 333.124 764.481 333.694 767.328C334.263 770.079 334.216 772.878 333.551 775.725C332.982 778.477 331.464 780.849 328.997 782.841C326.625 784.739 323.683 785.688 320.173 785.688C317.231 785.783 310.732 785.83 300.674 785.83C290.616 785.83 284.164 785.877 281.318 785.972C277.427 785.972 274.106 784.597 271.355 781.845C268.698 779.093 267.275 775.725 267.085 771.74C266.136 746.595 266.089 722.21 266.943 698.584C267.132 694.504 268.556 691.136 271.212 688.479C273.964 685.727 277.333 684.399 281.318 684.494Z" fill="white"/>
<path d="M367.286 699.153L367.144 699.723C367.144 700.102 367.096 700.672 367.001 701.431C367.001 702.095 367.001 702.806 367.001 703.566C367.001 703.66 366.906 706.317 366.717 711.536C366.622 716.754 366.527 721.167 366.432 724.772C366.432 734.64 367.191 743.085 368.709 750.106C370.322 757.033 372.884 760.401 376.395 760.211C379.146 760.116 381.376 758.551 383.084 755.515C384.792 752.478 385.836 748.303 386.215 742.99C386.595 738.341 386.785 733.217 386.785 727.619C386.785 722.59 386.642 717.039 386.358 710.966C386.073 704.419 385.978 700.102 386.073 698.015C386.168 694.504 387.212 691.563 389.204 689.191C391.197 686.818 393.569 685.395 396.321 684.921C399.167 684.352 401.966 684.399 404.718 685.063C407.469 685.632 409.794 687.198 411.692 689.76C413.684 692.227 414.633 695.263 414.538 698.869V738.72C414.443 748.114 413.162 756.369 410.695 763.485C408.228 770.791 404.148 776.721 398.455 781.276C392.762 785.83 385.883 788.297 377.818 788.677C365.293 789.246 355.852 784.881 349.495 775.583C343.897 766.853 340.481 755.277 339.248 740.855C338.868 736.49 338.584 731.651 338.394 726.338C338.299 721.878 338.394 714.193 338.678 703.281L338.821 698.726C338.916 695.121 339.959 692.132 341.952 689.76C343.944 687.293 346.317 685.822 349.068 685.348C351.915 684.778 354.714 684.826 357.465 685.49C360.312 686.059 362.684 687.578 364.582 690.045C366.479 692.512 367.381 695.548 367.286 699.153Z" fill="white"/>
<path d="M215.613 832.727C215.518 835.763 215.423 841.551 215.328 850.09C215.328 858.63 215.328 864.94 215.328 869.02C215.328 873.195 215.281 877.939 215.186 883.252C215.186 888.471 215.138 892.836 215.043 896.346C215.043 899.857 215.043 902.751 215.043 905.028C215.328 909.583 213.762 913.236 210.347 915.987C206.931 918.739 202.993 919.83 198.533 919.261C194.074 918.787 190.658 916.652 188.286 912.856L165.229 878.556V892.077C165.324 896.062 165.371 900.569 165.371 905.598C165.371 909.203 164.375 912.24 162.383 914.707C160.485 917.174 158.113 918.692 155.266 919.261C152.515 919.83 149.716 919.83 146.869 919.261C144.117 918.692 141.745 917.221 139.753 914.849C137.855 912.382 136.906 909.393 136.906 905.882C136.906 903.131 137.001 890.938 137.191 869.304C137.381 847.481 137.476 835.241 137.476 832.584C137.57 828.03 139.326 824.424 142.742 821.768C146.157 819.016 150 818.02 154.27 818.779C158.54 819.538 161.813 821.862 164.091 825.753L186.578 859.199C186.673 858.061 186.72 855.926 186.72 852.795C186.815 849.569 186.863 847.196 186.863 845.678C187.053 837.518 187.147 832.964 187.147 832.015C187.242 828.504 188.286 825.563 190.279 823.191C192.271 820.724 194.643 819.253 197.395 818.779C200.241 818.209 203.04 818.257 205.792 818.921C208.544 819.49 210.868 821.056 212.766 823.618C214.759 826.085 215.708 829.121 215.613 832.727Z" fill="white"/>
<path d="M249.61 832.584L249.467 833.154C249.467 833.533 249.42 834.102 249.325 834.862C249.325 835.526 249.325 836.237 249.325 836.996C249.325 837.091 249.23 839.748 249.04 844.967C248.945 850.185 248.851 854.597 248.756 858.203C248.756 868.071 249.515 876.516 251.033 883.537C252.646 890.464 255.208 893.832 258.719 893.642C261.47 893.547 263.7 891.982 265.408 888.945C267.116 885.909 268.16 881.734 268.539 876.421C268.919 871.771 269.108 866.648 269.108 861.05C269.108 856.021 268.966 850.47 268.681 844.397C268.397 837.85 268.302 833.533 268.397 831.446C268.492 827.935 269.535 824.994 271.528 822.622C273.52 820.249 275.893 818.826 278.644 818.352C281.491 817.782 284.29 817.83 287.041 818.494C289.793 819.063 292.118 820.629 294.015 823.191C296.008 825.658 296.957 828.694 296.862 832.3V872.151C296.767 881.545 295.486 889.799 293.019 896.916C290.552 904.222 286.472 910.152 280.779 914.707C275.086 919.261 268.207 921.728 260.142 922.107C247.617 922.677 238.176 918.312 231.819 909.013C226.221 900.284 222.805 888.708 221.571 874.286C221.192 869.921 220.907 865.082 220.717 859.769C220.623 855.309 220.717 847.623 221.002 836.712L221.144 832.157C221.239 828.552 222.283 825.563 224.276 823.191C226.268 820.724 228.64 819.253 231.392 818.779C234.238 818.209 237.038 818.257 239.789 818.921C242.636 819.49 245.008 821.008 246.905 823.475C248.803 825.942 249.705 828.979 249.61 832.584Z" fill="white"/>
<path d="M380.733 832.727C380.638 835.763 380.543 841.551 380.449 850.09C380.449 858.63 380.449 864.94 380.449 869.02C380.449 873.195 380.401 877.939 380.306 883.252C380.306 888.471 380.259 892.836 380.164 896.346C380.164 899.857 380.164 902.751 380.164 905.028C380.449 909.583 378.883 913.236 375.467 915.987C372.051 918.739 368.114 919.83 363.654 919.261C359.194 918.787 355.779 916.652 353.407 912.856L330.35 878.556V892.077C330.445 896.062 330.492 900.569 330.492 905.598C330.492 909.203 329.496 912.24 327.503 914.707C325.606 917.174 323.233 918.692 320.387 919.261C317.635 919.83 314.836 919.83 311.99 919.261C309.238 918.692 306.866 917.221 304.873 914.849C302.976 912.382 302.027 909.393 302.027 905.882C302.027 903.131 302.122 890.938 302.311 869.304C302.501 847.481 302.596 835.241 302.596 832.584C302.691 828.03 304.446 824.424 307.862 821.768C311.278 819.016 315.121 818.02 319.391 818.779C323.66 819.538 326.934 821.862 329.211 825.753L351.699 859.199C351.794 858.061 351.841 855.926 351.841 852.795C351.936 849.569 351.983 847.196 351.983 845.678C352.173 837.518 352.268 832.964 352.268 832.015C352.363 828.504 353.407 825.563 355.399 823.191C357.392 820.724 359.764 819.253 362.515 818.779C365.362 818.209 368.161 818.257 370.913 818.921C373.664 819.49 375.989 821.056 377.887 823.618C379.879 826.085 380.828 829.121 380.733 832.727Z" fill="white"/>
<path d="M436.221 849.379C432.616 844.824 428.726 843.923 424.551 846.675C420.281 849.426 417.292 853.886 415.584 860.053C413.876 866.316 413.781 872.531 415.3 878.698C416.913 885.055 419.854 889.42 424.124 891.792C428.204 894.164 431.762 893.595 434.798 890.084C437.17 887.332 439.875 885.672 442.911 885.103C446.042 884.533 448.841 884.913 451.308 886.241C453.775 887.57 455.863 889.372 457.57 891.65C459.373 893.832 460.227 896.489 460.132 899.62C460.037 902.751 458.851 905.693 456.574 908.444C450.786 915.276 443.528 919.498 434.798 921.111C426.259 922.629 418.099 921.159 410.318 916.699C402.443 912.334 396.323 905.74 391.958 896.916C387.688 888.281 385.553 879.315 385.553 870.016C385.743 860.623 387.831 851.609 391.816 842.974C395.991 834.055 401.826 827.223 409.322 822.479C417.197 817.261 425.642 815.458 434.656 817.071C443.765 818.589 451.593 823.286 458.14 831.161C460.417 833.913 461.556 836.854 461.556 839.985C461.556 843.116 460.654 845.773 458.851 847.956C457.143 850.138 455.009 851.941 452.447 853.364C449.98 854.692 447.228 855.072 444.192 854.503C441.155 853.838 438.499 852.13 436.221 849.379Z" fill="white"/>
<path d="M464.09 906.309C464.849 883.158 467.932 863.232 473.341 846.532C476.282 837.613 480.267 830.639 485.296 825.61C490.325 820.487 496.113 817.83 502.66 817.64C509.776 817.355 516.039 819.68 521.447 824.614C526.95 829.548 531.268 836.522 534.399 845.536C540.187 862.331 543.46 882.825 544.219 907.021C544.314 910.627 543.413 913.71 541.515 916.272C539.617 918.739 537.245 920.257 534.399 920.827C531.647 921.396 528.848 921.396 526.001 920.827C523.155 920.352 520.735 918.881 518.743 916.414C516.75 913.947 515.754 910.911 515.754 907.306L492.555 907.163C492.365 911.623 490.752 915.086 487.716 917.553C484.679 920.02 481.406 921.159 477.895 920.969C474.385 920.874 471.159 919.546 468.217 916.984C465.371 914.232 463.995 910.674 464.09 906.309ZM494.974 878.698L513.477 878.84C511.389 864.038 508.211 853.696 503.941 847.813C499.956 854.17 496.967 864.465 494.974 878.698Z" fill="white"/>
<path d="M437.207 753.207H521.925" stroke="white" stroke-width="19.6333" stroke-linecap="round"/>
<path d="M159.758 753.207H244.476" stroke="white" stroke-width="19.6333" stroke-linecap="round"/>
</svg>
