<svg width="682" height="1000" viewBox="0 0 682 1000" fill="none" xmlns="http://www.w3.org/2000/svg">
<rect width="681.818" height="1000" rx="90.9091" fill="black"/>
<path d="M383.905 81.5799C380.623 80.6842 377.31 79.7797 374.069 78.6574L374.006 78.6599C362.489 74.6349 352.111 73.0234 340.814 78.5846C330.655 84.4085 326.959 93.9544 323.78 104.595C323.325 106.158 322.865 107.7 322.392 109.237C321.608 111.776 320.842 114.303 320.128 116.856L320.095 116.972C319.419 119.386 318.736 121.821 317.961 124.212C316.538 128.372 315.259 132.563 314.007 136.78C313.921 137.073 313.837 137.352 313.754 137.633C313.588 138.194 313.426 138.741 313.263 139.289C312.874 140.607 312.479 141.925 312.046 143.23C311.35 145.318 310.684 147.398 310.054 149.491C309.937 149.881 309.823 150.259 309.71 150.639C309.202 152.307 308.694 153.993 308.19 155.674C307.805 156.949 307.423 158.227 307.038 159.501L306.671 160.723C306.018 162.913 305.353 165.089 304.63 167.248C304.267 168.312 303.929 169.376 303.61 170.453C302.879 173.08 302.125 175.721 301.346 178.335C301.235 178.707 301.127 179.069 301.019 179.43C300.292 181.882 299.534 184.312 298.764 186.742C297.301 191.34 295.887 195.982 294.49 200.623C294 202.265 293.505 203.894 293.014 205.528C292.918 205.846 292.823 206.159 292.73 206.47L292.655 206.719C291.902 209.215 291.144 211.71 290.373 214.206C289.725 216.308 289.086 218.41 288.447 220.512C287.299 224.278 286.135 228.074 284.952 231.853C282.785 238.816 280.617 245.734 278.559 252.74C277.57 256.112 276.563 259.466 275.494 262.812C274.789 265.001 274.102 267.208 273.458 269.424C272.534 272.62 271.557 275.804 270.542 278.97C269.591 281.904 268.672 284.877 267.805 287.859C267.288 289.654 266.767 291.436 266.163 293.201C265.537 295.018 265.537 295.018 264.411 298.893C263.965 300.474 263.518 302.038 263.006 303.579C262.283 305.711 261.622 307.853 261 310.016C259.704 314.526 258.342 319.036 256.941 323.546C255.921 326.787 254.9 330.075 253.919 333.355C252.982 336.508 252.028 339.639 251.029 342.77C250.307 345.047 249.602 347.319 248.936 349.601C248.153 352.315 247.342 354.982 246.484 357.658C244.846 362.737 243.305 367.86 241.799 372.984L241.797 372.988C241.413 374.296 241.028 375.604 240.63 376.907C239.198 381.549 237.919 386.103 237.836 391.007C237.852 391.5 237.878 391.997 237.916 392.499L274.239 354.42C274.484 353.609 274.728 352.797 274.972 351.985C276.592 346.556 278.248 341.126 279.92 335.696C280.528 333.701 281.137 331.723 281.745 329.745L281.746 329.741C282.355 327.779 282.959 325.804 283.568 323.829C283.87 322.849 284.173 321.863 284.474 320.882C284.938 319.385 285.398 317.879 285.862 316.372C286.014 315.886 286.159 315.413 286.305 314.94C286.926 312.935 287.539 310.907 288.205 308.898C288.674 307.509 289.134 306.13 289.545 304.724C289.704 304.137 289.705 304.133 289.86 303.561L289.862 303.551C290.088 302.732 290.312 301.909 290.535 301.09L290.607 300.827C291.377 297.981 292.201 295.139 293.142 292.332C294.425 288.566 295.629 284.744 296.772 280.903C297.337 279.007 297.902 277.107 298.467 275.211C298.584 274.817 298.699 274.433 298.813 274.051C299.693 271.073 300.586 268.113 301.497 265.162L301.633 264.723C302.603 261.585 303.573 258.451 304.518 255.309C306.839 247.602 309.186 239.896 311.568 232.233C311.84 231.37 312.106 230.503 312.374 229.64C312.808 228.252 313.238 226.86 313.67 225.467C313.838 224.933 314 224.416 314.161 223.895C314.953 221.312 315.746 218.772 316.6 216.232C316.941 215.225 317.243 214.244 317.511 213.215C317.926 211.372 318.378 209.572 318.96 207.785C320.129 204.37 321.202 200.954 322.2 197.495C323.75 192.197 325.34 186.854 327.061 181.6C328.436 177.396 329.784 173.201 331.006 168.945C331.737 166.405 332.482 163.83 333.274 161.282C333.366 160.989 333.455 160.704 333.544 160.419C333.899 159.281 334.257 158.138 334.617 156.995C335.462 154.324 336.351 151.684 336.92 148.938C337.17 147.708 337.494 146.67 337.936 145.479C338.505 143.994 339.013 142.492 339.486 140.968C339.586 140.64 339.683 140.326 339.78 140.009C340.003 139.291 340.224 138.578 340.445 137.859C340.8 136.707 341.158 135.551 341.515 134.394L341.527 134.356L341.738 133.672C342.91 129.875 344.074 126.107 345.214 122.315C345.809 120.344 346.4 118.374 346.996 116.403C347.289 115.444 347.578 114.481 347.867 113.522C348.279 112.138 348.693 110.75 349.111 109.366C349.243 108.928 349.371 108.506 349.499 108.083C350.256 105.5 350.979 103.315 352.656 101.165L352.726 101.028C357.937 99.8769 357.937 99.8769 363.235 101.777C364.956 102.347 366.699 102.876 368.446 103.406C369.309 103.669 370.176 103.932 371.038 104.194C372.79 104.729 374.542 105.258 376.293 105.793C380.541 107.08 384.762 108.372 388.992 109.672L390.358 110.093C392.723 110.815 395.061 111.542 397.408 112.265C399.44 112.886 401.467 113.513 403.495 114.139C403.862 114.252 404.216 114.361 404.572 114.471C410.834 116.415 417.095 118.32 423.357 120.207C428.305 121.705 433.253 123.207 438.201 124.805C443.106 126.399 448.054 127.883 453.002 129.359C456.242 130.322 459.452 131.294 462.679 132.275C463.279 132.458 463.879 132.64 464.479 132.822C466.931 133.571 469.414 134.32 471.879 135.069C473.569 135.577 475.242 136.085 476.915 136.593C477.869 136.886 478.824 137.174 479.779 137.464C480.374 137.645 480.97 137.826 481.565 138.007C481.796 138.076 482.017 138.143 482.238 138.21L482.406 138.261C483.387 138.559 484.372 138.856 485.357 139.15C487.809 139.847 490.244 140.578 492.67 141.327C493.222 141.5 493.76 141.667 494.299 141.835C498.284 143.078 502.299 144.344 506.297 145.64C509.318 146.621 512.362 147.558 515.405 148.46C515.812 148.58 516.205 148.697 516.6 148.813L517.262 149.009C519.035 149.536 520.816 150.064 522.599 150.582C523.366 150.806 524.132 151.027 524.894 151.252C525.159 151.33 525.418 151.407 525.676 151.483L525.976 151.571C528.677 152.346 530.516 153.034 532.325 155.245C533.433 157.285 533.394 158.652 532.759 160.894C532.115 162.934 531.471 164.975 530.85 167.024C530.596 167.86 530.345 168.697 530.092 169.533C530.047 169.684 530.002 169.832 529.958 169.979L529.829 170.404C527.202 179.162 524.5 187.876 521.772 196.59C521.334 198 520.893 199.41 520.467 200.824C520.169 201.827 519.876 202.83 519.561 203.828L514.162 270.542L513.648 295.243L519.872 290.75C520.215 289.613 520.556 288.474 520.893 287.334L521.124 286.543C522.563 281.636 524.011 276.695 525.578 271.833C526.469 269.039 527.326 266.242 528.181 263.452L528.35 262.9C529.116 260.404 529.874 257.89 530.706 255.412C531.253 253.809 531.761 252.185 532.251 250.551C532.359 250.192 532.463 249.841 532.567 249.492C533.259 247.171 533.946 244.859 534.608 242.529L534.759 241.999C535.694 238.715 536.632 235.422 537.625 232.152C537.75 231.74 537.872 231.342 537.994 230.943C539.373 226.433 540.779 221.879 542.193 217.368C542.622 215.994 543.055 214.614 543.485 213.239C543.774 212.315 544.063 211.391 544.352 210.467C544.493 210.021 544.629 209.582 544.766 209.145C545.357 207.24 545.948 205.34 546.575 203.452C547.069 201.968 547.551 200.51 547.993 199.03C548.092 198.68 548.189 198.34 548.286 198.001L548.405 197.58C548.567 197.02 548.723 196.477 548.878 195.934L548.924 195.774C550.17 191.447 551.431 187.07 552.832 182.754C553.261 181.431 553.688 180.109 554.111 178.786C554.404 177.871 554.695 176.96 554.987 176.045L555.003 175.995C557.169 169.271 559.167 163.066 558.577 155.946L558.489 155.014C558.31 152.649 557.977 150.508 557.211 148.27L556.873 147.342C555.988 144.907 555.064 142.657 553.501 140.555C553.142 140.119 553.142 140.119 552.792 139.692C546.53 131.898 538.56 128.71 529.233 126.03C525.03 124.826 520.813 123.578 516.622 122.295C516.327 122.203 516.036 122.114 515.746 122.025L515.598 121.98C512.445 121.012 509.288 120.049 506.139 119.077C505.242 118.801 504.348 118.526 503.451 118.249L503.417 118.239C502.794 118.046 502.783 118.043 502.15 117.848C497.158 116.294 497.158 116.294 486.912 113.207C481.438 111.573 476.008 109.914 470.535 108.215C467.426 107.247 464.321 106.284 461.208 105.338C456.304 103.853 451.399 102.343 446.495 100.828C446.075 100.698 445.67 100.572 445.264 100.447C444.336 100.161 443.405 99.8729 442.475 99.5846L442.082 99.4626L442.077 99.4611L441.753 99.3606C441.395 99.2506 441.052 99.1439 440.708 99.0371L440.614 99.0081C438.854 98.4607 437.085 97.9134 435.316 97.3573C431.55 96.175 427.767 95.0146 423.974 93.898C417.45 91.9713 410.969 90.0139 404.445 88.0303C403.67 87.7942 402.892 87.5562 402.115 87.3186L401.55 87.1458C400.158 86.721 398.77 86.2967 397.377 85.8715L397.372 85.87C396.72 85.6714 396.719 85.6709 396.081 85.4748C394.264 84.9187 392.442 84.3757 390.651 83.7233C389.386 83.2416 388.134 82.7687 386.837 82.3746C386.435 82.2669 386.045 82.1618 385.655 82.0571C385.2 81.9332 384.757 81.8123 384.315 81.6919L383.905 81.5799Z" fill="white"/>
<path d="M298.304 99.6757C297.218 104.186 296.01 108.652 294.648 113.075C294.364 114.003 294.083 114.927 293.803 115.856C293.439 117.051 293.072 118.246 292.695 119.442C292.361 120.523 292.043 121.605 291.745 122.695C291.54 123.405 291.54 123.405 291.331 124.132C291.219 124.545 291.106 124.959 290.991 125.384C290.426 126.369 290.426 126.369 289.331 126.89C287.79 127.245 286.249 127.573 284.69 127.871C282.443 128.313 280.223 128.817 277.99 129.312C270.327 131.002 262.664 132.613 255.001 134.216C253.674 134.492 252.352 134.768 251.025 135.044C248.288 135.613 245.551 136.187 242.837 136.756C242.364 136.854 241.886 136.953 241.4 137.055C240.581 137.224 239.758 137.391 238.939 137.554C237.63 137.816 236.325 138.106 235.02 138.39C234.442 138.517 233.869 138.644 233.291 138.771C232.99 138.837 232.691 138.903 232.38 138.971C227.782 139.987 223.14 140.99 218.543 141.94C214.3 142.816 210.091 143.736 205.844 144.69C203.628 145.189 201.421 145.68 199.188 146.118C198.826 146.19 198.461 146.263 198.089 146.338C197.432 146.469 196.78 146.593 196.119 146.709C193.995 147.141 192.887 147.891 191.521 149.581C190.47 153.571 191.756 157.595 192.756 161.492C193.684 165.157 194.498 168.848 195.291 172.527C195.518 173.591 195.746 174.655 195.978 175.714C196.71 179.104 197.428 182.502 198.089 185.873C198.17 186.285 198.251 186.697 198.335 187.121C198.43 187.603 198.43 187.603 198.527 188.089C198.79 189.407 199.07 190.721 199.376 192.03C199.733 193.602 200.016 195.178 200.283 196.759C200.878 200.271 201.627 203.722 202.529 207.137C202.842 208.363 203.116 209.572 203.348 210.811C203.442 211.31 203.535 211.809 203.632 212.326C203.737 212.891 203.842 213.456 203.95 214.038C204.128 214.984 204.307 215.934 204.484 216.88C204.649 217.756 204.813 218.627 204.979 219.503C205.522 222.314 206.14 225.064 206.906 227.823C207.471 229.881 207.878 231.812 208.044 233.953C208.237 235.486 208.684 236.94 209.122 238.42C209.599 240.154 209.975 241.901 210.356 243.674C210.456 244.134 210.556 244.594 210.658 245.071C210.997 246.639 211.332 248.211 211.67 249.8C211.841 250.597 211.841 250.597 212.015 251.407C212.777 254.963 213.508 258.545 214.2 262.092L214.515 263.703C214.619 264.237 214.723 264.772 214.83 265.323C215.051 266.344 215.303 267.359 215.596 268.367C216.03 269.912 216.358 271.436 216.66 273.008C216.982 274.655 217.321 276.297 217.663 277.956C217.798 278.609 217.933 279.261 218.068 279.914C218.276 280.921 218.484 281.928 218.694 282.935C218.898 283.92 219.102 284.91 219.307 285.895C219.369 286.193 219.431 286.491 219.495 286.797C219.843 288.487 220.143 290.178 220.427 291.877C220.627 292.647 220.836 293.414 221.058 294.176C221.57 296.019 221.999 297.854 222.354 299.737C222.568 300.827 222.792 301.913 223.028 302.999C223.812 306.647 224.557 310.268 225.029 313.946C225.189 315.058 225.189 315.058 225.682 315.934C226.256 317.095 226.365 318.163 226.531 319.45C226.866 321.854 227.39 324.136 228.095 326.457C228.576 329.465 227.776 332.412 226.869 335.258C226.77 335.58 226.67 335.902 226.568 336.234C226.249 337.268 225.925 338.297 225.6 339.326C225.378 340.044 225.154 340.762 224.935 341.48C223.775 345.229 222.597 348.968 221.401 352.69C220.722 354.818 220.079 356.951 219.444 359.083C219.356 359.378 219.269 359.67 219.178 359.977C218.741 361.448 218.307 362.924 217.874 364.399C216.529 368.953 216.529 368.953 215.763 370.661C215.128 372.106 214.773 373.49 214.441 375.031C214.331 375.53 214.22 376.034 214.107 376.546C214.027 376.921 213.947 377.295 213.866 377.685C212.736 376.993 212.193 376.581 211.724 375.32C211.643 374.902 211.561 374.484 211.478 374.055C211.381 373.577 211.283 373.1 211.183 372.61L210.884 371.038C210.66 369.925 210.437 368.813 210.21 367.701C210.123 367.266 210.123 367.266 210.035 366.821C209.609 364.684 209.155 362.556 208.686 360.428C208.619 360.122 208.551 359.815 208.481 359.504C208.154 358.028 207.825 356.552 207.496 355.081C206.87 352.23 206.283 349.389 205.758 346.499C205.315 344.077 204.777 341.682 204.159 339.317C203.398 336.217 202.78 333.099 202.136 329.946C201.699 327.831 201.261 325.716 200.818 323.597C200.733 323.187 200.648 322.778 200.56 322.354C199.955 319.455 199.338 316.573 198.703 313.683C197.385 307.684 196.115 301.642 194.841 295.599C194.49 293.939 194.14 292.28 193.79 290.607C193.396 288.746 193.002 286.889 192.608 285.046C192.401 284.069 192.194 283.088 191.986 282.112C190.97 277.339 189.958 272.522 188.947 267.749C186.341 255.401 183.692 243.009 181.065 230.66C178.604 219.188 176.161 207.715 173.752 196.243C173.549 195.27 173.345 194.303 173.139 193.331C172.988 192.608 172.988 192.608 172.833 191.868C171.953 187.677 171.064 183.504 170.175 179.301C170.032 178.626 169.889 177.956 169.746 177.282C169.12 174.331 168.489 171.371 167.863 168.437C167.607 167.233 167.351 166.028 167.092 164.82C166.916 163.992 166.739 163.165 166.563 162.333C166.457 161.833 166.351 161.334 166.242 160.822C166.15 160.39 166.057 159.959 165.963 159.513C164.592 152.682 164.833 146.332 167.465 139.895C167.65 139.427 167.835 138.963 168.025 138.481C169.658 134.816 172.093 132.176 174.9 129.373C175.183 129.08 175.465 128.786 175.758 128.484C179.375 125.003 184.034 122.923 188.851 121.697C189.212 121.605 189.573 121.513 189.946 121.418C193.427 120.542 196.952 119.793 200.455 119.075C202.495 118.659 204.532 118.234 206.585 117.814C207.028 117.723 207.465 117.632 207.921 117.537C213.613 116.355 219.306 115.138 224.998 113.921C226.141 113.677 227.28 113.434 228.423 113.189C231.61 112.511 234.816 111.827 237.969 111.149C251.236 108.32 264.461 105.5 277.729 102.698C278.815 102.468 279.905 102.238 280.991 102.01C282.493 101.693 283.999 101.375 285.501 101.06C285.937 100.967 286.372 100.875 286.823 100.78C288.045 100.523 289.267 100.272 290.493 100.027C291.123 99.8911 291.123 99.8911 291.767 99.7527C294.136 99.271 296.01 99.0609 298.379 99.589L298.304 99.6757Z" fill="white"/>
<path d="M75.9354 208.911C75.5063 207.536 75.3574 206.428 74.1094 205.644L74.0779 205.527C73.0883 205.567 73.0883 205.567 71.7133 206.101C71.1835 206.377 70.6712 206.641 70.1588 206.907C67.9869 208.028 65.8982 209.214 63.8971 210.616C63.5993 210.835 63.3051 211.047 63.0126 211.259C60.7574 212.858 58.314 214.452 56.8384 216.864C56.418 217.622 55.9976 218.375 55.5773 219.128C54.5701 219.632 54.5701 219.632 53.7907 221.3C53.6541 221.602 53.5214 221.899 53.3887 222.193C52.329 224.47 51.4138 226.673 50.7658 229.068C48.1385 241.066 52.6487 250.262 58.5601 260.333C60.8809 264.274 63.2586 268.158 65.2598 272.244C67.0376 275.878 68.9993 279.421 71.1274 282.84C71.8981 284.027 72.6206 285.201 73.2643 286.462C74.4291 288.826 75.6245 291.178 76.9426 293.468C80.0516 298.81 83.0117 304.196 85.963 309.626C87.3336 312.122 88.7085 314.648 90.1054 317.158C90.4645 317.806 90.8266 318.454 91.187 319.102C91.7342 320.109 91.7343 320.109 93.9216 324.046L93.9238 324.05C94.2872 324.707 94.6537 325.364 95.0185 326.02C96.157 328.1 97.2999 330.154 98.4778 332.195L98.4827 332.203C100.382 335.441 102.293 338.7 103.951 342.091C104.687 343.623 105.458 345.077 106.333 346.513C109.355 351.418 112.254 356.541 114.828 361.708C115.814 363.735 116.851 365.688 117.986 367.619C118.747 368.902 119.501 370.19 120.219 371.495C121.103 373.146 121.988 374.783 122.925 376.399L122.954 376.449C124.162 378.512 125.364 380.567 126.498 382.661C127.431 384.404 128.381 386.12 129.344 387.828C129.521 388.143 129.693 388.447 129.865 388.752C130.513 389.903 131.162 391.055 131.81 392.202C132.799 393.963 133.771 395.701 134.656 397.501C136.079 400.391 137.563 403.198 139.21 405.952C141.084 409.061 142.818 412.262 144.508 415.498C146.107 418.563 147.762 421.584 149.5 424.562C151.698 428.284 153.875 432.046 155.937 435.86C156.611 437.112 157.303 438.347 158.021 439.573C158.95 441.14 159.935 442.682 160.684 444.346C161.109 445.423 161.542 446.434 162.173 447.411C163.425 449.219 164.528 450.997 165.492 452.972C166.459 454.978 167.497 456.917 168.61 458.84C169.433 460.263 170.252 461.682 171.044 463.122C172.099 465.075 173.172 467.019 174.285 468.946C174.89 469.983 175.492 471.025 176.073 472.08C178.082 468.236 182.165 460.483 182.431 460.229C181.537 457.984 180.637 455.741 179.618 453.537C179.136 452.512 178.669 451.492 178.243 450.445C177.218 447.818 176.128 445.235 175.016 442.651C173.466 439.017 171.898 435.43 170.418 431.792C168.535 427.194 168.535 427.194 163.763 416.38L163.762 416.378C162.304 413.094 160.846 409.805 159.576 406.438C159.059 405.072 158.534 403.728 157.929 402.396C156.73 399.857 155.596 397.33 154.536 394.733C153.051 391.099 151.558 387.46 150.026 383.83C149.811 383.322 149.601 382.823 149.391 382.328C148.484 380.165 147.582 378.019 146.641 375.891C145.809 374.039 145.003 372.173 144.237 370.286C143.427 368.289 142.617 366.297 141.741 364.331C139.617 359.733 137.686 355.092 135.786 350.45C134.638 347.648 133.487 344.836 132.195 342.086C131.516 340.641 130.873 339.205 130.286 337.716C128.096 331.936 128.096 331.936 122.054 321.296C119.251 316.391 116.519 311.443 113.821 306.451C112.394 303.78 110.931 301.14 109.399 298.526C107.835 295.898 106.312 293.288 104.976 290.556C103.842 288.191 102.581 285.967 101.285 283.725C97.6064 277.332 94.0289 270.895 90.5126 264.414L90.2991 264.018C88.812 261.261 87.3297 258.513 85.7835 255.788C85.512 255.315 85.2497 254.86 84.9865 254.4L84.9859 254.399C84.3862 253.348 83.7865 252.298 83.1824 251.251C81.4703 248.318 79.7713 245.375 78.1905 242.362C77.9501 241.898 77.9501 241.898 77.7132 241.443C76.5445 239.258 75.9538 237.554 76.1806 235.05C76.7981 233.574 77.3848 232.943 78.6722 231.984C79.4735 231.498 80.2749 231.012 81.0718 230.513C81.698 230.119 82.3242 229.725 82.9504 229.335C83.1781 229.193 83.4023 229.056 83.6247 228.918C83.4408 227.482 83.016 226.282 82.4205 224.977C81.8819 223.803 81.3783 222.634 80.9098 221.435C80.0516 219.158 79.1845 216.894 78.1511 214.691C77.2666 212.804 76.5835 210.886 75.9354 208.911Z" fill="white"/>
<path d="M139.36 152.66C139.391 152.92 139.421 153.177 139.453 153.444C140.228 159.925 141.279 166.274 142.671 172.623C143.094 174.616 143.407 176.446 143.298 178.491C142.794 178.682 142.29 178.873 141.774 179.069C137.679 180.632 133.673 182.279 129.732 184.192C129.306 184.386 128.878 184.581 128.44 184.779C128.044 184.964 127.647 185.15 127.24 185.34C126.895 185.499 126.548 185.658 126.194 185.821C125.13 186.526 124.854 186.907 124.473 188.129C124.233 190.905 124.774 192.902 125.839 195.442C126.047 195.954 126.047 195.954 126.259 196.479C127.467 199.435 128.794 202.347 130.164 205.193C131.386 207.838 132.476 210.536 133.545 213.25C134.184 214.853 134.85 216.43 135.581 217.98C136.816 220.633 137.867 223.366 138.944 226.081C139.864 228.397 140.84 230.678 141.895 232.912C142.548 234.361 143.13 235.841 143.708 237.334C144.523 239.41 145.385 241.446 146.336 243.465C148.289 247.625 149.988 251.872 151.678 256.163C152.755 258.878 153.985 261.505 155.238 264.177C156.499 266.87 157.537 269.606 158.496 272.409C159.188 274.283 159.998 276.087 160.821 277.926C162.445 281.565 164.048 285.195 165.638 288.873C165.812 289.271 165.987 289.67 166.167 290.077C168.611 295.682 170.152 301.244 171.334 307.243C171.409 307.613 171.484 307.983 171.56 308.364C171.792 309.528 172.003 310.702 172.213 311.871C172.712 314.63 173.268 317.345 174.074 320.016C174.46 321.474 174.744 322.945 175.037 324.438C175.281 325.656 175.541 326.864 175.812 328.073C176.71 332.101 177.573 336.086 178.142 340.202C178.411 341.827 178.842 343.381 179.315 344.975C179.696 346.403 179.981 347.83 180.266 349.28C180.589 350.904 180.931 352.524 181.277 354.14C181.343 354.452 181.41 354.762 181.478 355.086C181.683 356.054 181.89 357.021 182.095 357.994C182.303 358.974 182.511 359.951 182.721 360.932C182.85 361.536 182.978 362.14 183.107 362.745C183.353 363.896 183.593 365.048 183.826 366.204C184.086 367.5 184.373 368.787 184.662 370.075C186.151 376.774 187.569 383.474 188.839 390.261C189.413 393.296 190.048 396.304 190.757 399.326C191.112 400.871 191.401 402.417 191.677 403.967C192.408 408 193.323 411.98 194.357 415.965C194.821 417.752 195.079 419.306 194.987 421.132C194.554 421.277 194.12 421.421 193.674 421.57C193.153 420.318 192.627 419.061 192.106 417.809C191.719 416.88 191.331 415.952 190.941 415.028C189.741 412.164 188.585 409.292 187.46 406.402C186.777 404.729 186.006 403.096 185.236 401.454C183.576 397.929 182.043 394.36 180.55 390.769C180.28 390.13 180.007 389.491 179.74 388.851C178.26 385.344 176.793 381.845 175.361 378.298C174.534 376.275 173.64 374.287 172.725 372.299C172.081 370.867 171.512 369.409 170.939 367.947C170.453 366.76 169.927 365.595 169.393 364.43C168.535 362.569 167.742 360.691 166.993 358.782C165.701 355.484 164.362 352.213 162.96 348.973C162.614 348.167 162.268 347.366 161.923 346.56C161.747 346.151 161.57 345.742 161.388 345.321C160.854 344.082 160.324 342.843 159.799 341.603C158.297 338.079 156.786 334.554 155.201 331.094C154.246 328.962 153.41 326.781 152.569 324.614C151.86 322.792 151.107 321.036 150.2 319.315C149.088 317.152 148.261 314.892 147.433 312.615C146.562 310.247 145.541 307.974 144.455 305.697C143.61 303.849 142.866 301.966 142.121 300.092C141.491 298.498 140.825 296.935 140.103 295.363C138.955 292.897 137.996 290.371 137.02 287.831C136.258 285.852 135.474 283.89 134.585 281.963C132.926 278.36 131.419 274.695 129.944 271.016C129.094 268.915 128.197 266.874 127.163 264.842C126.305 263.121 125.561 261.348 124.807 259.588C124.635 259.186 124.463 258.782 124.286 258.37C123.135 255.66 122.079 252.94 121.077 250.138C120.271 247.953 119.264 245.926 118.191 243.876C117.284 241.985 116.58 240.04 115.861 238.052C114.937 235.526 113.86 233.104 112.717 230.652C111.417 227.819 110.235 224.96 109.057 222.07C108.343 220.331 107.607 218.61 106.806 216.902C105.672 214.455 104.717 211.954 103.749 209.415C103.088 207.698 102.418 205.999 101.661 204.335C98.2321 196.76 96.9316 188.746 99.5808 180.733C99.7025 180.366 99.8247 179.997 99.9504 179.621C101.938 174.235 105.03 169.331 109.671 165.827C109.971 165.599 110.271 165.372 110.582 165.136C113.367 163.099 116.231 161.663 119.384 160.319C120.106 160.008 120.106 160.008 120.842 159.693C123.925 158.37 127.016 157.092 130.125 155.87C131.99 155.134 133.825 154.346 135.686 153.549C136.895 153.089 138.138 152.682 139.448 152.682L139.36 152.66Z" fill="white"/>
<path d="M566.166 310.48C569.748 313.98 570.571 316.293 571.106 321.184C570.666 321.408 570.225 321.631 569.772 321.861C567.747 322.899 565.721 323.944 563.696 324.99C563.005 325.342 562.313 325.692 561.605 326.052C549.09 332.557 540.198 341.366 535.67 354.951C533.628 362.123 533.513 369.442 533.2 376.852C533.133 378.318 533.065 379.783 532.997 381.249C532.819 385.151 532.648 389.062 532.479 392.94C532.38 395.229 532.276 397.51 532.171 399.798C531.411 416.265 530.771 432.814 530.318 449.281L530.314 449.415C530.281 450.63 530.247 451.845 530.213 453.068C530.059 458.675 529.909 464.266 529.773 469.864C528.834 508.314 521.745 530.297 493.958 557.138L428.848 618.485C411.394 633.634 400.114 649.689 395.75 672.578C392.078 672.649 388.406 672.693 384.718 672.733L381.548 672.796L378.526 672.82L375.727 672.859C374.991 672.767 374.253 672.674 373.495 672.578C371.347 669.359 371.948 667.194 372.573 663.604C372.739 662.632 372.74 662.624 372.906 661.652L372.91 661.628C376.426 643.267 386.495 625.483 399.833 612.475L403.069 609.214L403.081 609.202C404.279 607.996 405.477 606.79 406.683 605.583L408.486 603.764C411.879 600.363 415.337 597.119 418.943 593.966C420.746 592.385 422.426 590.714 424.097 588.993C426.328 586.729 428.576 584.572 430.996 582.505C433.771 580.126 436.356 577.59 438.917 574.996C441.922 571.958 444.985 569.052 448.221 566.269C460.241 555.813 471.768 544.78 482.965 533.418L482.969 533.414C487.082 529.301 487.083 529.3 489.083 527.325C494.632 521.57 497.975 516.045 501.104 508.718C501.382 508.104 501.659 507.491 501.943 506.857C506.151 496.236 505.508 482.816 505.862 471.536C505.91 470.128 505.959 468.72 506.008 467.312C506.11 464.34 506.209 461.368 506.305 458.42C506.442 454.183 506.586 449.96 506.731 445.701L506.775 444.423C507.248 430.509 507.697 416.595 508.1 402.68C508.154 400.861 508.208 399.049 508.262 397.23L508.3 395.943C508.322 395.203 508.344 394.465 508.366 393.731C508.383 393.167 508.4 392.603 508.417 392.026C508.529 388.264 508.63 384.501 508.729 380.747C509.395 357.034 511.166 334.969 529.23 317.514C538.699 309.421 554.557 302.667 566.166 310.48Z" fill="white"/>
<path fill-rule="evenodd" clip-rule="evenodd" d="M483.01 206.74L486.278 206.734C490.477 206.892 494.604 207.023 494.604 207.023L489.311 270.526L489.313 273.309L489.299 276.338L489.29 279.484C489.24 290.187 488.947 300.89 488.605 311.676L488.566 312.95C488.514 314.647 488.462 316.341 488.41 318.04C488.237 323.688 488.059 329.32 487.88 335.001C487.817 336.996 487.754 338.99 487.691 340.979L487.69 341.013L487.547 345.54C487.018 362.418 486.477 379.297 485.917 396.175L485.86 397.92C485.38 412.494 484.888 427.067 484.378 441.64C484.239 445.567 484.103 449.503 483.97 453.413C483.814 458.008 483.651 462.635 483.483 467.163C483.423 468.826 483.366 470.498 483.31 472.161C482.556 494.638 477.752 506.412 461.985 522.384L396.225 584.736C363.471 612.716 355.384 633.19 347.536 672.783C332.88 672.802 318.225 672.817 303.57 672.826C296.769 672.83 289.985 672.836 283.151 672.845C277.215 672.853 271.295 672.859 265.367 672.861C262.23 672.862 259.093 672.864 255.981 672.87H255.976C233.504 672.911 233.503 672.911 223.871 672.521L222.002 672.466C217.117 672.503 214.101 670.568 208.45 662.907C206.63 660.256 205.074 657.481 203.509 654.674C203.404 654.496 203.298 654.319 203.193 654.142L203.188 654.133C202.895 653.642 202.601 653.148 202.299 652.648C196.643 642.85 192.254 631.488 189.949 620.456C189.177 616.726 188.344 613.037 187.43 609.341C184.499 596.661 183.214 583.735 182.901 570.726L182.833 568.306C181.796 526.645 192.631 489.677 217.496 456.332C217.778 455.953 218.059 455.573 218.345 455.186L218.558 454.899C224.19 447.39 230.414 440.573 236.836 433.739C238.335 432.142 239.775 430.495 241.2 428.832C243.659 425.966 246.327 423.331 249.011 420.678L249.425 420.27C251.599 418.071 253.599 415.758 255.616 413.411C256.983 411.863 258.408 410.414 259.881 408.965C261.767 407.113 263.529 405.219 265.233 403.202C268.352 399.571 271.745 396.221 275.153 392.857C275.524 392.491 275.895 392.124 276.266 391.757C278.777 389.279 281.206 386.776 283.495 384.084C287.026 379.986 290.885 376.186 294.751 372.38C295.941 371.207 297.132 370.034 298.315 368.852C305.313 361.936 305.313 361.936 311.9 354.609C313.592 352.636 315.461 350.816 317.321 349.004L317.328 348.997C317.709 348.626 318.091 348.254 318.47 347.882C318.653 347.688 318.833 347.501 319.009 347.317C321.166 345.064 322.685 343.478 322.521 340.414C322.279 335.894 321.195 333.134 314.019 333.019C313.879 333.719 313.695 334.331 313.511 334.942C313.327 335.554 313.143 336.166 313.003 336.866L309.71 336.042C309.369 330.814 309.967 324.845 313.349 320.564C315.061 319.23 316.51 319.156 318.643 319.271C326.127 320.457 331.405 323.495 336.098 329.398C342.882 338.949 343.631 348.499 342.684 359.861C341.326 367.56 337.876 373.94 333.628 380.445L333.624 380.45C333.242 381.037 332.859 381.624 332.467 382.231C327.782 389.37 322.998 396.311 317.317 402.733C312.427 408.348 308.096 414.424 303.815 420.434C302.618 422.093 301.41 423.741 300.2 425.391L299.434 426.436C286.096 444.714 272.347 464.557 275.146 488.351C277.056 497.82 282.004 505.806 289.966 511.405C293.597 513.455 297.22 515.365 301.493 514.698C302.678 513.685 302.678 513.685 302.678 510.631C302.671 505.538 300.979 501.038 299.21 496.333L299.138 496.14C297.45 491.538 296.528 487.66 298.109 482.802C303.081 473.061 312.11 469.289 321.636 465.309C322.899 464.781 324.171 464.25 325.444 463.701C326.045 463.436 326.65 463.173 327.263 462.906L328.045 462.564C333.591 460.143 339.165 457.745 344.735 455.35L344.737 455.349L344.756 455.341L344.775 455.333L344.89 455.283C346.521 454.582 348.152 453.88 349.781 453.178C351.659 452.372 353.536 451.565 355.405 450.75C360.567 448.527 365.696 446.32 370.966 444.352L371.537 444.134C372.081 443.925 372.628 443.716 373.189 443.504C374.473 443.02 375.766 442.557 377.067 442.121C379.249 441.289 381.002 440.507 382.089 438.358C383.859 432.669 385.135 426.914 386.37 421.068C386.603 419.99 386.835 418.911 387.068 417.833C387.676 415.008 388.278 412.184 388.879 409.352C389.207 407.817 389.537 406.282 389.866 404.749L389.869 404.734C390.002 404.117 390.134 403.5 390.267 402.883C390.416 402.185 390.566 401.487 390.715 400.789C391.145 398.783 391.576 396.78 392.007 394.777L392.008 394.768C392.675 391.67 393.341 388.574 394 385.475C394.484 383.244 394.997 381.029 395.524 378.806C396.512 374.286 396.619 371.586 394.083 367.527C393.646 366.827 393.21 366.13 392.759 365.41L392.708 365.328L392.311 364.711L392.31 364.709C391.96 364.165 391.608 363.617 391.25 363.056C390.567 361.961 390.567 361.961 389.867 360.841C386.961 356.231 383.849 351.785 380.646 347.421C378.311 344.191 376.092 340.863 373.89 337.562L373.889 337.559L373.888 337.558L373.887 337.556C373.093 336.366 372.301 335.178 371.507 334C371.279 333.656 371.05 333.312 370.821 332.968C370.42 332.366 370.02 331.763 369.621 331.16C368.378 329.291 367.143 327.43 365.908 325.561C363.015 321.204 361.565 319.023 360.096 316.855C358.622 314.679 357.128 312.518 354.134 308.189C331.904 276.408 331.904 276.408 333.633 261.917C335.214 253.98 338.73 245.698 345.242 240.675C350.199 237.456 355.699 234.681 361.791 234.772C366.384 236.347 369.258 241.288 371.773 245.612L371.773 245.614L371.774 245.615C372.243 246.422 372.7 247.207 373.153 247.945C373.761 248.883 374.373 249.817 374.986 250.753L374.991 250.761L375.005 250.782L375.032 250.823C375.259 251.169 375.487 251.517 375.714 251.864L375.719 251.872C376.549 253.17 377.379 254.469 378.201 255.767L378.343 255.989C378.686 256.524 379.029 257.061 379.386 257.611C381.65 261.316 382.754 264.173 383.042 268.562L383.513 270.549L379.667 272.132C374.599 274.219 361.445 270.71 357.67 251.836C357.168 249.327 354.728 247.701 352.22 248.202C349.712 248.704 348.085 251.144 348.587 253.652C353.046 275.945 370.766 285.815 383.194 280.697L384.517 280.017L386.38 282.638C392.111 289.694 397.413 296.964 402.6 304.457C405.655 308.861 408.792 313.184 412.068 317.465C417.684 324.867 422.936 332.532 428.041 340.272C428.392 340.795 428.743 341.317 429.103 341.852C429.797 342.898 430.486 343.944 431.162 344.998C432.701 347.369 434.2 349.493 436.085 351.609C440.885 357.265 441.091 361.818 440.935 368.981L440.902 371.838C440.751 381.801 440.211 391.681 439.609 401.643C439.44 404.583 439.272 407.522 439.105 410.453C438.989 412.487 438.872 414.52 438.754 416.554C438.08 428.245 437.478 439.937 436.885 451.628L436.884 451.639C436.783 453.62 436.681 455.6 436.579 457.572C436.416 460.735 436.254 463.898 436.093 467.041L436.012 468.605C435.848 471.841 435.678 475.068 435.501 478.321C435.085 486.043 434.814 493.717 434.878 501.456L434.889 504.206C434.898 506.38 434.912 508.545 434.929 510.719C437.276 511.896 438.906 511.789 441.516 511.542C448.547 507.401 455.019 500.756 457.159 492.852C458.212 487.909 458.443 482.926 458.677 477.896C458.703 477.338 458.729 476.78 458.757 476.221C458.821 474.986 458.887 473.751 458.952 472.516C459.117 469.37 459.276 466.223 459.433 463.111L459.461 462.554C459.592 459.957 459.726 457.356 459.861 454.744L460.002 452.015C460.307 446.128 460.607 440.241 460.9 434.396C461.241 427.611 461.59 420.81 461.937 414.059C462.309 406.883 462.677 399.707 463.046 392.531L463.057 392.323C463.163 390.248 463.27 388.173 463.377 386.099C463.546 382.822 463.712 379.545 463.876 376.301C463.936 375.107 463.997 373.913 464.06 372.719C464.343 367.252 464.591 361.769 464.683 356.335L464.723 354.03C464.424 350.522 462.813 348.077 460.788 345.302C460.412 344.743 460.037 344.183 459.651 343.606C458.556 341.992 457.445 340.403 456.309 338.814L455.493 337.643C455.284 337.342 455.075 337.042 454.654 336.435L454.653 336.434C451.955 332.575 451.953 332.573 449.207 328.75L449.206 328.748L449.204 328.746L449.203 328.745C445.474 323.22 445.062 319.277 445.605 312.772C445.695 311.249 445.784 309.726 445.869 308.203C445.935 307.042 446.005 305.873 446.076 304.712C446.434 298.866 446.643 293.02 446.84 287.175L446.942 284.128C447.001 282.388 447.059 280.643 447.117 278.901L447.148 277.945C447.926 254.564 447.926 254.562 448.449 243.944L448.449 243.941L448.523 242.204C449.081 231.748 453.414 221.456 461.12 214.211C467.814 209.328 474.859 206.723 483.01 206.74ZM489.935 263.003C482.505 262.374 476.916 259.612 473.198 255.289C469.504 250.994 468.086 245.656 468.01 240.658C467.934 235.673 469.176 230.704 471.194 226.717C473.098 222.954 476.234 219.053 480.597 217.905C483.071 217.254 485.603 218.731 486.254 221.205C486.905 223.679 485.427 226.212 482.954 226.862C482.428 227.001 480.932 227.988 479.459 230.899C478.099 233.585 477.219 237.074 477.271 240.516C477.324 243.945 478.286 247 480.221 249.25C482.073 251.404 485.234 253.307 490.7 253.772L489.935 263.003Z" fill="white"/>
<path d="M252.746 164.538L224.871 170.511C224.348 170.623 224.011 171.133 224.113 171.658L233.707 221.142" stroke="white" stroke-width="14.725" stroke-linecap="round"/>
<circle cx="375.74" cy="139.323" r="11.8355" fill="white"/>
<path d="M368.019 396.616L351.553 396.101L319.648 439.326L362.359 419.772L368.019 396.616Z" fill="white"/>
<path d="M562.531 420.801C562.531 419.38 563.683 418.228 565.104 418.228C581.185 418.228 594.436 405.106 594.436 389.411C594.436 387.99 595.587 386.838 597.008 386.838C598.429 386.838 599.581 387.99 599.581 389.411C599.581 405.106 613.347 418.228 629.427 418.228C630.848 418.228 632 419.38 632 420.801C632 422.222 630.848 423.374 629.427 423.374C613.347 423.374 599.581 437.268 599.581 453.734C599.581 455.155 598.429 456.307 597.008 456.307C595.587 456.307 594.436 455.155 594.436 453.734C594.436 437.268 581.185 423.374 565.104 423.374C563.683 423.374 562.531 422.222 562.531 420.801Z" fill="#FFF323"/>
<path d="M78.8164 534.902C78.8164 533.702 79.7721 532.73 80.951 532.73C94.2921 532.73 105.285 521.649 105.285 508.395C105.285 507.196 106.241 506.223 107.42 506.223C108.599 506.223 109.554 507.196 109.554 508.395C109.554 521.649 120.974 532.73 134.315 532.73C135.494 532.73 136.45 533.702 136.45 534.902C136.45 536.102 135.494 537.075 134.315 537.075C120.974 537.075 109.554 548.808 109.554 562.713C109.554 563.913 108.599 564.885 107.42 564.885C106.241 564.885 105.285 563.913 105.285 562.713C105.285 548.808 94.2921 537.075 80.951 537.075C79.7721 537.075 78.8164 536.102 78.8164 534.902Z" fill="#FFF323"/>
<path d="M80.875 438.64C80.875 437.377 81.8989 436.353 83.162 436.353C97.4561 436.353 109.234 424.689 109.234 410.738C109.234 409.475 110.258 408.451 111.521 408.451C112.785 408.451 113.808 409.475 113.808 410.738C113.808 424.689 126.044 436.353 140.338 436.353C141.601 436.353 142.625 437.377 142.625 438.64C142.625 439.904 141.601 440.927 140.338 440.927C126.044 440.927 113.808 453.278 113.808 467.915C113.808 469.178 112.785 470.202 111.521 470.202C110.258 470.202 109.234 469.178 109.234 467.915C109.234 453.278 97.4561 440.927 83.162 440.927C81.8989 440.927 80.875 439.904 80.875 438.64Z" fill="#FFF323"/>
<path d="M394.57 168.49C394.941 167.282 396.22 166.604 397.427 166.975C411.092 171.171 425.775 163.478 429.87 150.142C430.241 148.934 431.52 148.256 432.728 148.627C433.935 148.997 434.614 150.277 434.243 151.484C430.148 164.821 438.42 179.562 452.085 183.758C453.292 184.129 453.97 185.409 453.6 186.616C453.229 187.823 451.949 188.502 450.742 188.131C437.078 183.935 421.756 192.149 417.459 206.142C417.088 207.349 415.809 208.027 414.601 207.656C413.394 207.286 412.716 206.006 413.086 204.799C417.383 190.807 409.749 175.543 396.085 171.347C394.877 170.976 394.199 169.697 394.57 168.49Z" fill="#FFF323"/>
<path d="M270.69 681.008H315.224C319.482 680.896 323.067 681.96 325.98 684.199C328.893 686.438 330.685 689.237 331.357 692.596C332.03 695.843 332.03 699.146 331.357 702.505C330.797 705.752 329.061 708.551 326.148 710.902C323.347 713.253 319.818 714.485 315.56 714.596H287.327V722.826C288.111 722.826 290.072 722.826 293.209 722.826C296.346 722.714 298.307 722.658 299.091 722.658C304.133 722.658 308.166 724.337 311.191 727.696C314.328 731.055 315.84 734.974 315.728 739.452C315.728 743.707 314.216 747.569 311.191 751.04C308.39 754.511 304.357 756.246 299.091 756.246C298.307 756.246 296.346 756.302 293.209 756.414C290.184 756.414 288.28 756.414 287.495 756.414V767.162C289.624 767.05 294.386 766.995 301.78 766.995C309.286 766.995 314.104 766.939 316.233 766.827C320.602 766.827 324.243 768.002 327.156 770.353C330.069 772.593 331.862 775.392 332.534 778.75C333.206 781.997 333.15 785.3 332.366 788.659C331.693 791.906 329.901 794.705 326.988 797.056C324.187 799.295 320.714 800.415 316.569 800.415C313.096 800.527 305.421 800.583 293.545 800.583C281.669 800.583 274.051 800.639 270.69 800.751C266.096 800.751 262.175 799.128 258.926 795.881C255.789 792.634 254.109 788.659 253.884 783.957C252.764 754.287 252.708 725.513 253.716 697.634C253.941 692.82 255.621 688.845 258.758 685.71C262.007 682.463 265.984 680.896 270.69 681.008Z" fill="white"/>
<path d="M372.198 698.306L372.03 698.978C372.03 699.426 371.974 700.097 371.862 700.993C371.862 701.777 371.862 702.617 371.862 703.512C371.862 703.624 371.75 706.759 371.526 712.917C371.414 719.075 371.302 724.281 371.19 728.536C371.19 740.18 372.086 750.144 373.879 758.429C375.784 766.603 378.809 770.577 382.954 770.353C386.203 770.241 388.836 768.394 390.852 764.811C392.869 761.229 394.101 756.302 394.55 750.032C394.998 744.546 395.222 738.5 395.222 731.895C395.222 725.961 395.054 719.411 394.718 712.245C394.382 704.52 394.27 699.426 394.382 696.963C394.494 692.82 395.726 689.349 398.079 686.55C400.432 683.751 403.232 682.072 406.481 681.512C409.843 680.84 413.148 680.896 416.397 681.68C419.646 682.352 422.391 684.199 424.631 687.222C426.984 690.133 428.104 693.716 427.992 697.97V744.994C427.88 756.078 426.368 765.819 423.455 774.216C420.542 782.837 415.724 789.835 409.002 795.209C402.28 800.583 394.158 803.494 384.634 803.942C369.846 804.614 358.698 799.463 351.192 788.491C344.582 778.191 340.548 764.531 339.092 747.513C338.644 742.363 338.308 736.653 338.083 730.383C337.971 725.121 338.083 716.052 338.42 703.176L338.588 697.802C338.7 693.548 339.932 690.021 342.285 687.222C344.638 684.311 347.438 682.575 350.688 682.016C354.049 681.344 357.354 681.4 360.603 682.184C363.964 682.855 366.765 684.647 369.005 687.558C371.246 690.469 372.31 694.052 372.198 698.306Z" fill="white"/>
<path d="M194.784 822.891C194.674 826.425 194.563 833.163 194.452 843.105C194.452 853.046 194.452 860.391 194.452 865.141C194.452 870.001 194.397 875.524 194.286 881.71C194.286 887.785 194.231 892.866 194.12 896.953C194.12 901.04 194.12 904.409 194.12 907.06C194.452 912.362 192.627 916.615 188.643 919.818C184.66 923.021 180.068 924.292 174.867 923.629C169.667 923.077 165.683 920.591 162.917 916.173L136.029 876.242V891.983C136.14 896.622 136.195 901.869 136.195 907.723C136.195 911.92 135.033 915.455 132.71 918.327C130.497 921.199 127.73 922.966 124.411 923.629C121.202 924.292 117.938 924.292 114.618 923.629C111.409 922.966 108.643 921.254 106.32 918.493C104.107 915.621 103 912.141 103 908.054C103 904.851 103.111 890.657 103.332 865.472C103.553 840.067 103.664 825.818 103.664 822.725C103.775 817.423 105.822 813.226 109.805 810.133C113.788 806.929 118.27 805.77 123.249 806.653C128.228 807.537 132.046 810.243 134.701 814.772L160.925 853.709C161.036 852.383 161.091 849.898 161.091 846.253C161.202 842.497 161.257 839.736 161.257 837.968C161.479 828.469 161.589 823.167 161.589 822.062C161.7 817.975 162.917 814.551 165.241 811.79C167.564 808.918 170.331 807.206 173.539 806.653C176.859 805.991 180.123 806.046 183.332 806.819C186.541 807.482 189.252 809.304 191.465 812.287C193.788 815.159 194.895 818.693 194.784 822.891Z" fill="white"/>
<path d="M234.43 822.725L234.264 823.388C234.264 823.83 234.209 824.492 234.098 825.376C234.098 826.149 234.098 826.978 234.098 827.861C234.098 827.972 233.988 831.065 233.766 837.14C233.656 843.215 233.545 848.351 233.434 852.549C233.434 864.037 234.32 873.867 236.09 882.041C237.971 890.105 240.959 894.026 245.053 893.805C248.261 893.695 250.862 891.872 252.853 888.337C254.845 884.803 256.062 879.943 256.505 873.757C256.947 868.344 257.169 862.38 257.169 855.863C257.169 850.008 257.003 843.546 256.671 836.477C256.339 828.855 256.228 823.83 256.339 821.4C256.45 817.313 257.667 813.888 259.99 811.127C262.314 808.365 265.08 806.709 268.289 806.156C271.609 805.493 274.873 805.549 278.082 806.322C281.29 806.985 284.001 808.807 286.214 811.79C288.538 814.662 289.645 818.196 289.534 822.394V868.786C289.423 879.722 287.93 889.332 285.053 897.616C282.176 906.121 277.418 913.025 270.779 918.327C264.14 923.629 256.118 926.501 246.712 926.943C232.107 927.605 221.097 922.524 213.683 911.699C207.155 901.537 203.172 888.061 201.733 871.272C201.291 866.19 200.959 860.557 200.737 854.371C200.627 849.18 200.737 840.233 201.069 827.53L201.235 822.228C201.346 818.031 202.563 814.551 204.887 811.79C207.21 808.918 209.977 807.206 213.185 806.653C216.505 805.991 219.769 806.046 222.978 806.819C226.297 807.482 229.064 809.249 231.277 812.121C233.49 814.993 234.541 818.528 234.43 822.725Z" fill="white"/>
<path d="M387.341 822.891C387.231 826.425 387.12 833.163 387.009 843.105C387.009 853.046 387.009 860.391 387.009 865.141C387.009 870.001 386.954 875.524 386.843 881.71C386.843 887.785 386.788 892.866 386.677 896.953C386.677 901.04 386.677 904.409 386.677 907.06C387.009 912.362 385.184 916.615 381.2 919.818C377.217 923.021 372.625 924.292 367.424 923.629C362.224 923.077 358.24 920.591 355.474 916.173L328.586 876.242V891.983C328.697 896.622 328.752 901.869 328.752 907.723C328.752 911.92 327.59 915.455 325.267 918.327C323.054 921.199 320.287 922.966 316.968 923.629C313.759 924.292 310.495 924.292 307.175 923.629C303.966 922.966 301.2 921.254 298.876 918.493C296.663 915.621 295.557 912.141 295.557 908.054C295.557 904.851 295.668 890.657 295.889 865.472C296.11 840.067 296.221 825.818 296.221 822.725C296.332 817.423 298.379 813.226 302.362 810.133C306.345 806.929 310.827 805.77 315.806 806.653C320.785 807.537 324.603 810.243 327.258 814.772L353.482 853.709C353.593 852.383 353.648 849.898 353.648 846.253C353.759 842.497 353.814 839.736 353.814 837.968C354.036 828.469 354.146 823.167 354.146 822.062C354.257 817.975 355.474 814.551 357.798 811.79C360.121 808.918 362.888 807.206 366.096 806.653C369.416 805.991 372.68 806.046 375.889 806.819C379.098 807.482 381.809 809.304 384.022 812.287C386.345 815.159 387.452 818.693 387.341 822.891Z" fill="white"/>
<path d="M452.049 842.276C447.845 836.974 443.308 835.925 438.439 839.128C433.46 842.331 429.975 847.523 427.983 854.703C425.991 861.993 425.881 869.228 427.651 876.408C429.532 883.809 432.962 888.89 437.942 891.651C442.7 894.413 446.849 893.75 450.39 889.663C453.156 886.46 456.309 884.527 459.85 883.864C463.502 883.201 466.766 883.643 469.643 885.189C472.52 886.736 474.954 888.834 476.946 891.485C479.048 894.026 480.044 897.119 479.933 900.764C479.823 904.409 478.439 907.833 475.784 911.037C469.034 918.99 460.569 923.905 450.39 925.783C440.431 927.55 430.915 925.838 421.842 920.647C412.658 915.565 405.521 907.889 400.431 897.616C395.452 887.564 392.962 877.126 392.962 866.301C393.184 855.366 395.618 844.872 400.265 834.82C405.134 824.437 411.939 816.484 420.68 810.961C429.864 804.886 439.712 802.787 450.224 804.665C460.846 806.432 469.975 811.9 477.61 821.068C480.265 824.271 481.593 827.696 481.593 831.341C481.593 834.986 480.542 838.079 478.439 840.619C476.448 843.16 473.958 845.259 470.971 846.915C468.094 848.462 464.885 848.904 461.344 848.241C457.803 847.468 454.705 845.479 452.049 842.276Z" fill="white"/>
<path d="M484.548 908.551C485.433 881.599 489.029 858.403 495.336 838.962C498.767 828.579 503.414 820.461 509.278 814.606C515.143 808.642 521.893 805.549 529.527 805.328C537.826 804.996 545.129 807.703 551.436 813.447C557.854 819.19 562.888 827.309 566.54 837.803C573.289 857.354 577.107 881.213 577.992 909.38C578.103 913.577 577.052 917.167 574.839 920.149C572.626 923.021 569.859 924.789 566.54 925.451C563.331 926.114 560.067 926.114 556.747 925.451C553.428 924.899 550.606 923.187 548.283 920.315C545.959 917.443 544.797 913.909 544.797 909.711L517.743 909.545C517.522 914.737 515.641 918.769 512.1 921.641C508.559 924.513 504.742 925.838 500.648 925.617C496.554 925.507 492.792 923.96 489.361 920.978C486.042 917.775 484.437 913.632 484.548 908.551ZM520.565 876.408L542.141 876.574C539.707 859.342 536 847.302 531.021 840.454C526.374 847.854 522.888 859.839 520.565 876.408Z" fill="white"/>
<path fill-rule="evenodd" clip-rule="evenodd" d="M438 743.5C438 736.596 443.981 731 451.359 731L564.641 731C572.019 731 578 736.596 578 743.5C578 750.404 572.019 756 564.641 756L451.359 756C443.981 756 438 750.404 438 743.5Z" fill="white"/>
<path fill-rule="evenodd" clip-rule="evenodd" d="M103 743.5C103 736.596 108.981 731 116.359 731L229.641 731C237.019 731 243 736.596 243 743.5C243 750.404 237.019 756 229.641 756L116.359 756C108.981 756 103 750.404 103 743.5Z" fill="white"/>
</svg>
