<svg width="682" height="1000" viewBox="0 0 682 1000" fill="none" xmlns="http://www.w3.org/2000/svg">
<rect y="0.00012207" width="681.818" height="1000" rx="90.9091" fill="black"/>
<path d="M146.514 833.997C143.346 829.981 139.928 829.186 136.26 831.612C132.509 834.039 129.884 837.972 128.383 843.411C126.883 848.934 126.799 854.415 128.133 859.855C129.55 865.461 132.134 869.311 135.885 871.403C139.47 873.495 142.596 872.993 145.263 869.896C147.347 867.47 149.723 866.005 152.39 865.503C155.141 865.001 157.6 865.336 159.768 866.507C161.935 867.679 163.769 869.269 165.269 871.277C166.853 873.202 167.603 875.545 167.52 878.306C167.437 881.068 166.395 883.662 164.394 886.089C159.309 892.114 152.932 895.837 145.263 897.26C137.761 898.599 130.592 897.302 123.757 893.369C116.838 889.52 111.461 883.704 107.627 875.921C103.876 868.307 102 860.399 102 852.198C102.167 843.914 104.001 835.964 107.502 828.349C111.169 820.483 116.296 814.458 122.881 810.274C129.8 805.671 137.219 804.081 145.138 805.504C153.141 806.843 160.018 810.985 165.77 817.931C167.77 820.357 168.77 822.952 168.77 825.713C168.77 828.474 167.979 830.818 166.395 832.742C164.894 834.667 163.019 836.257 160.768 837.512C158.601 838.684 156.183 839.018 153.516 838.516C150.848 837.93 148.514 836.424 146.514 833.997Z" fill="white"/>
<path d="M167.246 884.206C167.912 863.788 170.622 846.215 175.373 831.487C177.957 823.621 181.458 817.47 185.876 813.035C190.294 808.517 195.379 806.174 201.131 806.006C207.383 805.755 212.885 807.805 217.636 812.157C222.471 816.508 226.264 822.659 229.014 830.608C234.099 845.42 236.975 863.495 237.642 884.833C237.725 888.013 236.934 890.733 235.266 892.992C233.599 895.168 231.515 896.507 229.014 897.009C226.597 897.511 224.138 897.511 221.637 897.009C219.136 896.591 217.011 895.294 215.26 893.118C213.51 890.942 212.634 888.264 212.634 885.085L192.253 884.959C192.086 888.892 190.669 891.946 188.002 894.122C185.334 896.298 182.459 897.302 179.374 897.135C176.29 897.051 173.456 895.879 170.872 893.62C168.371 891.193 167.162 888.055 167.246 884.206ZM194.379 859.855L210.634 859.98C208.8 846.926 206.007 837.805 202.256 832.617C198.755 838.223 196.129 847.303 194.379 859.855Z" fill="white"/>
<path d="M280.168 833.997C277 829.981 273.582 829.186 269.915 831.612C266.164 834.039 263.538 837.972 262.037 843.411C260.537 848.934 260.453 854.415 261.787 859.855C263.204 865.461 265.788 869.311 269.54 871.403C273.124 873.495 276.25 872.993 278.917 869.896C281.001 867.47 283.377 866.005 286.045 865.503C288.795 865.001 291.255 865.336 293.422 866.507C295.589 867.679 297.423 869.269 298.924 871.277C300.507 873.202 301.258 875.545 301.174 878.306C301.091 881.068 300.049 883.662 298.048 886.089C292.963 892.114 286.586 895.837 278.917 897.26C271.415 898.599 264.246 897.302 257.411 893.369C250.492 889.52 245.115 883.704 241.281 875.921C237.53 868.307 235.654 860.399 235.654 852.198C235.821 843.914 237.655 835.964 241.156 828.349C244.824 820.483 249.95 814.458 256.536 810.274C263.454 805.671 270.873 804.081 278.792 805.504C286.795 806.843 293.672 810.985 299.424 817.931C301.424 820.357 302.425 822.952 302.425 825.713C302.425 828.474 301.633 830.818 300.049 832.742C298.548 834.667 296.673 836.257 294.422 837.512C292.255 838.684 289.837 839.018 287.17 838.516C284.502 837.93 282.168 836.424 280.168 833.997Z" fill="white"/>
<path d="M369.921 818.935C370.254 836.675 370.088 857.93 369.421 882.7C369.337 885.879 368.42 888.557 366.67 890.733C364.919 892.909 362.794 894.248 360.293 894.75C357.876 895.252 355.458 895.252 353.041 894.75C350.623 894.248 348.581 892.951 346.914 890.858C345.247 888.766 344.413 886.172 344.413 883.076L344.288 862.993L329.534 863.118L329.659 883.578C329.659 887.428 328.408 890.524 325.907 892.867C323.49 895.126 320.572 896.256 317.155 896.256C313.904 896.256 311.028 895.126 308.527 892.867C306.026 890.524 304.734 887.511 304.651 883.829C304.317 865.922 304.484 844.374 305.151 819.186C305.318 815.253 306.693 812.24 309.277 810.148C311.945 807.889 314.821 806.801 317.905 806.885C321.239 806.885 324.115 808.098 326.533 810.525C329.033 812.868 330.242 815.964 330.159 819.813L329.784 838.014L344.538 837.889L344.913 818.307C345.08 813.119 347.206 809.521 351.29 807.512C355.375 805.42 359.459 805.504 363.544 807.763C367.629 809.939 369.754 813.663 369.921 818.935Z" fill="white"/>
<path d="M370.623 884.206C371.29 863.788 373.999 846.215 378.751 831.487C381.335 823.621 384.836 817.47 389.254 813.035C393.672 808.517 398.757 806.174 404.509 806.006C410.76 805.755 416.262 807.805 421.014 812.157C425.848 816.508 429.641 822.659 432.392 830.608C437.477 845.42 440.353 863.495 441.02 884.833C441.103 888.013 440.311 890.733 438.644 892.992C436.977 895.168 434.893 896.507 432.392 897.009C429.975 897.511 427.516 897.511 425.015 897.009C422.514 896.591 420.388 895.294 418.638 893.118C416.887 890.942 416.012 888.264 416.012 885.085L395.631 884.959C395.464 888.892 394.047 891.946 391.38 894.122C388.712 896.298 385.836 897.302 382.752 897.135C379.668 897.051 376.833 895.879 374.249 893.62C371.749 891.193 370.54 888.055 370.623 884.206ZM397.757 859.855L414.012 859.98C412.178 846.926 409.385 837.805 405.634 832.617C402.133 838.223 399.507 847.303 397.757 859.855Z" fill="white"/>
<path d="M484.737 869.896C486.821 867.47 489.197 866.005 491.864 865.503C494.615 865.001 497.074 865.336 499.242 866.507C501.409 867.679 503.243 869.269 504.743 871.277C506.327 873.202 507.077 875.545 506.994 878.306C506.911 881.068 505.869 883.662 503.868 886.089C502.034 888.432 499.825 890.44 497.241 892.114C498.491 895.628 498.867 899.31 498.366 903.16C497.866 907.093 496.908 910.649 495.491 913.829C494.073 917.092 491.781 919.77 488.613 921.862C485.529 923.954 481.986 925 477.985 925C475.651 925 473.651 924.331 471.983 922.992C470.4 921.737 469.399 920.147 468.982 918.222C468.649 916.381 468.649 914.498 468.982 912.574C469.399 910.733 470.4 909.143 471.983 907.804C473.651 906.549 475.693 905.921 478.11 905.921C479.861 905.921 481.028 904.875 481.611 902.783C482.195 900.775 481.986 899.059 480.986 897.637C474.818 898.055 468.899 896.632 463.231 893.369C456.312 889.52 450.935 883.704 447.101 875.921C443.35 868.307 441.474 860.399 441.474 852.198C441.641 843.914 443.475 835.964 446.976 828.349C450.643 820.483 455.77 814.458 462.355 810.274C469.274 805.671 476.693 804.081 484.612 805.504C492.615 806.843 499.492 810.985 505.244 817.931C507.244 820.357 508.244 822.952 508.244 825.713C508.244 828.474 507.453 830.818 505.869 832.742C504.368 834.667 502.493 836.257 500.242 837.512C498.075 838.684 495.657 839.018 492.99 838.516C490.322 837.93 487.988 836.424 485.988 833.997C482.82 829.981 479.402 829.186 475.734 831.612C471.983 834.039 469.358 837.972 467.857 843.411C466.357 848.934 466.273 854.415 467.607 859.855C469.024 865.461 471.608 869.311 475.359 871.403C478.944 873.495 482.07 872.993 484.737 869.896Z" fill="white"/>
<path d="M506.598 884.206C507.264 863.788 509.974 846.215 514.725 831.487C517.309 823.621 520.81 817.47 525.228 813.035C529.646 808.517 534.731 806.174 540.483 806.006C546.735 805.755 552.236 807.805 556.988 812.157C561.823 816.508 565.616 822.659 568.366 830.608C573.451 845.42 576.327 863.495 576.994 884.833C577.077 888.013 576.285 890.733 574.618 892.992C572.951 895.168 570.867 896.507 568.366 897.009C565.949 897.511 563.49 897.511 560.989 897.009C558.488 896.591 556.363 895.294 554.612 893.118C552.862 890.942 551.986 888.264 551.986 885.085L531.605 884.959C531.438 888.892 530.021 891.946 527.354 894.122C524.686 896.298 521.81 897.302 518.726 897.135C515.642 897.051 512.808 895.879 510.224 893.62C507.723 891.193 506.514 888.055 506.598 884.206ZM533.731 859.855L549.986 859.98C548.152 846.926 545.359 837.805 541.608 832.617C538.107 838.223 535.481 847.303 533.731 859.855Z" fill="white"/>
<path d="M469.841 709C481.702 709 490.806 713.045 497.154 721.136C503.669 729.226 506.843 739.861 506.676 753.039C506.676 766.885 503.418 778.103 496.903 786.694C490.555 795.285 481.493 799.58 469.716 799.58C457.939 799.664 448.918 795.452 442.654 786.944C436.306 778.27 433.09 767.302 433.007 754.04C432.839 740.445 435.888 729.56 442.153 721.386C448.5 713.129 457.73 709 469.841 709ZM469.716 731.395C465.957 731.562 463.034 733.772 460.946 738.026C458.941 742.196 457.855 747.326 457.688 753.414C457.605 759.587 458.607 764.841 460.695 769.178C462.783 773.516 465.748 775.643 469.59 775.559C473.767 775.559 476.941 773.307 479.112 768.803C481.284 764.299 482.286 759.044 482.119 753.039C482.036 747.451 480.866 742.446 478.611 738.026C476.44 733.772 473.474 731.562 469.716 731.395Z" fill="white"/>
<path d="M535.399 722.262L535.274 722.762C535.274 723.096 535.232 723.596 535.148 724.264C535.148 724.847 535.148 725.473 535.148 726.14C535.148 726.224 535.065 728.559 534.898 733.146C534.814 737.734 534.731 741.612 534.647 744.782C534.647 753.456 535.315 760.879 536.652 767.052C538.072 773.14 540.327 776.101 543.417 775.934C545.839 775.851 547.802 774.475 549.306 771.806C550.809 769.137 551.728 765.467 552.062 760.796C552.396 756.709 552.563 752.205 552.563 747.284C552.563 742.863 552.438 737.984 552.187 732.646C551.937 726.891 551.853 723.096 551.937 721.261C552.02 718.175 552.939 715.589 554.693 713.504C556.447 711.419 558.535 710.168 560.957 709.751C563.463 709.25 565.927 709.292 568.349 709.876C570.772 710.376 572.818 711.752 574.489 714.004C576.243 716.173 577.078 718.842 576.994 722.012V757.043C576.911 765.3 575.783 772.556 573.612 778.812C571.44 785.234 567.848 790.447 562.837 794.451C557.825 798.454 551.77 800.623 544.67 800.957C533.645 801.457 525.334 797.62 519.738 789.446C514.81 781.773 511.803 771.597 510.717 758.919C510.383 755.083 510.132 750.829 509.965 746.158C509.882 742.238 509.965 735.482 510.216 725.89L510.341 721.886C510.425 718.717 511.344 716.09 513.098 714.004C514.852 711.836 516.94 710.543 519.362 710.126C521.868 709.626 524.332 709.667 526.754 710.251C529.26 710.752 531.348 712.086 533.018 714.255C534.689 716.423 535.482 719.092 535.399 722.262Z" fill="white"/>
<g filter="url(#filter0_d_1160_4)">
<path d="M141.762 770.131L127.161 770.507V779.168C127.245 781.679 127.287 784.482 127.287 787.578C127.287 790.758 126.406 793.436 124.644 795.611C122.966 797.787 120.868 799.126 118.35 799.628C115.917 800.13 113.442 800.13 110.924 799.628C108.491 799.126 106.393 797.829 104.631 795.737C102.952 793.561 102.113 790.925 102.113 787.829C101.862 764.147 102.029 742.516 102.617 722.935C102.701 719.42 103.959 716.491 106.393 714.148C108.826 711.805 111.805 710.55 115.33 710.382C126.993 709.797 137.902 709.629 148.056 709.88C151.832 709.964 154.936 711.219 157.37 713.646C159.803 716.073 161.062 718.876 161.146 722.056C161.23 725.236 160.139 728.081 157.873 730.591C155.692 733.102 152.713 734.524 148.937 734.859C145.161 735.194 138.028 735.403 127.539 735.487C127.539 736.24 127.497 737.913 127.413 740.508C127.413 743.102 127.413 744.733 127.413 745.403C127.916 745.403 130.098 745.319 133.958 745.152C137.818 744.984 140 744.901 140.503 744.901C146.965 744.901 151.286 747.369 153.468 752.307C155.314 756.407 155.02 760.424 152.587 764.357C150.237 768.206 146.629 770.131 141.762 770.131Z" fill="white"/>
<path d="M155.46 788.206C156.131 767.787 158.859 750.215 163.642 735.487C166.243 727.621 169.767 721.47 174.215 717.035C178.662 712.516 183.781 710.173 189.571 710.006C195.864 709.755 201.402 711.805 206.185 716.156C211.052 720.508 214.87 726.658 217.639 734.608C222.758 749.42 225.653 767.495 226.324 788.833C226.408 792.013 225.611 794.733 223.933 796.992C222.255 799.168 220.157 800.507 217.639 801.009C215.206 801.511 212.731 801.511 210.213 801.009C207.696 800.59 205.556 799.293 203.794 797.118C202.032 794.942 201.151 792.264 201.151 789.084L180.634 788.959C180.466 792.892 179.04 795.946 176.354 798.122C173.669 800.297 170.774 801.302 167.669 801.134C164.565 801.051 161.712 799.879 159.11 797.62C156.593 795.193 155.376 792.055 155.46 788.206ZM182.774 763.854L199.137 763.98C197.291 750.926 194.48 741.805 190.703 736.616C187.179 742.223 184.536 751.302 182.774 763.854Z" fill="white"/>
<path d="M274.109 773.896C276.206 771.469 278.598 770.005 281.283 769.503C284.052 769.001 286.528 769.336 288.709 770.507C290.891 771.679 292.737 773.269 294.248 775.277C295.842 777.202 296.597 779.545 296.513 782.306C296.429 785.068 295.38 787.662 293.366 790.088C291.52 792.431 289.297 794.44 286.695 796.113C287.954 799.628 288.332 803.31 287.828 807.159C287.325 811.092 286.36 814.649 284.933 817.829C283.507 821.092 281.199 823.77 278.01 825.862C274.906 827.954 271.339 829 267.312 829C264.962 829 262.948 828.331 261.27 826.992C259.676 825.736 258.669 824.147 258.249 822.222C257.913 820.381 257.913 818.498 258.249 816.573C258.669 814.732 259.676 813.142 261.27 811.804C262.948 810.548 265.004 809.921 267.437 809.921C269.2 809.921 270.374 808.875 270.962 806.783C271.549 804.774 271.339 803.059 270.332 801.636C264.123 802.055 258.165 800.632 252.459 797.369C245.494 793.519 240.082 787.704 236.222 779.921C232.446 772.306 230.558 764.398 230.558 756.198C230.726 747.913 232.572 739.964 236.096 732.349C239.788 724.483 244.949 718.458 251.578 714.274C258.543 709.671 266.011 708.081 273.983 709.504C282.038 710.843 288.961 714.985 294.751 721.93C296.765 724.357 297.772 726.951 297.772 729.713C297.772 732.474 296.975 734.817 295.38 736.742C293.87 738.667 291.982 740.257 289.716 741.512C287.535 742.683 285.101 743.018 282.416 742.516C279.731 741.93 277.381 740.424 275.367 737.997C272.179 733.98 268.738 733.185 265.046 735.612C261.27 738.039 258.627 741.972 257.116 747.411C255.606 752.934 255.522 758.415 256.864 763.854C258.291 769.461 260.892 773.31 264.668 775.402C268.277 777.494 271.423 776.992 274.109 773.896Z" fill="white"/>
<path d="M299.89 788.206C300.561 767.787 303.289 750.215 308.072 735.487C310.673 727.621 314.197 721.47 318.645 717.035C323.092 712.516 328.211 710.173 334.001 710.006C340.294 709.755 345.832 711.805 350.615 716.156C355.482 720.508 359.3 726.658 362.069 734.608C367.188 749.42 370.083 767.495 370.754 788.833C370.838 792.013 370.041 794.733 368.363 796.992C366.685 799.168 364.587 800.507 362.069 801.009C359.636 801.511 357.16 801.511 354.643 801.009C352.126 800.59 349.986 799.293 348.224 797.118C346.462 794.942 345.581 792.264 345.581 789.084L325.064 788.959C324.896 792.892 323.47 795.946 320.784 798.122C318.099 800.297 315.204 801.302 312.099 801.134C308.995 801.051 306.142 799.879 303.54 797.62C301.023 795.193 299.806 792.055 299.89 788.206ZM327.204 763.854L343.567 763.98C341.721 750.926 338.909 741.805 335.133 736.616C331.609 742.223 328.966 751.302 327.204 763.854Z" fill="white"/>
</g>
<path d="M154 228H389.267L355.291 571.7C308.952 607.672 226.251 603.664 188.17 570.467L154 228Z" fill="white"/>
<path fill-rule="evenodd" clip-rule="evenodd" d="M386.626 267.145C386.628 267.147 386.631 267.148 386.634 267.149L394.386 248.757C394.384 248.756 394.381 248.755 394.379 248.754C385.081 244.833 376.7 239.232 369.605 232.316C362.125 225.025 356.076 216.274 351.89 206.494C343.733 187.434 343.289 165.953 350.652 146.572C358.015 127.192 372.611 111.425 391.367 102.59C410.122 93.7557 431.574 92.5431 451.205 99.2077C470.837 105.872 487.116 119.894 496.617 138.321C506.117 156.748 508.097 178.143 502.14 198C496.182 217.858 482.752 234.629 464.677 244.783C455.402 249.994 445.275 253.253 434.902 254.484C425.061 255.651 414.999 254.992 405.234 252.439L400.187 271.75C409.252 274.119 418.521 275.183 427.73 274.975C432.508 274.867 437.27 274.417 441.979 273.629C453.282 271.737 464.278 267.901 474.453 262.185C497.035 249.498 513.814 228.545 521.257 203.736C528.7 178.926 526.226 152.197 514.357 129.175C502.487 106.153 482.148 88.6345 457.621 80.308C433.095 71.9814 406.294 73.4964 382.861 84.534C359.429 95.5715 341.194 115.27 331.994 139.483C322.795 163.696 323.349 190.534 333.541 214.347C338.133 225.076 344.52 234.814 352.335 243.196C355.591 246.688 359.095 249.944 362.82 252.939C369.997 258.708 377.995 263.507 386.626 267.145Z" fill="#FFF323"/>
<circle cx="425.764" cy="174.474" r="21" fill="#FFF323"/>
<path fill-rule="evenodd" clip-rule="evenodd" d="M420.763 165.807V78.4745H430.763V165.807L506.26 122.146L511.266 130.803L435.75 174.474L511.266 218.146L506.26 226.803L430.763 183.142V270.474H420.763V183.142L345.266 226.803L340.26 218.146L415.775 174.474L340.26 130.803L345.266 122.146L420.763 165.807Z" fill="#FFF323"/>
<path fill-rule="evenodd" clip-rule="evenodd" d="M356.877 690.534H191.995C177.279 690.534 174.472 681.773 173.076 667.121L133 210.526H410.014L369.824 667.819C369.814 668.298 369.811 668.83 369.808 669.405C369.771 676.319 369.7 689.381 356.877 690.534ZM389.294 228.389H154.027L188.198 570.856C226.279 604.053 308.979 608.061 355.318 572.089L389.294 228.389Z" fill="black"/>
<path d="M360.12 320.873H218.96L225.288 531.509L205.964 320.873H183.346L209.306 560.78C209.306 560.78 270.378 599.396 334.127 560.78" fill="black"/>
<path fill-rule="evenodd" clip-rule="evenodd" d="M378.5 755C378.5 748.096 384.096 742.5 391 742.5H411C417.904 742.5 423.5 748.096 423.5 755C423.5 761.904 417.904 767.5 411 767.5H391C384.096 767.5 378.5 761.904 378.5 755Z" fill="white"/>
<defs>
<filter id="filter0_d_1160_4" x="98" y="709" width="276.76" height="128" filterUnits="userSpaceOnUse" color-interpolation-filters="sRGB">
<feFlood flood-opacity="0" result="BackgroundImageFix"/>
<feColorMatrix in="SourceAlpha" type="matrix" values="0 0 0 0 0 0 0 0 0 0 0 0 0 0 0 0 0 0 127 0" result="hardAlpha"/>
<feOffset dy="4"/>
<feGaussianBlur stdDeviation="2"/>
<feComposite in2="hardAlpha" operator="out"/>
<feColorMatrix type="matrix" values="0 0 0 0 0 0 0 0 0 0 0 0 0 0 0 0 0 0 0.5 0"/>
<feBlend mode="normal" in2="BackgroundImageFix" result="effect1_dropShadow_1160_4"/>
<feBlend mode="normal" in="SourceGraphic" in2="effect1_dropShadow_1160_4" result="shape"/>
</filter>
</defs>
</svg>
