<svg width="50" height="49" viewBox="0 0 50 49" fill="none" xmlns="http://www.w3.org/2000/svg">
<g opacity="0.25">
<path d="M25.7965 28.9912L41.4199 33.1774L39.15 41.6485L30.1011 44.1727L23.5266 37.4623L25.7965 28.9912Z" stroke="white" stroke-width="2.43509"/>
<path fill-rule="evenodd" clip-rule="evenodd" d="M48.1948 21.2501C47.9793 20.9412 47.6817 20.6997 47.3357 20.5532C46.9898 20.4067 46.6096 20.3611 46.2384 20.4216L41.0975 21.2475L39.7101 15.6507C39.6239 15.2996 39.4457 14.9784 39.194 14.7206C38.9423 14.4628 38.6264 14.2777 38.2789 14.1846C37.9315 14.0916 37.5653 14.0938 37.2185 14.1913C36.8716 14.2887 36.5567 14.4777 36.3065 14.7387L32.3065 18.892L28.2673 15.6064C27.9776 15.3661 27.6262 15.2128 27.2534 15.1642C26.8805 15.1155 26.5012 15.1734 26.1589 15.3312C25.8165 15.489 25.5249 15.7404 25.3173 16.0565C25.1098 16.3727 24.9947 16.741 24.9852 17.1192L24.6118 28.3926C24.5993 28.8507 24.7408 29.2991 25.0134 29.6654C25.2859 30.0316 25.6737 30.2943 26.1139 30.4109C26.2889 30.4563 26.4695 30.4765 26.6503 30.4707L40.1967 34.1003C40.4298 34.2398 40.6886 34.3304 40.9577 34.3666C41.2267 34.4028 41.5004 34.3838 41.7624 34.3109C42.0244 34.238 42.2691 34.1127 42.482 33.9423C42.6949 33.772 42.8715 33.5603 43.0012 33.3199L48.3244 23.3727C48.5029 23.0416 48.5854 22.667 48.5625 22.2917C48.5396 21.9164 48.4122 21.5554 48.1948 21.2501ZM27.3728 18.0107L27.0517 28.0391L41.0746 31.7965L45.8108 22.9511L41.1061 23.705C40.6083 23.7865 40.0988 23.6765 39.6792 23.3968C39.2597 23.1172 38.9608 22.6884 38.8422 22.196L37.5388 16.9469L33.7854 20.8411C33.4365 21.2082 32.9633 21.4301 32.4601 21.4625C31.9569 21.4949 31.4606 21.3354 31.0703 21.0159L27.3728 18.0107Z" fill="#FFF323"/>
<path d="M27.2447 35.287C27.3135 35.0304 27.4321 34.7899 27.5938 34.5791C27.7555 34.3684 27.9571 34.1916 28.1872 34.0587C28.4172 33.9259 28.6712 33.8397 28.9346 33.8051C29.1979 33.7704 29.4655 33.7879 29.7221 33.8567C29.9787 33.9254 30.2192 34.044 30.43 34.2057C30.6407 34.3675 30.8175 34.5691 30.9504 34.7991C31.0832 35.0292 31.1694 35.2831 31.2041 35.5465C31.2387 35.8098 31.2212 36.0774 31.1524 36.334L29.1986 35.8105L27.2447 35.287Z" fill="white"/>
<path d="M32.4556 36.683C32.5244 36.4264 32.643 36.1859 32.8047 35.9751C32.9664 35.7644 33.1681 35.5876 33.3981 35.4547C33.6282 35.3219 33.8821 35.2357 34.1455 35.2011C34.4089 35.1664 34.6765 35.1839 34.9331 35.2527C35.1896 35.3214 35.4302 35.44 35.6409 35.6017C35.8517 35.7634 36.0285 35.9651 36.1613 36.1951C36.2941 36.4252 36.3803 36.6791 36.415 36.9425C36.4497 37.2058 36.4321 37.4734 36.3634 37.73L34.4095 37.2065L32.4556 36.683Z" fill="white"/>
</g>
<path d="M5.51678 24.852H28.3132V37.2124L16.915 43.9495L5.51678 37.2124V24.852Z" stroke="white" stroke-width="3.43201"/>
<path fill-rule="evenodd" clip-rule="evenodd" d="M33.1836 6.14401C32.7776 5.80206 32.2843 5.5819 31.7599 5.50866C31.2355 5.43541 30.7012 5.51203 30.2181 5.72978L23.5207 8.72936L19.5902 1.61606C19.3448 1.16955 18.985 0.797363 18.5483 0.538194C18.1117 0.279024 17.614 0.142334 17.107 0.142334C16.6001 0.142334 16.1024 0.279024 15.6658 0.538194C15.2291 0.797363 14.8693 1.16955 14.6239 1.61606L10.6934 8.72936L3.99603 5.72978C3.51398 5.50832 2.97975 5.42787 2.45442 5.49763C1.92909 5.56739 1.43385 5.78453 1.02534 6.12425C0.616817 6.46396 0.311499 6.91254 0.144284 7.41869C-0.0229304 7.92483 -0.0452928 8.46813 0.0797533 8.98647L3.68386 24.47C3.83394 25.0982 4.19012 25.6571 4.6948 26.0563C5.19948 26.4554 5.82316 26.6716 6.46499 26.6697C6.71979 26.6678 6.97301 26.6293 7.21703 26.5555H26.9829C27.351 26.6603 27.7364 26.6892 28.1159 26.6403C28.4954 26.5915 28.8611 26.4659 29.1911 26.2711C29.5212 26.0763 29.8087 25.8163 30.0364 25.5068C30.264 25.1973 30.4272 24.8446 30.516 24.47L34.1343 8.98647C34.2566 8.47061 34.2322 7.93054 34.0641 7.42793C33.896 6.92532 33.5909 6.48042 33.1836 6.14401ZM3.65548 9.32928L6.87648 23.0988H27.3376L30.5586 9.32928L24.4288 12.0718C23.7808 12.3644 23.0471 12.4004 22.3739 12.1728C21.7006 11.9451 21.1374 11.4704 20.7963 10.8434L17.107 4.17285L13.4178 10.8434C13.0767 11.4704 12.5135 11.9451 11.8402 12.1728C11.167 12.4004 10.4333 12.3644 9.78531 12.0718L3.65548 9.32928Z" fill="#FFF323"/>
<path d="M15.9655 30.5481C15.9655 30.9225 15.8918 31.2932 15.7485 31.6391C15.6052 31.985 15.3952 32.2992 15.1305 32.564C14.8658 32.8287 14.5515 33.0387 14.2056 33.182C13.8597 33.3252 13.489 33.399 13.1146 33.399C12.7402 33.399 12.3695 33.3252 12.0236 33.182C11.6777 33.0387 11.3634 32.8287 11.0987 32.564C10.834 32.2992 10.624 31.985 10.4807 31.6391C10.3374 31.2932 10.2637 30.9225 10.2637 30.5481L13.1146 30.5481H15.9655Z" fill="white"/>
<path d="M23.569 30.5481C23.569 30.9225 23.4953 31.2932 23.352 31.6391C23.2087 31.985 22.9987 32.2992 22.734 32.564C22.4693 32.8287 22.155 33.0387 21.8091 33.182C21.4632 33.3252 21.0925 33.399 20.7181 33.399C20.3437 33.399 19.973 33.3252 19.6271 33.182C19.2812 33.0387 18.9669 32.8287 18.7022 32.564C18.4375 32.2992 18.2275 31.985 18.0842 31.6391C17.9409 31.2932 17.8672 30.9225 17.8672 30.5481L20.7181 30.5481H23.569Z" fill="white"/>
</svg>
