<svg width="32" height="50" viewBox="0 0 32 50" fill="none" xmlns="http://www.w3.org/2000/svg">
<path d="M1.70508 12.4282H20.8158L18.056 40.3471C14.2918 43.269 7.57406 42.9435 4.48075 40.2469L1.70508 12.4282Z" fill="white"/>
<path fill-rule="evenodd" clip-rule="evenodd" d="M20.6021 15.608C20.6023 15.6081 20.6025 15.6082 20.6027 15.6083L21.2325 14.1143C21.2323 14.1142 21.2321 14.1141 21.2319 14.1141C20.4766 13.7956 19.7958 13.3406 19.2195 12.7788C18.6119 12.1866 18.1205 11.4757 17.7805 10.6812C17.1179 9.13303 17.0818 7.3881 17.6799 5.81383C18.2781 4.23957 19.4637 2.95879 20.9872 2.24116C22.5107 1.52353 24.2532 1.42503 25.8479 1.9664C27.4426 2.50777 28.765 3.64677 29.5367 5.1436C30.3084 6.64044 30.4692 8.37831 29.9853 9.99134C29.5014 11.6044 28.4105 12.9667 26.9422 13.7915C26.1888 14.2148 25.3662 14.4796 24.5236 14.5795C23.7242 14.6743 22.9069 14.6208 22.1136 14.4134L21.7037 15.982C22.44 16.1745 23.1929 16.2609 23.941 16.244C24.3291 16.2352 24.716 16.1987 25.0985 16.1347C26.0166 15.981 26.9098 15.6694 27.7363 15.205C29.5707 14.1745 30.9336 12.4725 31.5382 10.4572C32.1428 8.44197 31.9419 6.27073 30.9777 4.40065C30.0136 2.53056 28.3614 1.10754 26.3691 0.431169C24.3768 -0.245199 22.1997 -0.122137 20.2963 0.774446C18.3929 1.67103 16.9116 3.27118 16.1644 5.23801C15.4171 7.20483 15.4621 9.38488 16.29 11.3192C16.663 12.1907 17.1818 12.9817 17.8167 13.6626C18.0811 13.9462 18.3658 14.2107 18.6684 14.454C19.2513 14.9227 19.901 15.3124 20.6021 15.608Z" fill="#FFF323"/>
<circle cx="23.782" cy="8.08035" r="1.70583" fill="#FFF323"/>
<path fill-rule="evenodd" clip-rule="evenodd" d="M23.3752 7.37627V0.282227H24.1875V7.37627L30.3202 3.82969L30.7268 4.53287L24.5927 8.08033L30.7268 11.6278L30.3202 12.331L24.1875 8.78439V15.8784H23.3752V8.78439L17.2426 12.331L16.8359 11.6278L22.9701 8.08033L16.8359 4.53287L17.2426 3.82969L23.3752 7.37627Z" fill="#FFF323"/>
<path fill-rule="evenodd" clip-rule="evenodd" d="M18.1855 50H4.79219C3.59678 50 3.36877 49.2883 3.25542 48.0982L0 11.0088H22.5019L19.2373 48.1548C19.2365 48.1938 19.2362 48.237 19.236 48.2837C19.2329 48.8453 19.2272 49.9063 18.1855 50ZM20.8188 12.4599H1.70806L4.48373 40.2785C7.57704 42.9751 14.2948 43.3007 18.059 40.3787L20.8188 12.4599Z" fill="black"/>
<path d="M18.4493 19.9722H6.98282L7.49683 37.0822L5.92711 19.9722H4.08984L6.19862 39.4599C6.19862 39.4599 11.1595 42.5967 16.3379 39.4599" fill="black"/>
</svg>
