<svg width="50" height="50" viewBox="0 0 50 50" fill="none" xmlns="http://www.w3.org/2000/svg">
<circle cx="8.02758" cy="33.1269" r="5.77367" fill="#FFF323"/>
<circle cx="41.635" cy="33.1269" r="5.77367" fill="#FFF323"/>
<mask id="path-3-inside-1_1248_17" fill="white">
<path d="M5.69483 9.11571C1.62394 14.0633 -0.391993 20.3851 0.0631618 26.776C0.518317 33.1669 3.40982 39.1391 8.14079 43.4599C12.8718 47.7806 19.0811 50.1201 25.487 49.9953C31.8929 49.8705 38.0063 47.291 42.5654 42.7892C47.1245 38.2875 49.7812 32.2071 49.9871 25.8033C50.193 19.3996 47.9323 13.1611 43.6718 8.37584C39.4113 3.59054 33.4762 0.623667 27.0915 0.0876428C20.7069 -0.448381 14.3601 1.48736 9.36138 5.4953L10.9252 7.44577C15.4241 3.83863 21.1362 2.09646 26.8824 2.57888C32.6285 3.0613 37.9702 5.73149 41.8046 10.0383C45.6391 14.345 47.6737 19.9596 47.4884 25.723C47.3031 31.4864 44.9121 36.9587 40.8089 41.0103C36.7057 45.0619 31.2036 47.3834 25.4383 47.4957C19.673 47.6081 14.0846 45.5026 9.82671 41.6139C5.56884 37.7252 2.96649 32.3502 2.55685 26.5984C2.14721 20.8466 3.96155 15.157 7.62535 10.7041L5.69483 9.11571Z"/>
</mask>
<path d="M5.69483 9.11571C1.62394 14.0633 -0.391993 20.3851 0.0631618 26.776C0.518317 33.1669 3.40982 39.1391 8.14079 43.4599C12.8718 47.7806 19.0811 50.1201 25.487 49.9953C31.8929 49.8705 38.0063 47.291 42.5654 42.7892C47.1245 38.2875 49.7812 32.2071 49.9871 25.8033C50.193 19.3996 47.9323 13.1611 43.6718 8.37584C39.4113 3.59054 33.4762 0.623667 27.0915 0.0876428C20.7069 -0.448381 14.3601 1.48736 9.36138 5.4953L10.9252 7.44577C15.4241 3.83863 21.1362 2.09646 26.8824 2.57888C32.6285 3.0613 37.9702 5.73149 41.8046 10.0383C45.6391 14.345 47.6737 19.9596 47.4884 25.723C47.3031 31.4864 44.9121 36.9587 40.8089 41.0103C36.7057 45.0619 31.2036 47.3834 25.4383 47.4957C19.673 47.6081 14.0846 45.5026 9.82671 41.6139C5.56884 37.7252 2.96649 32.3502 2.55685 26.5984C2.14721 20.8466 3.96155 15.157 7.62535 10.7041L5.69483 9.11571Z" stroke="white" stroke-width="7.52005" stroke-linejoin="round" mask="url(#path-3-inside-1_1248_17)"/>
<circle cx="32.8684" cy="22.1568" r="4.72391" fill="white"/>
<circle cx="17.2786" cy="22.1568" r="4.72391" fill="white"/>
<path d="M19.168 37.2839H24.9416H30.7153" stroke="white" stroke-width="4.12018" stroke-linecap="round"/>
<path d="M11.807 13.8639C14.9637 11.1405 16.9358 10.6395 20.7735 11.7531" stroke="white" stroke-width="2.0889" stroke-linecap="round"/>
<path d="M38.15 13.9552C34.9933 11.2318 33.0212 10.7308 29.1835 11.8444" stroke="white" stroke-width="2.0889" stroke-linecap="round"/>
</svg>
