<svg width="32" height="50" viewBox="0 0 32 50" fill="none" xmlns="http://www.w3.org/2000/svg">
<path d="M19.7072 43.5273C26.582 41.7992 31.6723 35.5739 31.6723 28.1591C31.6723 20.7442 26.582 14.519 19.7072 12.7908V15.1733C25.3437 16.8245 29.4603 22.0359 29.4603 28.2094C29.4603 34.3828 25.3437 39.5943 19.7072 41.2454V43.5273Z" fill="white"/>
<path d="M11.6634 12.8698C4.94188 14.702 0 20.8531 0 28.1591C0 35.465 4.94188 41.6161 11.6634 43.4483V41.1207C6.23443 39.3442 2.31258 34.235 2.31258 28.2094C2.31258 22.1837 6.23443 17.0746 11.6634 15.298V12.8698Z" fill="white"/>
<path d="M13.6744 39.5616H17.6963V50H13.6744V39.5616Z" fill="#FFF323"/>
<path d="M21.9695 37.0465C21.9695 37.7132 21.4293 38.2537 20.7629 38.2537H10.5574C9.89107 38.2537 9.35087 37.7132 9.35087 37.0465C9.35087 36.3797 9.89107 35.8392 10.5574 35.8392H13.6744V7.812L15.6853 4.16511L17.6963 7.812V35.8392H20.7629C21.4293 35.8392 21.9695 36.3797 21.9695 37.0465Z" fill="#FFF323"/>
<path d="M19.7565 29.0453C20.4448 29.734 21.3783 30.1209 22.3516 30.1209C23.3249 30.1209 24.2584 29.734 24.9466 29.0453C25.6349 28.3567 26.0216 27.4227 26.0216 26.4488H23.487H20.5123H19.7072H18.6816C18.6816 27.3992 19.0498 28.3116 19.7072 28.995C19.7235 29.0119 19.7399 29.0287 19.7565 29.0453Z" fill="white"/>
<path d="M8.96276 30.0705C9.93609 30.0705 10.8696 29.6837 11.5578 28.995C11.5939 28.959 11.6291 28.9222 11.6634 28.8849C12.2855 28.2085 12.6327 27.3214 12.6327 26.3985H11.6634H10.802H7.82732H5.29279C5.29279 27.3724 5.67945 28.3064 6.3677 28.995C7.05595 29.6837 7.98942 30.0705 8.96276 30.0705Z" fill="white"/>
</svg>
