<svg width="682" height="1000" viewBox="0 0 682 1000" fill="none" xmlns="http://www.w3.org/2000/svg">
<rect y="0.00012207" width="681.818" height="1000" rx="90.9091" fill="black"/>
<path d="M280.941 825.923C280.941 828.711 280.838 841.355 280.631 863.856C280.425 886.358 280.322 899.002 280.322 901.79C280.322 905.573 279.237 908.759 277.067 911.348C275.001 913.936 272.418 915.529 269.318 916.127C266.322 916.724 263.274 916.724 260.175 916.127C257.178 915.529 254.596 913.986 252.426 911.497C250.36 908.908 249.326 905.772 249.326 902.088C249.326 897.309 249.275 893.078 249.171 889.394V876.7L239.408 891.186C236.412 895.866 232.072 898.205 226.39 898.205C220.811 898.205 216.472 895.816 213.372 891.037L202.989 875.804V889.245C203.092 893.128 203.144 897.558 203.144 902.536C203.144 906.32 202.059 909.506 199.889 912.094C197.823 914.683 195.24 916.276 192.14 916.873C189.144 917.471 186.096 917.471 182.997 916.873C180.001 916.276 177.418 914.733 175.248 912.244C173.182 909.655 172.148 906.519 172.148 902.835C172.148 899.948 172.252 887.154 172.458 864.454C172.665 841.555 172.768 828.711 172.768 825.923C172.975 820.846 174.886 817.062 178.502 814.573C182.428 811.885 186.716 811.039 191.365 812.034C196.015 812.93 199.682 815.569 202.369 819.95L226.39 855.643L254.131 815.32C255.99 812.632 258.47 810.989 261.569 810.392C264.772 809.794 267.769 810.093 270.558 811.288C273.451 812.383 275.931 814.274 277.997 816.963C280.063 819.651 281.045 822.638 280.941 825.923Z" fill="white"/>
<path d="M318.334 826.67C317.611 851.859 317.404 877.148 317.714 902.536C317.714 906.32 316.629 909.506 314.46 912.094C312.393 914.683 309.811 916.276 306.711 916.873C303.715 917.471 300.667 917.471 297.567 916.873C294.571 916.276 291.988 914.733 289.819 912.244C287.752 909.655 286.719 906.519 286.719 902.835C286.409 877.048 286.616 851.411 287.339 825.923C287.442 822.239 288.579 819.153 290.748 816.664C292.918 814.075 295.501 812.532 298.497 812.034C301.597 811.437 304.645 811.487 307.641 812.184C310.637 812.781 313.168 814.424 315.235 817.112C317.404 819.701 318.437 822.887 318.334 826.67Z" fill="white"/>
<path d="M376.173 851.76C387.434 853.353 394.098 854.348 396.165 854.747C402.57 856.34 406.29 859.476 407.323 864.155C407.736 866.047 407.736 868.436 407.323 871.324C406.29 878.193 405.515 886.557 404.998 896.413C404.895 900.694 402.932 904.577 399.109 908.062C395.287 911.447 390.431 913.936 384.542 915.529C379.169 917.122 373.28 917.67 366.874 917.172C360.469 916.774 355.045 915.38 350.602 912.99C341.82 908.311 335.156 901.491 330.61 892.53C325.961 883.47 323.636 874.062 323.636 864.305C323.843 854.348 326.116 844.84 330.455 835.78C335.001 826.322 341.355 819.153 349.517 814.274C358.092 808.799 367.288 806.907 377.103 808.599C387.125 810.292 395.648 815.171 402.674 823.235C405.153 826.122 406.393 829.209 406.393 832.494C406.496 835.78 405.567 838.617 403.604 841.007C401.744 843.297 399.419 845.139 396.63 846.533C393.943 847.927 390.896 848.325 387.486 847.727C384.18 847.03 381.287 845.238 378.807 842.351C373.125 835.382 367.908 834.784 363.155 840.559C358.919 845.437 356.594 852.905 356.181 862.96C355.561 873.912 357.627 881.628 362.38 886.109C365.893 889.494 370.697 890.091 376.793 887.901L377.723 880.284C371.214 880.284 366.668 877.447 364.085 871.772C361.708 866.594 361.812 861.815 364.395 857.435C366.771 853.054 370.697 851.162 376.173 851.76Z" fill="white"/>
<path d="M457.44 810.093C472.111 810.093 483.372 814.922 491.224 824.579C499.283 834.237 503.209 846.931 503.002 862.662C503.002 879.189 498.973 892.58 490.914 902.835C483.062 913.09 471.852 918.217 457.285 918.217C442.717 918.317 431.559 913.289 423.81 903.134C415.958 892.779 411.98 879.687 411.877 863.856C411.67 847.628 415.441 834.635 423.19 824.878C431.042 815.021 442.459 810.093 457.44 810.093ZM457.285 836.825C452.635 837.024 449.019 839.663 446.436 844.741C443.957 849.719 442.613 855.842 442.407 863.11C442.304 870.477 443.543 876.75 446.126 881.927C448.709 887.104 452.377 889.643 457.13 889.544C462.295 889.544 466.221 886.855 468.908 881.479C471.594 876.103 472.834 869.83 472.627 862.662C472.524 855.991 471.077 850.017 468.288 844.741C465.602 839.663 461.934 837.024 457.285 836.825Z" fill="white"/>
<path d="M550.423 838.767C548.356 836.875 546.187 835.879 543.914 835.78C541.641 835.68 539.574 836.726 537.715 838.916C536.268 841.505 537.715 844.243 542.054 847.13C542.57 847.528 546.032 849.52 552.437 853.104C562.252 858.878 569.123 864.056 573.049 868.635C578.008 874.41 579.868 881.728 578.628 890.589C577.698 897.757 574.65 903.681 569.485 908.361C564.215 913.14 558.326 916.176 551.817 917.471C545.308 919.064 538.386 919.412 531.051 918.516C523.715 917.62 517.464 915.579 512.299 912.393C504.963 908.012 501.605 902.437 502.225 895.667C502.845 890.39 505.428 886.457 509.974 883.868C515.553 880.583 521.235 881.18 527.021 885.661L528.726 887.005C532.549 890.29 536.268 892.182 539.884 892.68C543.604 893.178 546.342 891.983 548.098 889.096C549.028 886.706 548.408 884.565 546.238 882.674C544.069 880.782 539.833 878.343 533.53 875.356C524.025 870.876 517.258 866.594 513.228 862.512C508.476 857.634 506.151 850.664 506.254 841.604C506.461 833.639 508.992 826.919 513.848 821.443C519.014 815.768 525.007 812.084 531.825 810.392C538.851 808.5 546.135 808.201 553.677 809.496C561.529 810.889 567.935 813.826 572.894 818.307C577.957 822.787 579.248 827.815 576.768 833.39C574.805 837.97 571.241 841.007 566.075 842.5C560.496 844.093 555.278 842.849 550.423 838.767Z" fill="white"/>
<path d="M135.489 713.793C134.772 739.504 134.567 765.317 134.874 791.232C134.874 795.094 133.799 798.346 131.647 800.988C129.598 803.63 127.037 805.256 123.963 805.866C120.992 806.476 117.97 806.476 114.896 805.866C111.925 805.256 109.363 803.681 107.212 801.14C105.163 798.498 104.138 795.297 104.138 791.537C103.831 765.216 104.036 739.047 104.753 713.031C104.855 709.271 105.982 706.12 108.134 703.58C110.286 700.938 112.847 699.362 115.818 698.854C118.892 698.244 121.914 698.295 124.885 699.007C127.856 699.616 130.366 701.293 132.416 704.037C134.567 706.679 135.592 709.931 135.489 713.793Z" fill="white"/>
<path d="M226.039 713.183C225.937 716.435 225.834 722.635 225.732 731.781C225.732 740.927 225.732 747.685 225.732 752.055C225.732 756.527 225.681 761.608 225.578 767.299C225.578 772.888 225.527 777.563 225.425 781.323C225.425 785.083 225.425 788.183 225.425 790.622C225.732 795.5 224.041 799.413 220.353 802.36C216.665 805.307 212.413 806.476 207.598 805.866C202.782 805.358 199.094 803.071 196.533 799.006L171.636 762.269V776.75C171.739 781.018 171.79 785.846 171.79 791.232C171.79 795.094 170.714 798.346 168.563 800.988C166.514 803.63 163.952 805.256 160.879 805.866C157.908 806.476 154.885 806.476 151.812 805.866C148.841 805.256 146.279 803.681 144.128 801.14C142.079 798.498 141.054 795.297 141.054 791.537C141.054 788.59 141.156 775.531 141.361 752.36C141.566 728.986 141.669 715.876 141.669 713.031C141.771 708.153 143.667 704.291 147.355 701.446C151.043 698.499 155.193 697.431 159.803 698.244C164.413 699.057 167.948 701.547 170.407 705.714L194.688 741.537C194.791 740.317 194.842 738.031 194.842 734.677C194.945 731.222 194.996 728.681 194.996 727.055C195.201 718.315 195.303 713.437 195.303 712.421C195.406 708.661 196.533 705.511 198.684 702.97C200.836 700.328 203.397 698.753 206.368 698.244C209.442 697.635 212.464 697.686 215.435 698.397C218.407 699.007 220.917 700.683 222.966 703.427C225.117 706.07 226.142 709.322 226.039 713.183Z" fill="white"/>
<path d="M230.051 791.994C230.87 767.197 234.2 745.856 240.04 727.97C243.216 718.417 247.519 710.948 252.949 705.561C258.379 700.074 264.629 697.228 271.698 697.025C279.382 696.72 286.144 699.21 291.984 704.494C297.926 709.779 302.588 717.248 305.969 726.903C312.218 744.891 315.753 766.842 316.573 792.756C316.675 796.618 315.702 799.921 313.653 802.665C311.604 805.307 309.042 806.933 305.969 807.543C302.998 808.152 299.975 808.152 296.902 807.543C293.828 807.035 291.215 805.459 289.064 802.817C286.912 800.175 285.837 796.923 285.837 793.061L260.787 792.909C260.582 797.685 258.84 801.394 255.562 804.037C252.283 806.679 248.748 807.898 244.958 807.695C241.167 807.593 237.683 806.171 234.507 803.427C231.434 800.48 229.948 796.669 230.051 791.994ZM263.399 762.421L283.378 762.573C281.124 746.72 277.692 735.643 273.081 729.342C268.778 736.151 265.551 747.177 263.399 762.421Z" fill="white"/>
<path fill-rule="evenodd" clip-rule="evenodd" d="M327 752.5C327 745.596 332.852 740 340.071 740H565.929C573.148 740 579 745.596 579 752.5C579 759.404 573.148 765 565.929 765H340.071C332.852 765 327 759.404 327 752.5Z" fill="white"/>
<path fill-rule="evenodd" clip-rule="evenodd" d="M151.643 876L114.357 876C108.637 876 104 870.404 104 863.5C104 856.596 108.637 851 114.357 851L151.643 851C157.363 851 162 856.596 162 863.5C162 870.404 157.363 876 151.643 876Z" fill="white"/>
<path d="M386.333 536.364C467.731 515.902 528 442.195 528 354.403C528 266.612 467.731 192.905 386.333 172.443V200.652C453.069 220.202 501.81 281.905 501.81 354.999C501.81 428.093 453.069 489.796 386.333 509.346V536.364Z" fill="white"/>
<path d="M291.095 173.379C211.512 195.072 153 267.901 153 354.403C153 440.906 211.512 513.735 291.095 535.428V507.869C226.816 486.835 180.381 426.343 180.381 354.999C180.381 283.655 226.816 223.163 291.095 202.129V173.379Z" fill="white"/>
<path d="M314.905 489.409H362.524V613H314.905V489.409Z" fill="#FFF323"/>
<path d="M413.119 459.63C413.119 467.524 406.723 473.924 398.833 473.924H278C270.11 473.924 263.714 467.524 263.714 459.63C263.714 451.736 270.11 445.337 278 445.337H314.905V113.494L338.714 70.315L362.524 113.494V445.337H398.833C406.723 445.337 413.119 451.736 413.119 459.63Z" fill="#FFF323"/>
<path d="M386.917 364.897C395.066 373.05 406.119 377.631 417.643 377.631C429.167 377.631 440.219 373.05 448.368 364.897C456.517 356.743 461.095 345.685 461.095 334.154H431.086H395.866H386.333H374.19C374.19 345.406 378.55 356.209 386.333 364.301C386.526 364.501 386.721 364.7 386.917 364.897Z" fill="white"/>
<path d="M259.119 377.035C270.643 377.035 281.696 372.455 289.845 364.301C290.271 363.874 290.688 363.439 291.095 362.997C298.46 354.988 302.571 344.485 302.571 333.558H291.095H280.896H245.675H215.667C215.667 345.089 220.245 356.148 228.394 364.301C236.542 372.455 247.595 377.035 259.119 377.035Z" fill="white"/>
</svg>
