<svg width="821" height="126" viewBox="0 0 821 126" fill="none" xmlns="http://www.w3.org/2000/svg">
<path d="M240.428 79.5236C240.428 84.2889 238.966 87.8039 236.04 90.0686C233.162 92.2861 229.695 93.3948 225.637 93.3948C223.089 93.3948 220.683 92.9466 218.418 92.0502C216.154 91.1066 214.29 89.5968 212.827 87.5208C211.412 85.4448 210.704 82.7791 210.704 79.5236V56.7352C210.704 51.8756 212.025 48.1955 214.667 45.6949C217.357 43.1943 221.037 41.944 225.708 41.944C230.379 41.944 233.988 43.2651 236.536 45.9072C239.131 48.5494 240.428 52.1823 240.428 56.806V79.5236ZM232.643 59.3538C232.643 57.3722 232.478 55.7444 232.148 54.4706C231.818 53.1967 231.134 52.2059 230.096 51.4982C229.058 50.7433 227.548 50.3658 225.566 50.3658C223.585 50.3658 222.075 50.7197 221.037 51.4274C219.999 52.1351 219.315 53.1259 218.984 54.3998C218.654 55.6265 218.489 57.2542 218.489 59.283V78.179C218.489 80.4437 219.055 82.2365 220.188 83.5576C221.367 84.8315 223.16 85.4684 225.566 85.4684C227.784 85.4684 229.506 84.7843 230.732 83.4161C232.006 82.0478 232.643 80.2549 232.643 78.0374V59.3538Z" fill="white"/>
<path d="M280.119 43.0056V79.4529C280.119 84.2181 278.656 87.6859 275.731 89.8563C272.853 92.0266 269.362 93.1117 265.257 93.1117C261.152 93.1117 257.637 92.0266 254.712 89.8563C251.787 87.6859 250.324 84.2181 250.324 79.4529V43.0056H258.109V76.3389C258.109 79.5472 258.581 81.8827 259.524 83.3453C260.515 84.7607 262.402 85.4684 265.186 85.4684C268.017 85.4684 269.904 84.7607 270.848 83.3453C271.839 81.8827 272.334 79.5472 272.334 76.3389V43.0056H280.119Z" fill="white"/>
<path d="M11.6773 88.3715H0V14.0616H35.4565V25.7389H11.6773V44.5287H26.5393L22.7176 55.6752H11.6773V88.3715Z" fill="white"/>
<path d="M83.1981 88.3715H69.2916L64.9391 68.9448H47.8478L43.7077 88.3715H30.5442L47.954 14.0616H64.4083L83.1981 88.3715ZM62.179 56.5244L56.1281 33.5945L50.6079 56.5244H62.179Z" fill="white"/>
<path d="M97.5658 110.771L101.175 103.021C103.794 104.791 106.554 105.675 109.455 105.675C111.154 105.675 112.64 105.321 113.914 104.614C115.188 103.977 115.825 102.915 115.825 101.429C115.825 99.9427 115.117 98.9873 113.702 98.5626C113.348 98.4211 112.923 98.3503 112.428 98.3503C111.154 98.3503 109.632 98.7749 107.863 99.6242L103.192 101.96L99.4767 96.6518L105.634 88.7962C96.0796 86.7438 91.3026 80.1267 91.3026 68.9448V34.8684C91.3026 29.4897 92.0457 25.4204 93.5319 22.6603C95.0888 19.9002 97.4243 17.5648 100.538 15.6539C103.723 13.8846 107.509 13 111.897 13C112.322 13 112.782 13 113.277 13C118.231 13.2123 122.796 14.38 126.971 16.5032L123.681 27.1189C120.425 25.9158 116.851 25.3142 112.959 25.3142C109.986 25.3142 107.58 26.1281 105.74 27.7558C103.9 29.3836 102.98 31.436 102.98 33.913V68.7325C102.98 70.0064 103.121 71.1741 103.404 72.2357C103.688 73.2265 104.148 74.0403 104.785 74.6773C105.421 75.3142 106.058 75.8804 106.695 76.3758C107.332 76.8712 108.217 77.1897 109.349 77.3312C110.482 77.4728 111.437 77.6143 112.216 77.7558C112.994 77.8266 114.056 77.7558 115.4 77.5435C116.816 77.3312 117.913 77.1897 118.691 77.1189C119.47 76.9774 120.567 76.7297 121.982 76.3758C123.468 76.0219 124.494 75.7742 125.061 75.6327C125.627 75.4912 126.547 75.2435 127.821 74.8896L129.625 85.9299C123.822 88.1946 118.125 89.3623 112.534 89.4331L110.517 92.4055C111.862 91.9101 113.065 91.6624 114.126 91.6624C116.533 91.6624 118.656 92.5117 120.496 94.2102C122.336 95.9795 123.256 98.3857 123.256 101.429C123.256 105.321 121.664 108.223 118.479 110.134C115.365 112.045 112.003 113 108.394 113C105.209 113 101.6 112.257 97.5658 110.771Z" fill="white"/>
<path d="M184.794 88.3715H170.887L166.535 68.9448H149.444L145.303 88.3715H132.14L149.55 14.0616H166.004L184.794 88.3715ZM163.775 56.5244L157.724 33.5945L152.204 56.5244H163.775Z" fill="white"/>
<path d="M347.599 74.8896L349.404 85.9299C345.936 87.2746 342.468 88.23 339 88.7962C336.736 89.2208 334.471 89.4331 332.206 89.4331C331.074 89.4331 329.906 89.3624 328.703 89.2208C325.306 88.9377 322.298 88.1239 319.68 86.7792C317.132 85.3638 315.044 83.1699 313.416 80.1975C311.859 77.1543 311.081 73.4034 311.081 68.9448V34.8684C311.081 29.4897 311.824 25.4204 313.31 22.6603C314.867 19.9002 317.203 17.5648 320.317 15.6539C323.501 13.8846 327.288 13 331.675 13C332.1 13 332.56 13 333.055 13C338.009 13.2123 342.574 14.38 346.75 16.5032L343.459 27.1189C340.203 25.9158 336.629 25.3142 332.737 25.3142C329.765 25.3142 327.358 26.1281 325.518 27.7558C323.678 29.3836 322.758 31.436 322.758 33.913V68.7325C322.758 70.0064 322.9 71.1741 323.183 72.2357C323.466 73.2265 323.926 74.0403 324.563 74.6773C325.2 75.3142 325.837 75.8804 326.474 76.3758C327.111 76.8712 327.995 77.1897 329.128 77.3312C330.26 77.4728 331.215 77.6143 331.994 77.7558C332.772 77.8266 333.834 77.7558 335.179 77.5435C336.594 77.3312 337.691 77.1897 338.47 77.1189C339.248 76.9774 340.345 76.7297 341.76 76.3758C343.247 76.0219 344.273 75.7742 344.839 75.6327C345.405 75.4912 346.325 75.2435 347.599 74.8896Z" fill="white"/>
<path d="M401.98 88.3715H388.074L383.721 68.9448H366.63L362.49 88.3715H349.327L366.736 14.0616H383.191L401.98 88.3715ZM380.961 56.5244L374.91 33.5945L369.39 56.5244H380.961Z" fill="white"/>
<path d="M441.108 74.8896L442.913 85.9299C439.445 87.2746 435.978 88.23 432.51 88.7962C430.245 89.2208 427.98 89.4331 425.716 89.4331C424.583 89.4331 423.416 89.3624 422.213 89.2208C418.815 88.9377 415.808 88.1239 413.189 86.7792C410.641 85.3638 408.554 83.1699 406.926 80.1975C405.369 77.1543 404.59 73.4034 404.59 68.9448V34.8684C404.59 29.4897 405.334 25.4204 406.82 22.6603C408.377 19.9002 410.712 17.5648 413.826 15.6539C417.011 13.8846 420.797 13 425.185 13C425.61 13 426.07 13 426.565 13C431.519 13.2123 436.084 14.38 440.259 16.5032L436.968 27.1189C433.713 25.9158 430.139 25.3142 426.246 25.3142C423.274 25.3142 420.868 26.1281 419.028 27.7558C417.188 29.3836 416.268 31.436 416.268 33.913V68.7325C416.268 70.0064 416.409 71.1741 416.692 72.2357C416.975 73.2265 417.435 74.0403 418.072 74.6773C418.709 75.3142 419.346 75.8804 419.983 76.3758C420.62 76.8712 421.505 77.1897 422.637 77.3312C423.77 77.4728 424.725 77.6143 425.503 77.7558C426.282 77.8266 427.343 77.7558 428.688 77.5435C430.104 77.3312 431.2 77.1897 431.979 77.1189C432.757 76.9774 433.854 76.7297 435.27 76.3758C436.756 76.0219 437.782 75.7742 438.348 75.6327C438.915 75.4912 439.835 75.2435 441.108 74.8896Z" fill="white"/>
<path d="M497.126 88.3715H485.555V55.6752H463.156V88.3715H451.479V14.0616H463.156V44.5287H485.555V14.0616H497.126V88.3715Z" fill="white"/>
<path d="M560.49 88.3715H546.584L542.231 68.9448H525.14L521 88.3715H507.836L525.246 14.0616H541.701L560.49 88.3715ZM539.471 56.5244L533.42 33.5945L527.9 56.5244H539.471Z" fill="white"/>
<path d="M574.858 110.771L578.467 103.021C581.086 104.791 583.846 105.675 586.748 105.675C588.446 105.675 589.932 105.321 591.206 104.614C592.48 103.977 593.117 102.915 593.117 101.429C593.117 99.9427 592.409 98.9873 590.994 98.5626C590.64 98.4211 590.216 98.3503 589.72 98.3503C588.446 98.3503 586.925 98.7749 585.155 99.6242L580.485 101.96L576.769 96.6518L582.926 88.7962C573.372 86.7438 568.595 80.1267 568.595 68.9448V34.8684C568.595 29.4897 569.338 25.4204 570.824 22.6603C572.381 19.9002 574.717 17.5648 577.831 15.6539C581.015 13.8846 584.802 13 589.189 13C589.614 13 590.074 13 590.569 13C595.523 13.2123 600.088 14.38 604.264 16.5032L600.973 27.1189C597.717 25.9158 594.143 25.3142 590.251 25.3142C587.279 25.3142 584.872 26.1281 583.032 27.7558C581.192 29.3836 580.272 31.436 580.272 33.913V68.7325C580.272 70.0064 580.414 71.1741 580.697 72.2357C580.98 73.2265 581.44 74.0403 582.077 74.6773C582.714 75.3142 583.351 75.8804 583.988 76.3758C584.625 76.8712 585.509 77.1897 586.642 77.3312C587.774 77.4728 588.729 77.6143 589.508 77.7558C590.286 77.8266 591.348 77.7558 592.693 77.5435C594.108 77.3312 595.205 77.1897 595.983 77.1189C596.762 76.9774 597.859 76.7297 599.274 76.3758C600.761 76.0219 601.787 75.7742 602.353 75.6327C602.919 75.4912 603.839 75.2435 605.113 74.8896L606.918 85.9299C601.114 88.1946 595.417 89.3623 589.826 89.4331L587.809 92.4055C589.154 91.9101 590.357 91.6624 591.419 91.6624C593.825 91.6624 595.948 92.5117 597.788 94.2102C599.628 95.9795 600.548 98.3857 600.548 101.429C600.548 105.321 598.956 108.223 595.771 110.134C592.657 112.045 589.296 113 585.686 113C582.501 113 578.892 112.257 574.858 110.771Z" fill="white"/>
<path d="M662.086 88.3715H648.18L643.827 68.9448H626.736L622.596 88.3715H609.432L626.842 14.0616H643.296L662.086 88.3715ZM641.067 56.5244L635.016 33.5945L629.496 56.5244H641.067Z" fill="white"/>
<path d="M783.95 121.6L697.905 49.4928L744.274 3.16095L816.53 89.2756L816.558 89.3081L816.587 89.3389C816.713 89.4734 816.844 89.6078 816.976 89.7434C817.519 90.3013 818.082 90.8798 818.444 91.5686C818.65 91.9592 818.731 92.2881 818.719 92.5705C818.709 92.8194 818.623 93.1478 818.288 93.5655L789.376 122.486C789.376 122.486 789.376 122.486 789.376 122.486C788.319 123.543 787.643 123.629 787.09 123.522C786.327 123.374 785.382 122.781 783.955 121.604C783.953 121.603 783.952 121.602 783.95 121.6Z" fill="black" stroke="white" stroke-width="3"/>
<path d="M702.605 48.5868L743.996 6.90082L798.478 73.8164C796.653 88.3988 781.403 102.343 768.853 103.213L702.605 48.5868Z" fill="white"/>
<path d="M770.801 48.6028L725.653 48.623L768.43 89.2953L721.88 48.6028L713.477 48.6876L770.757 97.2553C770.757 97.2553 788.156 93.3035 792.546 75.2965" fill="black"/>
<path d="M685.068 51.3457C685.061 51.3984 685.054 51.4519 685.047 51.5063C684.876 52.7745 684.617 54.4942 684.265 56.3088C683.912 58.1294 683.472 60.0136 682.943 61.6221C682.395 63.2897 681.82 64.4446 681.298 64.9977C678.829 67.6151 674.861 67.6161 672.388 64.997C669.87 62.331 669.871 57.9691 672.388 55.2959L685.068 51.3457ZM685.068 51.3457C685.054 51.3479 685.04 51.35 685.026 51.3522C683.833 51.5334 682.217 51.8075 680.512 52.1796C678.801 52.5532 677.034 53.0183 675.53 53.5746C673.971 54.1507 672.902 54.7514 672.389 55.2957L685.068 51.3457Z" fill="black" stroke="white" stroke-width="3"/>
<path d="M698.14 62.4216C698.14 64.9538 696.13 66.961 693.71 66.961C691.289 66.961 689.279 64.9538 689.279 62.4216C689.279 61.9429 689.52 61.106 690.061 59.9636C690.578 58.874 691.281 57.6845 692.004 56.5655C692.606 55.6343 693.21 54.7711 693.71 54.0808C694.21 54.7707 694.813 55.6333 695.415 56.564C696.139 57.6827 696.841 58.8721 697.358 59.9618C697.899 61.1041 698.14 61.9417 698.14 62.4216Z" fill="black" stroke="white" stroke-width="3"/>
</svg>
