<svg width="690" height="1008" viewBox="0 0 690 1008" fill="none" xmlns="http://www.w3.org/2000/svg">
<g filter="url(#filter0_d_1089_183)">
<rect x="4" width="681.818" height="1000" rx="102.072" fill="black"/>
<path d="M173.707 790.085L156.292 765.234L146.116 765.625C146.116 766.669 146.116 769.017 146.116 772.67C146.247 776.192 146.312 778.475 146.312 779.519C146.312 784.476 144.942 788.65 142.203 792.042C139.594 795.434 136.332 797.521 132.419 798.304C128.636 799.087 124.787 799.087 120.874 798.304C117.091 797.521 113.829 795.499 111.09 792.238C108.481 788.846 107.176 784.737 107.176 779.91C106.785 746.123 107.046 712.531 107.959 679.135C108.089 673.786 110.046 669.22 113.829 665.437C117.743 661.654 122.504 659.762 128.114 659.762C148.856 659.762 162.227 660.219 168.228 661.132C181.143 662.828 191.71 668.177 199.929 677.178C207.886 685.918 211.995 697.072 212.256 710.639C212.387 718.597 210.887 726.294 207.756 733.729C204.625 741.035 200.189 747.036 194.449 751.732L208.538 772.083C213.626 779.388 213.496 786.107 208.147 792.238C203.712 797.456 197.776 799.869 190.34 799.478C183.426 798.956 177.882 795.825 173.707 790.085ZM146.704 698.507L146.312 726.489C158.705 726.75 166.989 723.815 171.164 717.684C174.164 713.248 173.642 709.009 169.598 704.965C164.902 700.399 157.27 698.246 146.704 698.507Z" fill="white"/>
<path d="M277.852 769.735C283.462 770.909 290.376 770.583 298.594 768.756C307.074 766.799 313.531 768.821 317.966 774.822C322.011 780.04 322.858 785.52 320.51 791.259C318.293 796.478 314.053 799.739 307.791 801.043C288.354 805.609 271.199 804.631 256.327 798.108C241.456 791.586 230.824 781.215 224.431 766.995C218.561 753.428 217.778 740.056 222.083 726.881C226.519 713.705 234.933 704.312 247.326 698.703C264.024 690.876 279.222 689.962 292.919 695.963C306.747 701.834 314.444 713.183 316.01 730.012C317.314 743.057 304.595 756.298 277.852 769.735ZM256.523 743.122C271.395 736.73 278.635 731.577 278.243 727.663C278.113 725.968 276.156 724.728 272.373 723.945C267.938 723.032 264.22 724.467 261.219 728.25C258.349 732.034 256.784 736.991 256.523 743.122Z" fill="white"/>
<path d="M347.322 688.136H347.126C341.777 688.136 337.146 686.244 333.233 682.461C329.449 678.548 327.558 673.851 327.558 668.372C327.558 663.024 329.449 658.458 333.233 654.675C337.146 650.892 341.777 649 347.126 649H347.322C352.67 649 357.236 650.892 361.019 654.675C364.933 658.458 366.89 663.024 366.89 668.372C366.89 673.851 364.933 678.548 361.019 682.461C357.236 686.244 352.67 688.136 347.322 688.136Z" fill="white"/>
<path d="M426.254 730.012L419.601 727.468C414.644 725.641 411.904 726.033 411.382 728.642C410.861 729.946 411.839 731.186 414.318 732.36C416.927 733.534 420.318 734.708 424.493 735.882C428.667 736.926 433.038 738.426 437.603 740.383C442.3 742.339 446.409 744.818 449.931 747.818C453.584 750.688 456.193 754.537 457.759 759.364C459.324 764.19 459.063 770.061 456.976 776.975C454.236 785.846 448.953 792.629 441.126 797.326C433.429 802.022 424.884 804.24 415.492 803.979C406.229 803.848 396.641 802.283 386.727 799.282C378.639 796.673 374.203 791.781 373.42 784.606C372.638 778.736 374.529 773.909 379.095 770.126C383.531 766.473 388.879 765.691 395.141 767.778C403.099 770.256 408.512 771.626 411.382 771.887C414.383 772.148 416.34 771.365 417.253 769.539C417.905 768.234 416.992 767.06 414.513 766.017C412.035 764.973 408.708 763.995 404.534 763.082C400.359 762.168 395.989 760.799 391.423 758.972C386.857 757.146 382.813 754.733 379.291 751.732C375.769 748.601 373.29 744.361 371.855 739.013C370.55 733.534 371.007 726.881 373.225 719.053C375.834 710.183 380.465 703.269 387.118 698.311C393.771 693.224 401.403 690.484 410.013 690.093C418.753 689.571 428.211 690.81 438.386 693.811C443.083 695.507 446.54 698.116 448.757 701.638C451.105 705.16 451.953 708.813 451.301 712.596C450.779 716.249 449.54 719.706 447.583 722.967C445.626 726.228 442.691 728.577 438.778 730.012C434.864 731.447 430.689 731.447 426.254 730.012Z" fill="white"/>
<path d="M515.294 784.248L532.709 809.099L542.885 808.708C542.885 807.664 542.885 805.316 542.885 801.664C542.754 798.141 542.689 795.858 542.689 794.815C542.689 789.858 544.059 785.683 546.798 782.291C549.407 778.899 552.669 776.812 556.582 776.03C560.366 775.247 564.214 775.247 568.128 776.03C571.911 776.812 575.172 778.834 577.912 782.096C580.521 785.487 581.825 789.597 581.825 794.423C582.216 828.211 581.956 861.803 581.042 895.199C580.912 900.547 578.955 905.113 575.172 908.896C571.258 912.679 566.497 914.571 560.887 914.571C540.145 914.571 526.774 914.114 520.773 913.201C507.858 911.505 497.291 906.157 489.073 897.155C481.115 888.415 477.006 877.261 476.745 863.694C476.614 855.736 478.115 848.04 481.245 840.604C484.376 833.298 488.812 827.298 494.552 822.601L480.463 802.251C475.375 794.945 475.506 788.227 480.854 782.096C485.29 776.877 491.225 774.464 498.661 774.855C505.575 775.377 511.119 778.508 515.294 784.248ZM542.298 875.826L542.689 847.844C530.296 847.583 522.012 850.518 517.838 856.65C514.837 861.085 515.359 865.325 519.403 869.369C524.099 873.935 531.731 876.087 542.298 875.826Z" fill="white"/>
<path d="M411.149 804.599C405.54 803.425 390.088 799.274 388.71 797.896C379.063 788.25 380.743 795.728 376.307 789.727C372.263 784.509 375.337 778.639 377.685 772.899C379.903 767.68 379.692 770.262 385.954 768.957C406.624 771.713 417.648 772.899 432.674 776.225C447.546 782.748 458.178 793.119 464.57 807.338C470.44 820.905 471.223 834.277 466.918 847.453C462.483 860.628 454.068 870.021 441.675 875.631C424.977 883.458 409.779 884.371 396.082 878.37C382.254 872.5 374.557 861.15 372.992 844.322C371.687 831.276 384.406 818.035 411.149 804.599ZM432.478 831.211C417.607 837.603 410.366 842.756 410.758 846.67C410.888 848.366 412.845 849.605 416.628 850.388C421.064 851.301 424.782 849.866 427.782 846.083C430.652 842.3 432.217 837.342 432.478 831.211Z" fill="white"/>
<path d="M341.68 886.197H341.875C347.224 886.197 351.855 888.089 355.769 891.872C359.552 895.786 361.443 900.482 361.443 905.961C361.443 911.31 359.552 915.876 355.769 919.659C351.855 923.442 347.224 925.333 341.875 925.333H341.68C336.331 925.333 331.765 923.442 327.982 919.659C324.068 915.876 322.112 911.31 322.112 905.961C322.112 900.482 324.068 895.786 327.982 891.872C331.765 888.089 336.331 886.197 341.68 886.197ZM323.677 861.737L324.264 826.906C324.264 822.862 324.329 818.296 324.46 813.209C324.46 808.121 324.525 803.881 324.656 800.489C324.656 797.098 326.147 713.903 326.147 711.685C326.278 705.684 328.43 700.988 332.605 697.596C336.649 694.204 341.149 692.508 346.107 692.508C350.933 692.508 355.369 694.269 359.413 697.792C363.457 701.444 365.414 706.336 365.283 712.468C365.283 714.685 363.792 797.88 363.792 801.272C363.661 804.664 363.596 808.838 363.596 813.796C363.465 818.883 363.4 823.449 363.4 827.493L362.813 862.324C362.683 868.064 360.661 872.695 356.747 876.218C352.703 879.87 348.137 881.697 343.049 881.697C338.092 881.697 333.592 879.87 329.548 876.218C325.373 872.695 323.416 867.869 323.677 861.737Z" fill="white"/>
<path d="M262.747 844.322L269.4 846.866C274.358 848.692 277.097 848.301 277.619 845.691C278.141 844.387 277.162 843.148 274.684 841.974C272.075 840.799 268.683 839.625 264.508 838.451C260.334 837.408 255.964 835.907 251.398 833.951C246.701 831.994 242.592 829.515 239.07 826.515C235.417 823.645 232.808 819.796 231.243 814.97C229.677 810.143 229.938 804.273 232.025 797.359C234.765 788.488 240.048 781.704 247.876 777.008C255.572 772.312 264.117 770.094 273.51 770.355C283.979 771.711 293.626 771.711 305.287 768.739C313.375 771.348 317.81 776.24 318.593 783.415C319.376 789.285 317.484 794.112 312.918 797.895C307.406 801.272 304.138 801.863 296.382 802.446C288.626 803.03 280.489 802.707 277.619 802.446C274.618 802.185 272.662 802.968 271.748 804.794C271.096 806.099 272.009 807.273 274.488 808.317C276.967 809.36 280.293 810.339 284.468 811.252C288.642 812.165 293.012 813.535 297.578 815.361C302.144 817.187 306.188 819.601 309.71 822.601C313.233 825.732 315.711 829.972 317.146 835.32C318.451 840.799 317.994 847.453 315.777 855.28C313.167 864.151 308.536 871.065 301.883 876.022C295.23 881.11 287.599 883.849 278.989 884.241C270.248 884.762 260.79 883.523 250.615 880.523C245.919 878.827 242.462 876.218 240.244 872.695C237.896 869.173 237.048 865.52 237.7 861.737C238.222 858.085 239.461 854.627 241.418 851.366C243.375 848.105 246.31 845.757 250.224 844.322C254.137 842.887 258.312 842.887 262.747 844.322Z" fill="white"/>
<path fill-rule="evenodd" clip-rule="evenodd" d="M469 747.5C469 740.596 475.261 735 482.985 735H568.015C575.739 735 582 740.596 582 747.5C582 754.404 575.739 760 568.015 760H482.985C475.261 760 469 754.404 469 747.5Z" fill="white"/>
<path fill-rule="evenodd" clip-rule="evenodd" d="M107 827.5C107 820.596 113.261 815 120.985 815H206.015C213.739 815 220 820.596 220 827.5C220 834.404 213.739 840 206.015 840H120.985C113.261 840 107 834.404 107 827.5Z" fill="white"/>
<g opacity="0.25">
<path d="M362.68 419.978L549.503 470.037L522.36 571.337L414.154 601.521L335.537 521.278L362.68 419.978Z" stroke="white" stroke-width="29.1188"/>
<path fill-rule="evenodd" clip-rule="evenodd" d="M630.499 327.411C627.922 323.717 624.362 320.829 620.226 319.077C616.089 317.325 611.543 316.78 607.105 317.504L545.63 327.38L529.04 260.452C528.009 256.254 525.878 252.413 522.868 249.33C519.859 246.247 516.08 244.034 511.926 242.921C507.771 241.808 503.393 241.835 499.245 243C495.097 244.165 491.331 246.426 488.339 249.546L440.507 299.212L392.207 259.922C388.743 257.049 384.542 255.216 380.083 254.634C375.625 254.052 371.089 254.745 366.995 256.632C362.901 258.519 359.414 261.524 356.932 265.305C354.45 269.086 353.074 273.49 352.961 278.012L348.496 412.822C348.346 418.3 350.038 423.662 353.298 428.042C356.557 432.421 361.194 435.562 366.458 436.957C368.55 437.5 370.71 437.741 372.872 437.672L534.859 481.076C537.645 482.744 540.74 483.827 543.957 484.26C547.175 484.692 550.448 484.466 553.581 483.594C556.713 482.723 559.64 481.223 562.186 479.187C564.731 477.15 566.843 474.618 568.393 471.743L632.048 352.794C634.182 348.834 635.169 344.355 634.895 339.867C634.621 335.378 633.098 331.062 630.499 327.411ZM381.512 288.674L377.672 408.595L545.357 453.526L601.991 347.751L545.733 356.766C539.78 357.742 533.688 356.426 528.67 353.082C523.653 349.738 520.079 344.611 518.661 338.722L503.075 275.953L458.192 322.52C454.02 326.91 448.361 329.563 442.344 329.951C436.327 330.338 430.393 328.432 425.725 324.61L381.512 288.674Z" fill="#FFF323"/>
<path d="M379.974 495.265C380.796 492.197 382.214 489.321 384.148 486.801C386.082 484.281 388.493 482.166 391.244 480.578C393.994 478.99 397.031 477.959 400.18 477.544C403.33 477.13 406.53 477.339 409.598 478.161C412.666 478.984 415.543 480.402 418.063 482.336C420.583 484.269 422.697 486.681 424.285 489.431C425.874 492.182 426.904 495.219 427.319 498.368C427.734 501.518 427.524 504.718 426.702 507.786L403.338 501.526L379.974 495.265Z" fill="white"/>
<path d="M442.276 511.96C443.098 508.892 444.517 506.015 446.451 503.495C448.384 500.975 450.795 498.861 453.546 497.273C456.297 495.684 459.334 494.653 462.483 494.239C465.633 493.824 468.833 494.034 471.901 494.856C474.969 495.678 477.845 497.097 480.365 499.03C482.885 500.964 485 503.375 486.588 506.126C488.176 508.877 489.207 511.914 489.622 515.063C490.036 518.212 489.827 521.412 489.005 524.481L465.64 518.22L442.276 511.96Z" fill="white"/>
</g>
<path d="M120.159 370.482H392.755V518.29L256.457 598.852L120.159 518.29V370.482Z" stroke="white" stroke-width="41.04"/>
<path fill-rule="evenodd" clip-rule="evenodd" d="M450.99 146.769C446.134 142.68 440.235 140.047 433.965 139.171C427.694 138.295 421.306 139.212 415.528 141.816L335.441 177.685L288.441 92.6231C285.506 87.2836 281.204 82.8329 275.982 79.7338C270.761 76.6346 264.809 75 258.748 75C252.686 75 246.735 76.6346 241.513 79.7338C236.291 82.8329 231.989 87.2836 229.054 92.6231L182.054 177.685L101.968 141.816C96.2033 139.167 89.8151 138.205 83.5332 139.039C77.2514 139.874 71.3294 142.47 66.4444 146.533C61.5594 150.595 57.9085 155.959 55.9089 162.012C53.9094 168.064 53.642 174.561 55.1373 180.76L98.2348 365.914C100.029 373.426 104.289 380.109 110.323 384.883C116.358 389.656 123.816 392.241 131.491 392.219C134.538 392.196 137.566 391.735 140.484 390.852H376.842C381.244 392.106 385.852 392.452 390.39 391.867C394.928 391.283 399.301 389.781 403.248 387.451C407.194 385.122 410.632 382.013 413.355 378.312C416.077 374.611 418.029 370.394 419.091 365.914L462.358 180.76C463.82 174.591 463.529 168.133 461.518 162.122C459.508 156.112 455.86 150.792 450.99 146.769ZM97.8955 184.859L136.412 349.517H381.084L419.6 184.859L346.3 217.654C338.552 221.153 329.778 221.584 321.728 218.862C313.677 216.139 306.942 210.463 302.863 202.964L258.748 123.198L214.632 202.964C210.554 210.463 203.818 216.139 195.768 218.862C187.717 221.584 178.944 221.153 171.195 217.654L97.8955 184.859Z" fill="#FFF323"/>
<path d="M245.094 438.598C245.094 443.075 244.212 447.508 242.499 451.644C240.786 455.78 238.275 459.538 235.109 462.704C231.943 465.87 228.185 468.381 224.049 470.094C219.913 471.807 215.48 472.689 211.003 472.689C206.526 472.689 202.093 471.807 197.957 470.094C193.821 468.381 190.063 465.87 186.897 462.704C183.731 459.538 181.22 455.78 179.507 451.644C177.794 447.508 176.912 443.075 176.912 438.598L211.003 438.598H245.094Z" fill="white"/>
<path d="M336 438.598C336 443.075 335.118 447.508 333.405 451.644C331.692 455.78 329.181 459.538 326.015 462.704C322.85 465.87 319.091 468.381 314.955 470.094C310.819 471.807 306.386 472.689 301.909 472.689C297.432 472.689 292.999 471.807 288.863 470.094C284.727 468.381 280.969 465.87 277.803 462.704C274.638 459.538 272.127 455.78 270.413 451.644C268.7 447.508 267.818 443.075 267.818 438.598L301.909 438.598H336Z" fill="white"/>
</g>
<defs>
<filter id="filter0_d_1089_183" x="0" y="0" width="689.818" height="1008" filterUnits="userSpaceOnUse" color-interpolation-filters="sRGB">
<feFlood flood-opacity="0" result="BackgroundImageFix"/>
<feColorMatrix in="SourceAlpha" type="matrix" values="0 0 0 0 0 0 0 0 0 0 0 0 0 0 0 0 0 0 127 0" result="hardAlpha"/>
<feOffset dy="4"/>
<feGaussianBlur stdDeviation="2"/>
<feComposite in2="hardAlpha" operator="out"/>
<feColorMatrix type="matrix" values="0 0 0 0 0 0 0 0 0 0 0 0 0 0 0 0 0 0 0.25 0"/>
<feBlend mode="normal" in2="BackgroundImageFix" result="effect1_dropShadow_1089_183"/>
<feBlend mode="normal" in="SourceGraphic" in2="effect1_dropShadow_1089_183" result="shape"/>
</filter>
</defs>
</svg>
