<svg width="690" height="1009" viewBox="0 0 690 1009" fill="none" xmlns="http://www.w3.org/2000/svg">
<g filter="url(#filter0_d_1089_183)">
<rect x="4" y="0.93335" width="681.818" height="1000" rx="102.072" fill="black"/>
<path d="M175.404 778.707L157.948 753.799L147.749 754.191C147.749 755.237 147.749 757.59 147.749 761.252C147.88 764.782 147.946 767.07 147.946 768.116C147.946 773.085 146.573 777.269 143.827 780.668C141.212 784.068 137.943 786.16 134.02 786.945C130.228 787.729 126.371 787.729 122.449 786.945C118.657 786.16 115.388 784.133 112.642 780.865C110.027 777.465 108.719 773.346 108.719 768.508C108.327 734.643 108.589 700.974 109.504 667.501C109.635 662.14 111.596 657.564 115.388 653.772C119.311 649.98 124.083 648.084 129.705 648.084C150.495 648.084 163.898 648.542 169.912 649.457C182.857 651.157 193.448 656.518 201.685 665.54C209.661 674.3 213.78 685.48 214.042 699.078C214.172 707.054 212.669 714.769 209.531 722.222C206.393 729.544 201.947 735.558 196.194 740.266L210.315 760.663C215.415 767.985 215.284 774.719 209.923 780.865C205.477 786.095 199.528 788.514 192.075 788.121C185.145 787.598 179.588 784.46 175.404 778.707ZM148.338 686.918L147.946 714.965C160.367 715.226 168.67 712.284 172.854 706.139C175.862 701.693 175.339 697.444 171.285 693.39C166.578 688.814 158.929 686.657 148.338 686.918Z" fill="white"/>
<path d="M279.788 758.31C285.411 759.486 292.341 759.159 300.578 757.329C309.077 755.368 315.549 757.394 319.995 763.409C324.048 768.639 324.898 774.131 322.545 779.884C320.322 785.114 316.072 788.383 309.796 789.69C290.314 794.267 273.12 793.286 258.214 786.749C243.308 780.211 232.652 769.816 226.245 755.564C220.361 741.965 219.576 728.563 223.891 715.357C228.337 702.151 236.77 692.737 249.192 687.114C265.928 679.269 281.161 678.354 294.89 684.368C308.75 690.252 316.465 701.628 318.034 718.495C319.341 731.57 306.593 744.842 279.788 758.31ZM258.41 731.636C273.316 725.229 280.573 720.064 280.181 716.142C280.05 714.442 278.089 713.2 274.297 712.415C269.851 711.5 266.125 712.938 263.117 716.73C260.241 720.522 258.672 725.49 258.41 731.636Z" fill="white"/>
<path d="M349.418 676.523H349.222C343.861 676.523 339.219 674.627 335.296 670.835C331.504 666.913 329.609 662.206 329.609 656.714C329.609 651.353 331.504 646.777 335.296 642.985C339.219 639.193 343.861 637.297 349.222 637.297H349.418C354.779 637.297 359.355 639.193 363.147 642.985C367.069 646.777 369.031 651.353 369.031 656.714C369.031 662.206 367.069 666.913 363.147 670.835C359.355 674.627 354.779 676.523 349.418 676.523Z" fill="white"/>
<path d="M428.532 718.495L421.863 715.945C416.895 714.115 414.149 714.507 413.626 717.122C413.103 718.43 414.084 719.672 416.568 720.849C419.183 722.025 422.583 723.202 426.767 724.379C430.951 725.425 435.331 726.929 439.908 728.89C444.615 730.851 448.733 733.336 452.264 736.343C455.925 739.22 458.54 743.077 460.109 747.915C461.678 752.753 461.417 758.636 459.324 765.566C456.579 774.458 451.283 781.257 443.438 785.964C435.723 790.671 427.159 792.894 417.745 792.632C408.461 792.502 398.851 790.933 388.914 787.925C380.807 785.31 376.361 780.407 375.577 773.216C374.792 767.332 376.688 762.494 381.264 758.702C385.71 755.041 391.071 754.256 397.347 756.348C405.323 758.833 410.749 760.206 413.626 760.467C416.633 760.729 418.595 759.944 419.51 758.113C420.164 756.806 419.248 755.629 416.764 754.583C414.28 753.537 410.946 752.556 406.761 751.641C402.577 750.726 398.197 749.353 393.621 747.522C389.044 745.692 384.991 743.273 381.461 740.266C377.93 737.127 375.446 732.878 374.008 727.517C372.7 722.025 373.158 715.357 375.381 707.512C377.996 698.621 382.637 691.691 389.306 686.722C395.974 681.623 403.623 678.877 412.253 678.484C421.014 677.961 430.493 679.204 440.692 682.211C445.399 683.911 448.864 686.526 451.087 690.056C453.441 693.586 454.29 697.248 453.637 701.039C453.114 704.701 451.871 708.166 449.91 711.434C447.949 714.703 445.007 717.057 441.084 718.495C437.162 719.933 432.978 719.933 428.532 718.495Z" fill="white"/>
<path d="M517.776 772.856L535.232 797.765L545.431 797.373C545.431 796.327 545.431 793.973 545.431 790.312C545.3 786.782 545.235 784.494 545.235 783.447C545.235 778.479 546.607 774.295 549.353 770.895C551.968 767.496 555.237 765.404 559.16 764.619C562.952 763.834 566.809 763.834 570.732 764.619C574.523 765.404 577.792 767.43 580.538 770.699C583.153 774.099 584.461 778.217 584.461 783.055C584.853 816.92 584.591 850.589 583.676 884.062C583.545 889.423 581.584 894 577.792 897.792C573.87 901.583 569.097 903.479 563.475 903.479C542.685 903.479 529.283 903.022 523.268 902.106C510.323 900.407 499.732 895.046 491.495 886.024C483.519 877.263 479.4 866.084 479.138 852.485C479.008 844.509 480.511 836.795 483.65 829.342C486.788 822.02 491.233 816.005 496.986 811.298L482.865 790.9C477.766 783.578 477.896 776.844 483.257 770.699C487.703 765.469 493.652 763.05 501.105 763.442C508.035 763.965 513.592 767.103 517.776 772.856ZM544.842 864.645L545.235 836.599C532.813 836.337 524.51 839.279 520.326 845.425C517.319 849.87 517.842 854.12 521.895 858.173C526.602 862.75 534.251 864.907 544.842 864.645Z" fill="white"/>
<path d="M413.392 793.254C407.769 792.077 392.282 787.917 390.901 786.536C381.232 776.867 382.915 784.363 378.47 778.348C374.417 773.118 377.497 767.234 379.851 761.481C382.074 756.251 381.862 758.838 388.138 757.53C408.856 760.293 419.906 761.481 434.966 764.815C449.872 771.353 460.529 781.748 466.936 796C472.819 809.598 473.604 823 469.289 836.206C464.843 849.413 456.41 858.827 443.988 864.449C427.252 872.295 412.019 873.21 398.29 867.195C384.43 861.311 376.715 849.936 375.146 833.068C373.839 819.993 386.587 806.722 413.392 793.254ZM434.77 819.928C419.864 826.335 412.607 831.499 413 835.422C413.13 837.122 415.092 838.364 418.883 839.148C423.329 840.064 427.056 838.625 430.063 834.834C432.94 831.042 434.509 826.073 434.77 819.928Z" fill="white"/>
<path d="M343.762 875.04H343.959C349.319 875.04 353.961 876.936 357.884 880.728C361.676 884.651 363.572 889.358 363.572 894.85C363.572 900.211 361.676 904.787 357.884 908.579C353.961 912.371 349.319 914.267 343.959 914.267H343.762C338.401 914.267 333.825 912.371 330.033 908.579C326.111 904.787 324.149 900.211 324.149 894.85C324.149 889.358 326.111 884.651 330.033 880.728C333.825 876.936 338.401 875.04 343.762 875.04ZM325.718 850.524L326.307 815.613C326.307 811.559 326.372 806.983 326.503 801.884C326.503 796.784 326.568 792.535 326.699 789.135C326.699 785.736 328.194 702.349 328.194 700.126C328.325 694.112 330.482 689.405 334.666 686.005C338.72 682.605 343.231 680.906 348.199 680.906C353.037 680.906 357.483 682.671 361.536 686.201C365.59 689.862 367.551 694.765 367.42 700.911C367.42 703.134 365.925 786.52 365.925 789.92C365.794 793.319 365.729 797.503 365.729 802.472C365.598 807.571 365.533 812.148 365.533 816.201L364.945 851.112C364.814 856.866 362.787 861.507 358.864 865.038C354.811 868.699 350.235 870.529 345.135 870.529C340.167 870.529 335.656 868.699 331.602 865.038C327.418 861.507 325.457 856.669 325.718 850.524Z" fill="white"/>
<path d="M264.648 833.068L271.317 835.618C276.285 837.449 279.031 837.056 279.554 834.441C280.077 833.134 279.096 831.892 276.612 830.715C273.997 829.538 270.597 828.361 266.413 827.184C262.229 826.138 257.849 824.635 253.273 822.673C248.565 820.712 244.447 818.228 240.916 815.221C237.255 812.344 234.64 808.487 233.071 803.649C231.502 798.811 231.764 792.927 233.856 785.997C236.602 777.106 241.897 770.307 249.742 765.6C257.457 760.892 266.021 758.67 275.435 758.931C285.929 760.291 295.598 760.291 307.286 757.311C315.392 759.926 319.838 764.83 320.622 772.021C321.407 777.905 319.511 782.743 314.935 786.535C309.41 789.92 306.134 790.512 298.36 791.097C290.587 791.682 282.431 791.358 279.554 791.097C276.547 790.835 274.585 791.62 273.67 793.45C273.016 794.758 273.932 795.934 276.416 796.98C278.9 798.026 282.235 799.007 286.419 799.922C290.603 800.838 294.983 802.211 299.559 804.041C304.136 805.872 308.189 808.291 311.72 811.298C315.25 814.436 317.734 818.685 319.173 824.046C320.48 829.538 320.022 836.206 317.8 844.052C315.185 852.943 310.543 859.873 303.874 864.842C297.206 869.941 289.557 872.687 280.927 873.079C272.167 873.602 262.687 872.36 252.488 869.353C247.781 867.653 244.316 865.038 242.093 861.507C239.74 857.977 238.89 854.316 239.543 850.524C240.066 846.863 241.309 843.398 243.27 840.129C245.231 836.86 248.173 834.507 252.096 833.068C256.018 831.63 260.203 831.63 264.648 833.068Z" fill="white"/>
<path d="M488.957 728.587L573.675 728.587" stroke="white" stroke-width="19.6962" stroke-linecap="round"/>
<path d="M118.441 823.454L203.159 823.454" stroke="white" stroke-width="19.6962" stroke-linecap="round"/>
<g opacity="0.25">
<path d="M368.68 420.978L555.503 471.037L528.36 572.337L420.154 602.521L341.537 522.278L368.68 420.978Z" stroke="white" stroke-width="29.1188"/>
<path fill-rule="evenodd" clip-rule="evenodd" d="M636.499 328.411C633.922 324.717 630.362 321.829 626.226 320.077C622.089 318.325 617.543 317.78 613.105 318.504L551.63 328.38L535.04 261.452C534.009 257.254 531.878 253.413 528.868 250.33C525.859 247.247 522.08 245.034 517.926 243.921C513.771 242.808 509.393 242.835 505.245 244C501.097 245.165 497.331 247.426 494.339 250.546L446.507 300.212L398.207 260.922C394.743 258.049 390.542 256.216 386.083 255.634C381.625 255.052 377.089 255.745 372.995 257.632C368.901 259.519 365.414 262.524 362.932 266.305C360.45 270.086 359.074 274.49 358.961 279.012L354.496 413.822C354.346 419.3 356.038 424.662 359.298 429.042C362.557 433.421 367.194 436.562 372.458 437.957C374.55 438.5 376.71 438.741 378.872 438.672L540.859 482.076C543.645 483.744 546.74 484.827 549.957 485.26C553.175 485.692 556.448 485.466 559.581 484.594C562.713 483.723 565.64 482.223 568.186 480.187C570.731 478.15 572.843 475.618 574.393 472.743L638.048 353.794C640.182 349.834 641.169 345.355 640.895 340.867C640.621 336.378 639.098 332.062 636.499 328.411ZM387.512 289.674L383.672 409.595L551.357 454.526L607.991 348.751L551.733 357.766C545.78 358.742 539.688 357.426 534.67 354.082C529.653 350.738 526.079 345.611 524.661 339.722L509.075 276.953L464.192 323.52C460.02 327.91 454.361 330.563 448.344 330.951C442.327 331.338 436.393 329.432 431.725 325.61L387.512 289.674Z" fill="#FFF323"/>
<path d="M385.974 496.265C386.796 493.197 388.214 490.321 390.148 487.801C392.082 485.281 394.493 483.166 397.244 481.578C399.994 479.99 403.031 478.959 406.18 478.544C409.33 478.13 412.53 478.339 415.598 479.161C418.666 479.984 421.543 481.402 424.063 483.336C426.583 485.269 428.697 487.681 430.285 490.431C431.874 493.182 432.904 496.219 433.319 499.368C433.734 502.518 433.524 505.718 432.702 508.786L409.338 502.526L385.974 496.265Z" fill="white"/>
<path d="M448.276 512.96C449.098 509.892 450.517 507.015 452.451 504.495C454.384 501.975 456.795 499.861 459.546 498.273C462.297 496.684 465.334 495.653 468.483 495.239C471.633 494.824 474.833 495.034 477.901 495.856C480.969 496.678 483.845 498.097 486.365 500.03C488.885 501.964 491 504.375 492.588 507.126C494.176 509.877 495.207 512.914 495.622 516.063C496.036 519.212 495.827 522.412 495.005 525.481L471.64 519.22L448.276 512.96Z" fill="white"/>
</g>
<path d="M138.159 373.688H410.755V521.496L274.457 602.059L138.159 521.496V373.688Z" stroke="white" stroke-width="41.04"/>
<path fill-rule="evenodd" clip-rule="evenodd" d="M468.99 149.975C464.134 145.886 458.235 143.253 451.965 142.377C445.694 141.502 439.306 142.418 433.528 145.022L353.441 180.891L306.441 95.8293C303.506 90.4898 299.204 86.0391 293.982 82.9399C288.761 79.8407 282.809 78.2062 276.748 78.2062C270.686 78.2062 264.735 79.8407 259.513 82.9399C254.291 86.0391 249.989 90.4898 247.054 95.8293L200.054 180.891L119.968 145.022C114.203 142.373 107.815 141.411 101.533 142.246C95.2514 143.08 89.3294 145.676 84.4444 149.739C79.5594 153.801 75.9085 159.165 73.9089 165.218C71.9094 171.271 71.642 177.767 73.1373 183.966L116.235 369.121C118.029 376.633 122.289 383.316 128.323 388.089C134.358 392.862 141.816 395.447 149.491 395.425C152.538 395.402 155.566 394.942 158.484 394.058H394.842C399.244 395.313 403.852 395.658 408.39 395.073C412.928 394.489 417.301 392.987 421.248 390.657C425.194 388.328 428.632 385.219 431.355 381.518C434.077 377.817 436.029 373.6 437.091 369.121L480.358 183.966C481.82 177.797 481.529 171.339 479.518 165.328C477.508 159.318 473.86 153.998 468.99 149.975ZM115.895 188.065L154.412 352.723H399.084L437.6 188.065L364.3 220.86C356.552 224.359 347.778 224.79 339.728 222.068C331.677 219.346 324.942 213.669 320.863 206.171L276.748 126.404L232.632 206.171C228.554 213.669 221.818 219.346 213.768 222.068C205.717 224.79 196.944 224.359 189.195 220.86L115.895 188.065Z" fill="#FFF323"/>
<path d="M263.094 441.804C263.094 446.281 262.212 450.714 260.499 454.85C258.786 458.986 256.275 462.745 253.109 465.91C249.943 469.076 246.185 471.587 242.049 473.3C237.913 475.013 233.48 475.895 229.003 475.895C224.526 475.895 220.093 475.013 215.957 473.3C211.821 471.587 208.063 469.076 204.897 465.91C201.731 462.745 199.22 458.986 197.507 454.85C195.794 450.714 194.912 446.281 194.912 441.804L229.003 441.804H263.094Z" fill="white"/>
<path d="M354 441.804C354 446.281 353.118 450.714 351.405 454.85C349.692 458.986 347.181 462.745 344.015 465.91C340.85 469.076 337.091 471.587 332.955 473.3C328.819 475.013 324.386 475.895 319.909 475.895C315.432 475.895 310.999 475.013 306.863 473.3C302.727 471.587 298.969 469.076 295.803 465.91C292.638 462.745 290.127 458.986 288.413 454.85C286.7 450.714 285.818 446.281 285.818 441.804L319.909 441.804H354Z" fill="white"/>
</g>
<defs>
<filter id="filter0_d_1089_183" x="0" y="0.93335" width="689.818" height="1008" filterUnits="userSpaceOnUse" color-interpolation-filters="sRGB">
<feFlood flood-opacity="0" result="BackgroundImageFix"/>
<feColorMatrix in="SourceAlpha" type="matrix" values="0 0 0 0 0 0 0 0 0 0 0 0 0 0 0 0 0 0 127 0" result="hardAlpha"/>
<feOffset dy="4"/>
<feGaussianBlur stdDeviation="2"/>
<feComposite in2="hardAlpha" operator="out"/>
<feColorMatrix type="matrix" values="0 0 0 0 0 0 0 0 0 0 0 0 0 0 0 0 0 0 0.25 0"/>
<feBlend mode="normal" in2="BackgroundImageFix" result="effect1_dropShadow_1089_183"/>
<feBlend mode="normal" in="SourceGraphic" in2="effect1_dropShadow_1089_183" result="shape"/>
</filter>
</defs>
</svg>
